<?xml version="1.0" encoding="UTF-8" standalone="no"?>
<svg
   xmlns:dc="http://purl.org/dc/elements/1.1/"
   xmlns:cc="http://creativecommons.org/ns#"
   xmlns:rdf="http://www.w3.org/1999/02/22-rdf-syntax-ns#"
   xmlns:svg="http://www.w3.org/2000/svg"
   xmlns="http://www.w3.org/2000/svg"
   xmlns:sodipodi="http://sodipodi.sourceforge.net/DTD/sodipodi-0.dtd"
   xmlns:inkscape="http://www.inkscape.org/namespaces/inkscape"
   viewBox="-421 -442 784 746"
   width="500"
   height="476"
   id="svg2"
   version="1.1"
   inkscape:version="0.48.1 "
   sodipodi:docname="cmapplejack.svg">
  <metadata
     id="metadata42">
    <rdf:RDF>
      <cc:Work
         rdf:about="">
        <dc:format>image/svg+xml</dc:format>
        <dc:type
           rdf:resource="http://purl.org/dc/dcmitype/StillImage" />
      </cc:Work>
    </rdf:RDF>
  </metadata>
  <defs
     id="defs40">
    <defs
       id="defmain">
      <g
         id="def829">
        <path
           d="m -402 -5 q 34 -34 116 15 q 59 -79 107 -63 q 39 13 54 81 q 14 67 -10 122 q -27 62 -87 57 q -65 32 -124 -11 q -49 -36 -68 -105 q -19 -68 12 -96"
           fill="rgb(238, 64, 67)"
           id="def829:0" />
        <path
           d="m 40 -408 q 11 20 7 58 q -30 3 -46 -28 q -14 -30 -9 -64 q 35 11 48 34"
           fill="rgb(97, 187, 76)"
           id="def829:1" />
        <path
           d="m 51 -326 q 3 -29 17 -60 q 16 -34 35 -46 l 21 27 l -34 24 q -33 28 -39 55"
           fill="rgb(97, 187, 76)"
           id="def829:2" />
        <path
           d="m -386 -107 q 42 13 69 51 q 14 19 19 35 l -35 -2 q -38 -14 -53 -84"
           fill="rgb(97, 187, 76)"
           id="def829:3" />
        <path
           d="m -279 -37 l -10 38 q -6 -51 6 -95 l 16 -34 q 24 2 27 23 q -25 23 -39 68"
           fill="rgb(97, 187, 76)"
           id="def829:4" />
        <path
           d="m 332 88 q 44 37 25 105 q -18 62 -73 94 q -64 36 -127 -8 q -65 3 -102 -53 q -33 -49 -27 -111 q 5 -68 53 -82 q 51 -15 105 66 q 95 -52 146 -11"
           fill="rgb(238, 64, 67)"
           id="def829:5" />
        <path
           d="m -146 -286 q 6 -69 60 -83 q 60 -16 130 67 q 80 -62 118 -16 q 35 41 3 113 q -22 50 -70 76 l -101 -3 q -69 25 -112 -37 q -36 -54 -28 -117"
           fill="rgb(238, 64, 67)"
           id="def829:6" />
        <path
           d="m 243 58 l -40 21 q 2 -38 29 -77 l 28 -30 q 18 54 -17 86"
           fill="rgb(97, 187, 76)"
           id="def829:7" />
        <path
           d="m 211 -86 q 9 88 -18 161 q 5 -65 -6 -114 l -13 -35 q 13 -19 37 -12"
           fill="rgb(97, 187, 76)"
           id="def829:8" />
      </g>
    </defs>
  </defs>
  <sodipodi:namedview
     pagecolor="#ffffff"
     bordercolor="#666666"
     borderopacity="1"
     objecttolerance="10"
     gridtolerance="10"
     guidetolerance="10"
     inkscape:pageopacity="0"
     inkscape:pageshadow="2"
     inkscape:window-width="1280"
     inkscape:window-height="962"
     id="namedview38"
     showgrid="false"
     inkscape:zoom="1.0966387"
     inkscape:cx="419.71366"
     inkscape:cy="228.92839"
     inkscape:window-x="-8"
     inkscape:window-y="-8"
     inkscape:window-maximized="1"
     inkscape:current-layer="svg2" />
  <path
     style="fill:#ee4043"
     inkscape:connector-curvature="0"
     d="m -402,-5 q 34,-34 116,15 59,-79 107,-63 39,13 54,81 14,67 -10,122 -27,62 -87,57 -65,32 -124,-11 -49,-36 -68,-105 -19,-68 12,-96"
     id="path20" />
  <path
     style="fill:#61bb4c"
     inkscape:connector-curvature="0"
     d="m 40,-408 q 11,20 7,58 -30,3 -46,-28 -14,-30 -9,-64 35,11 48,34"
     id="path22" />
  <path
     style="fill:#61bb4c"
     inkscape:connector-curvature="0"
     d="m 51,-326 q 3,-29 17,-60 16,-34 35,-46 l 21,27 -34,24 q -33,28 -39,55"
     id="path24" />
  <path
     style="fill:#61bb4c"
     inkscape:connector-curvature="0"
     d="m -386,-107 q 42,13 69,51 14,19 19,35 l -35,-2 q -38,-14 -53,-84"
     id="path26" />
  <path
     style="fill:#61bb4c"
     inkscape:connector-curvature="0"
     d="m -279,-37 -10,38 q -6,-51 6,-95 l 16,-34 q 24,2 27,23 -25,23 -39,68"
     id="path28" />
  <path
     style="fill:#ee4043"
     inkscape:connector-curvature="0"
     d="m 332,88 q 44,37 25,105 -18,62 -73,94 -64,36 -127,-8 Q 92,282 55,226 22,177 28,115 33,47 81,33 132,18 186,99 281,47 332,88"
     id="path30" />
  <path
     sodipodi:nodetypes="ccccccccc"
     style="fill:#ee4043"
     inkscape:connector-curvature="0"
     d="m -146,-286 c 4,-46 24,-73.66667 60,-83 40,-10.66667 83.3333333,11.66667 130,67 53.333333,-41.33333 92.66667,-46.66667 118,-16 23.33333,27.33333 24.33333,65 3,113 -14.66667,33.33333 -38,58.66667 -70,76 -27.787769,16.99395 -65.628079,20.75203 -101,-3 -46,16.66667 -83.333333,4.33333 -112,-37 -24,-36 -33.33333,-75 -28,-117"
     id="path32" />
  <path
     style="fill:#61bb4c"
     inkscape:connector-curvature="0"
     d="m 243,58 -40,21 q 2,-38 29,-77 l 28,-30 q 18,54 -17,86"
     id="path34" />
  <path
     style="fill:#61bb4c"
     inkscape:connector-curvature="0"
     d="m 211,-86 q 9,88 -18,161 5,-65 -6,-114 l -13,-35 q 13,-19 37,-12"
     id="path36" />
</svg>
