<?xml version="1.0" encoding="UTF-8" standalone="no"?>
<svg
   xmlns:dc="http://purl.org/dc/elements/1.1/"
   xmlns:cc="http://creativecommons.org/ns#"
   xmlns:rdf="http://www.w3.org/1999/02/22-rdf-syntax-ns#"
   xmlns:svg="http://www.w3.org/2000/svg"
   xmlns="http://www.w3.org/2000/svg"
   xmlns:sodipodi="http://sodipodi.sourceforge.net/DTD/sodipodi-0.dtd"
   xmlns:inkscape="http://www.inkscape.org/namespaces/inkscape"
   viewBox="-585 -605 1874.25 2422.6347"
   width="765"
   height="990"
   id="svg2"
   version="1.1"
   inkscape:version="0.48.4 r9939"
   sodipodi:docname="Applejack.tex">
  <metadata
     id="metadata14">
    <rdf:RDF>
      <cc:Work
         rdf:about="">
        <dc:format>image/svg+xml</dc:format>
        <dc:type
           rdf:resource="http://purl.org/dc/dcmitype/StillImage" />
        <dc:title></dc:title>
      </cc:Work>
    </rdf:RDF>
  </metadata>
  <defs
     id="defs12" />
  <sodipodi:namedview
     pagecolor="#ffffff"
     bordercolor="#666666"
     borderopacity="1"
     objecttolerance="10"
     gridtolerance="10"
     guidetolerance="10"
     inkscape:pageopacity="0"
     inkscape:pageshadow="2"
     inkscape:window-width="959"
     inkscape:window-height="1021"
     id="namedview10"
     showgrid="false"
     inkscape:zoom="0.36837299"
     inkscape:cx="762.07864"
     inkscape:cy="86.029256"
     inkscape:window-x="960"
     inkscape:window-y="27"
     inkscape:window-maximized="0"
     inkscape:current-layer="svg2"
     units="in"
     fit-margin-top="0"
     fit-margin-left="0"
     fit-margin-right="0"
     fit-margin-bottom="0" />
  <g
     id="g3001"
     transform="matrix(2.390777,0,0,2.390777,421.29216,449.75539)">
    <path
       id="path20"
       d="m -402,-5 q 34,-34 116,15 59,-79 107,-63 39,13 54,81 14,67 -10,122 -27,62 -87,57 -65,32 -124,-11 -49,-36 -68,-105 -19,-68 12,-96"
       inkscape:connector-curvature="0"
       style="fill:#ee4043" />
    <path
       id="path22"
       d="m 40,-408 q 11,20 7,58 -30,3 -46,-28 -14,-30 -9,-64 35,11 48,34"
       inkscape:connector-curvature="0"
       style="fill:#61bb4c" />
    <path
       id="path24"
       d="m 51,-326 q 3,-29 17,-60 16,-34 35,-46 l 21,27 -34,24 q -33,28 -39,55"
       inkscape:connector-curvature="0"
       style="fill:#61bb4c" />
    <path
       id="path26"
       d="m -386,-107 q 42,13 69,51 14,19 19,35 l -35,-2 q -38,-14 -53,-84"
       inkscape:connector-curvature="0"
       style="fill:#61bb4c" />
    <path
       id="path28"
       d="m -279,-37 -10,38 q -6,-51 6,-95 l 16,-34 q 24,2 27,23 -25,23 -39,68"
       inkscape:connector-curvature="0"
       style="fill:#61bb4c" />
    <path
       id="path30"
       d="m 332,88 q 44,37 25,105 -18,62 -73,94 -64,36 -127,-8 Q 92,282 55,226 22,177 28,115 33,47 81,33 132,18 186,99 281,47 332,88"
       inkscape:connector-curvature="0"
       style="fill:#ee4043" />
    <path
       id="path32"
       d="m -146,-286 c 4,-46 24,-73.66667 60,-83 40,-10.66667 83.3333333,11.66667 130,67 53.333333,-41.33333 92.66667,-46.66667 118,-16 23.33333,27.33333 24.33333,65 3,113 -14.66667,33.33333 -38,58.66667 -70,76 -27.787769,16.99395 -65.628079,20.75203 -101,-3 -46,16.66667 -83.333333,4.33333 -112,-37 -24,-36 -33.33333,-75 -28,-117"
       inkscape:connector-curvature="0"
       style="fill:#ee4043"
       sodipodi:nodetypes="ccccccccc" />
    <path
       id="path34"
       d="m 243,58 -40,21 q 2,-38 29,-77 l 28,-30 q 18,54 -17,86"
       inkscape:connector-curvature="0"
       style="fill:#61bb4c" />
    <path
       id="path36"
       d="m 211,-86 q 9,88 -18,161 5,-65 -6,-114 l -13,-35 q 13,-19 37,-12"
       inkscape:connector-curvature="0"
       style="fill:#61bb4c" />
  </g>
</svg>
