<?xml version="1.0" encoding="UTF-8" standalone="no"?>
<svg
   xmlns:dc="http://purl.org/dc/elements/1.1/"
   xmlns:cc="http://creativecommons.org/ns#"
   xmlns:rdf="http://www.w3.org/1999/02/22-rdf-syntax-ns#"
   xmlns:svg="http://www.w3.org/2000/svg"
   xmlns="http://www.w3.org/2000/svg"
   xmlns:sodipodi="http://sodipodi.sourceforge.net/DTD/sodipodi-0.dtd"
   xmlns:inkscape="http://www.inkscape.org/namespaces/inkscape"
   viewBox="-585 -605 1874.25 2422.6347"
   width="765"
   height="990"
   id="svg2"
   version="1.1"
   inkscape:version="0.48.4 r9939"
   sodipodi:docname="Applejack.svg">
  <metadata
     id="metadata14">
    <rdf:RDF>
      <cc:Work
         rdf:about="">
        <dc:format>image/svg+xml</dc:format>
        <dc:type
           rdf:resource="http://purl.org/dc/dcmitype/StillImage" />
        <dc:title></dc:title>
      </cc:Work>
    </rdf:RDF>
  </metadata>
  <defs
     id="defs12" />
  <sodipodi:namedview
     pagecolor="#ffffff"
     bordercolor="#666666"
     borderopacity="1"
     objecttolerance="10"
     gridtolerance="10"
     guidetolerance="10"
     inkscape:pageopacity="0"
     inkscape:pageshadow="2"
     inkscape:window-width="959"
     inkscape:window-height="1021"
     id="namedview10"
     showgrid="false"
     inkscape:zoom="0.36837299"
     inkscape:cx="762.07864"
     inkscape:cy="86.029256"
     inkscape:window-x="960"
     inkscape:window-y="27"
     inkscape:window-maximized="0"
     inkscape:current-layer="svg2"
     units="in"
     fit-margin-top="0"
     fit-margin-left="0"
     fit-margin-right="0"
     fit-margin-bottom="0" />
  <g
     id="g4789"
     transform="matrix(0.86553544,0,0,0.86553544,-600.134,-631.40108)">
    <path
       inkscape:connector-curvature="0"
       id="path4191"
       d="m 213.32633,678.84607 c -52.01722,-44.04372 -84.02712,-91.99685 -90.7598,-135.96471 -1.55024,-10.12386 3.15538,-31.95249 9.7966,-45.44492 9.82776,-19.96624 25.06787,-36.08929 62.07092,-65.667 24.69644,-19.74065 28.2914,-21.91998 28.83254,-17.47882 4.43285,36.38072 15.75902,84.38616 25.30225,107.24241 18.11329,43.38174 46.33195,81.59951 80.92595,109.60156 l 11.13839,9.01595 -12.38224,7.42159 c -14.78108,8.85943 -66.56149,34.26976 -80.59677,39.55148 -14.9544,5.6276 -19.08041,4.63268 -34.32784,-8.27754 l 0,0 z"
       style="fill:#eefd8d;fill-opacity:1;stroke:none" />
    <path
       inkscape:connector-curvature="0"
       id="path4193"
       d="m 455.97956,531.23881 c -13.21516,-23.75238 -32.28927,-64.47167 -39.96255,-85.31185 -17.6875,-48.03816 -30.43127,-88.2366 -36.12673,-113.95662 -0.99343,-4.48623 -4.04915,-18.1197 -6.79049,-30.29661 -9.05899,-40.23962 -22.23819,-125.63736 -20.79838,-134.76794 0.77516,-4.91567 5.01055,-2.19387 45.13509,29.00531 24.35382,18.93652 44.80403,35.07113 45.44492,35.85469 0.64089,0.78356 10.07945,8.12137 20.97458,16.30625 10.89512,8.18487 20.33368,15.46596 20.97457,16.1802 0.64089,0.71423 6.4089,5.45796 12.8178,10.54162 14.3856,11.41092 15.06841,12.36708 15.11262,21.16271 0.0453,9.00708 7.39822,42.76911 15.08369,69.25873 3.25961,11.23494 5.92657,22.79204 5.92657,25.68244 0,13.95939 18.21263,65.61409 29.53597,83.76994 2.98191,4.7812 5.42166,9.14897 5.42166,9.70617 0,0.5572 -5.50583,5.01945 -12.23517,9.91613 -6.72935,4.89665 -13.2839,9.73933 -14.56568,10.76147 -21.52072,17.16144 -68.33498,50.6477 -70.80622,50.6477 -0.84326,0 -7.65727,-11.00715 -15.14225,-24.46034 z"
       style="fill:#eefd8d;fill-opacity:1;stroke:none" />
    <path
       inkscape:connector-curvature="0"
       id="path4195"
       d="m 789.19109,560.9428 c -0.6876,-2.24312 -2.78781,-12.99259 -4.66713,-23.88771 C 779.51459,508.0138 767.81454,464.5449 756.29647,432.1822 743.28843,395.6331 703.95131,329.88166 676.82288,299.34322 c -17.19831,-19.3601 -54.03312,-56.2002 -71.60096,-71.61122 -14.98821,-13.14811 -14.94169,-12.27715 -1.53542,-28.74603 20.695,-25.42267 54.74877,-53.33845 77.97102,-63.91719 13.56883,-6.18119 25.81807,-10.91404 39.08292,-15.10081 l 13.34631,-4.21248 19.28081,13.16488 c 94.60594,64.59667 131.4252,109.07688 166.14894,200.71946 7.63584,20.15242 19.97127,72.59721 26.73844,113.6799 2.46423,14.96002 2.33475,17.66514 -1.09609,22.90128 -11.74478,17.92478 -40.46415,46.61506 -60.16105,60.10008 -25.47187,17.43873 -43.34499,25.57498 -75.0613,34.16966 -20.02726,5.4271 -19.22571,5.40962 -20.74541,0.45205 z"
       style="fill:#eefd8d;fill-opacity:1;stroke:none" />
    <path
       inkscape:connector-curvature="0"
       id="path4197"
       d="m 1237.3331,644.67797 c -21.5845,-19.31731 -59.517,-53.91259 -69.4536,-63.34322 -3.3764,-3.20445 -19.2249,-17.85997 -35.2189,-32.56783 -15.994,-14.70787 -31.5077,-29.05291 -34.4749,-31.87789 -3.9679,-3.77782 -5.6446,-8.41646 -6.3392,-17.5381 -5.8921,-77.36966 -8.7886,-100.2866 -18.5045,-146.40601 -6.9841,-33.15227 -24.4948,-85.91829 -35.2492,-106.21878 l -5.0341,-9.50267 23.5455,-14.96767 c 12.95,-8.23221 25.6712,-16.11703 28.2694,-17.52181 2.5982,-1.40478 17.21,-9.5787 32.4707,-18.16427 15.2607,-8.58557 28.5198,-14.7773 29.4648,-13.75941 9.4342,10.16268 28.4142,59.47306 39.2848,102.06257 5.1939,20.34886 15.2866,78.69269 22.3747,129.34322 16.4308,117.41265 36.3669,221.65469 48.0824,251.41346 1.2006,3.04964 1.8675,5.86023 1.4819,6.24577 -0.3855,0.38551 -9.7004,-7.35329 -20.6998,-17.19736 z"
       style="fill:#eefd8d;fill-opacity:1;stroke:none" />
    <path
       inkscape:connector-curvature="0"
       id="path4199"
       d="m 1327.6344,367.64145 c -0.8196,-0.81968 -1.5011,-5.77262 -1.5144,-11.00657 -0.051,-19.95011 -12.7695,-80.923 -22.2816,-106.8151 -2.0013,-5.44749 -4.255,-12.00198 -5.0083,-14.56554 -2.4129,-8.21131 -23.0733,-46.58414 -34.0628,-63.26519 -5.8521,-8.88286 -15.9751,-22.2473 -22.4957,-29.69877 -9.4558,-10.80563 -11.3082,-14.20778 -9.1511,-16.80691 1.4875,-1.79234 3.5207,-3.25879 4.5183,-3.25879 0.9975,0 10.5699,-4.07716 21.2718,-9.06036 44.5994,-20.767014 75.3167,-31.384029 80.7874,-27.923121 4.264,2.697495 26.8171,32.447211 40.3138,53.177711 18.7131,28.7427 36.7635,72.57587 46.1145,111.98373 8.5492,36.02848 7.6461,39.58274 -15.4136,60.66538 -17.3387,15.85219 -21.9511,19.42865 -40.5691,31.45718 -9.4592,6.11138 -21.3935,13.88379 -26.5207,17.27205 -14.0413,9.27922 -14.3849,9.44783 -15.9885,7.8443 z"
       style="fill:#eefd8d;fill-opacity:1;stroke:none" />
    <path
       inkscape:connector-curvature="0"
       id="path4201"
       d="m 871.59576,1116.7691 c -3.23283,-2.884 -12.66067,-10.941 -20.95076,-17.9045 -56.75643,-47.6738 -70.46453,-86.0361 -48.35663,-135.32646 5.04025,-11.23743 21.22628,-37.11946 30.06664,-48.07762 12.02913,-14.91084 50.83974,-51.77653 66.14082,-62.8263 l 16.31356,-11.78094 10.48728,3.69705 c 21.06952,7.42757 93.32373,45.52164 93.07753,49.07255 -0.044,0.64089 -6.0358,5.36017 -13.3141,10.48729 -29.34548,20.67217 -62.1772,57.51956 -80.51074,90.35806 -15.70297,28.12667 -32.31627,75.62887 -39.10543,111.81357 -1.62333,8.652 -4.08074,15.7309 -5.46091,15.7309 -1.38017,0 -5.15444,-2.3596 -8.38726,-5.2436 z"
       style="fill:#eefd8d;fill-opacity:1;stroke:none" />
    <path
       inkscape:connector-curvature="0"
       id="path4203"
       d="m 988.2204,1360.3238 c 0,-14.6601 6.69957,-67.9817 12.52,-99.6458 14.517,-78.9757 36.7418,-143.5505 69.5458,-202.0678 1.6488,-2.9411 5.8818,-9.169 9.4067,-13.8396 3.5249,-4.6707 6.4089,-9.5648 6.4089,-10.8757 0,-1.311 0.7865,-2.7332 1.7478,-3.1604 0.9614,-0.4273 5.8626,-6.0205 10.8916,-12.4294 11.1589,-14.2207 38.5283,-40.79791 41.9611,-40.74655 2.5859,0.0387 39.6694,27.31175 57.5583,42.33125 5.6061,4.7068 15.6987,12.8548 22.428,18.1065 6.7294,5.2517 12.2352,10.4155 12.2352,11.4752 0,1.0596 -3.0426,6.1268 -6.7614,11.2604 -20.9631,28.9388 -42.1793,92.0147 -42.1793,125.3994 0,5.8924 -1.9994,15.113 -4.4432,20.4902 -2.4438,5.3773 -7.2148,16.0692 -10.6022,23.7599 -6.3355,14.3838 -11.1578,19.7018 -29.1816,32.1816 -5.7391,3.9737 -12.0314,8.524 -13.9831,10.1116 -2.9641,2.4113 -19.555,14.6417 -76.9594,56.7323 -25.7667,18.8929 -55.28005,40.6753 -57.68006,42.5707 -2.26233,1.7868 -2.91314,-0.8168 -2.91314,-11.6538 z"
       style="fill:#eefd8d;fill-opacity:1;stroke:none" />
    <path
       inkscape:connector-curvature="0"
       id="path4205"
       d="m 1349.4492,1413.1252 c -42.7215,-15.0702 -75.4367,-38.7005 -101.0148,-72.9631 -6.7996,-9.1082 -13.0597,-17.7528 -13.9115,-19.2102 -0.9218,-1.5772 5.7515,-8.111 16.4876,-16.1429 9.9199,-7.4212 18.5605,-14.0942 19.2014,-14.829 0.6409,-0.7348 8.5064,-7.5713 17.4788,-15.1922 57.399,-48.7531 102.8344,-105.9097 131.6342,-165.5929 16.0535,-33.2685 35.904,-96.7509 40.8802,-130.73607 l 1.3983,-9.54965 16.7513,4.10409 c 22.1384,5.42394 30.1187,8.38571 48.2132,17.89365 30.1485,15.84188 58.9731,41.82178 76.8585,69.27318 l 9.4239,14.4645 -3.5254,18.4404 c -14.6902,76.8392 -29.4813,117.7191 -58.67,162.1535 -12.7809,19.4566 -56.9031,64.9118 -81.1845,83.6371 -8.9725,6.9194 -16.8379,13.1648 -17.4788,13.8786 -0.6409,0.7138 -6.9333,5.4236 -13.9831,10.4661 -7.0497,5.0426 -13.3421,9.7475 -13.983,10.4554 -3.2573,3.5981 -58.6381,44.2874 -60.0791,44.1413 -0.9237,-0.094 -7.4474,-2.205 -14.4972,-4.6918 z"
       style="fill:#eefd8d;fill-opacity:1;stroke:none" />
    <path
       inkscape:connector-curvature="0"
       id="path4207"
       d="m 1747.7524,1342.6754 c -36.3359,-21.8799 -69.5852,-43.9775 -69.6543,-46.2924 -0.026,-0.8707 4.3108,-8.1442 9.6373,-16.1633 24.8908,-37.4739 50.9467,-98.366 61.4258,-143.5512 6.1224,-26.3993 10.4575,-63.325 10.4575,-89.0754 l 0,-24.6676 49.2403,-41.92884 c 27.0821,-23.06087 51.0728,-43.50195 53.3127,-45.42462 2.2398,-1.92267 9.6456,-8.21505 16.4573,-13.98306 28.0357,-23.73998 50.3276,-42.73332 56.3605,-48.02072 7.2457,-6.35036 7.3737,-5.98159 3.8641,11.13742 -10.229,49.89514 -11.3542,54.85046 -26.631,117.28582 -18.008,73.5981 -43.1385,155.1331 -66.4429,215.5721 -2.7183,7.0497 -5.8003,15.4396 -6.8489,18.644 -7.4025,22.6221 -54.9947,125.9676 -57.8842,125.6945 -0.8902,-0.084 -15.8726,-8.7362 -33.2942,-19.2267 z"
       style="fill:#eefd8d;fill-opacity:1;stroke:none" />
    <path
       inkscape:connector-curvature="0"
       id="path4209"
       d="m 1961.0343,1449.9132 c -21.4023,-6.7151 -91.2685,-37.5274 -96.141,-42.3999 -0.48,-0.48 2.8225,-4.8742 7.3388,-9.765 33.8296,-36.6351 54.5055,-68.4866 73.8488,-113.7652 7.3896,-17.2973 11.8681,-31.2608 31.4598,-98.0862 1.912,-6.5216 3.4763,-14.1249 3.4763,-16.8962 0,-2.7714 0.6269,-5.0388 1.393,-5.0388 2.0913,0 39.2707,26.3453 40.1677,28.4628 0.4273,1.0086 2.1752,1.8338 3.8842,1.8338 1.7091,0 3.4569,0.7865 3.8842,1.7479 0.4273,0.9613 5.4961,5.5651 11.2641,10.2307 17.241,13.9457 22.3139,18.9395 31.0257,30.5421 7.0861,9.4374 8.1154,12.3417 7.0202,19.8093 -3.943,26.8855 -15.98,62.022 -30.5417,89.153 -7.5173,14.0059 -42.9898,63.8871 -51.5539,72.4947 -2.0491,2.0595 -6.2542,6.7788 -9.3445,10.4873 -18.7208,22.4652 -19.9823,23.4486 -27.1817,21.1897 z"
       style="fill:#eefd8d;fill-opacity:1;stroke:none" />
    <path
       inkscape:connector-curvature="0"
       id="path4211"
       d="m 1336.6314,2116.7843 c -11.1528,-3.6978 -41.007,-16.5287 -52.4364,-22.5363 -9.9854,-5.2486 -38.7386,-20.791 -42.6099,-23.0326 -2.0982,-1.215 8.3607,-10.0078 11.904,-10.0078 1.2933,0 2.7009,-0.7865 3.1282,-1.7479 0.4273,-0.9613 4.9717,-4.8764 10.0989,-8.7003 20.8694,-15.5646 40.6264,-34.4242 52.5311,-50.145 4.3679,-5.768 8.5173,-11.0116 9.221,-11.6525 2.6498,-2.4137 10.6536,-15.641 17.7708,-29.369 14.2118,-27.4122 22.7839,-60.2859 27.7403,-106.3832 0.7924,-7.3702 2.0032,-13.4004 2.6905,-13.4004 3.321,0 34.4306,26.2995 52.6606,44.5182 22.3698,22.3561 30.367,36.1603 34.8196,60.1032 2.1917,11.7849 1.9395,16.4096 -1.6264,29.8222 -11.8083,44.4155 -52.284,96.427 -107.6598,138.3431 -4.9007,3.7096 -9.4348,6.691 -10.0757,6.6255 -0.6409,-0.066 -4.3114,-1.1623 -8.1568,-2.4372 z"
       style="fill:#eefd8d;fill-opacity:1;stroke:none" />
    <path
       inkscape:connector-curvature="0"
       id="path4213"
       d="m 1100.0848,1979.331 c -7.0498,-5.0776 -14.9388,-11.018 -17.531,-13.201 -2.5923,-2.1829 -17.0124,-13.2971 -32.0445,-24.6982 -15.0322,-11.401 -27.3313,-21.57 -27.3313,-22.5976 0,-1.0276 3.5538,-7.9548 7.8974,-15.3937 14.0211,-24.013 40.5809,-80.5892 46.7849,-99.6582 8.072,-24.8106 15.233,-59.848 15.233,-74.5318 l 0,-11.935 29.3976,-21.9188 c 16.1687,-12.0554 30.5887,-23.0351 32.0445,-24.3993 1.4558,-1.3643 6.8418,-5.5712 11.9689,-9.3488 5.1271,-3.7776 9.8464,-7.4995 10.4873,-8.2709 0.6409,-0.7714 20.3471,-15.8355 43.7915,-33.4758 l 42.6264,-32.0732 -1.4243,21.7001 c -2.8214,42.988 -11.9337,98.5217 -22.4898,137.0602 -2.6332,9.6133 -5.6387,20.625 -6.6788,24.4703 -4.8903,18.0784 -13.458,41.0793 -27.6338,74.1857 -13.2902,31.0381 -28.303,58.7387 -48.6265,89.7223 -14.6562,22.3438 -39.4017,54.0887 -41.9339,53.7952 -0.9459,-0.1097 -7.4878,-4.3538 -14.5376,-9.4315 z"
       style="fill:#eefd8d;fill-opacity:1;stroke:none" />
    <path
       inkscape:connector-curvature="0"
       id="path4215"
       d="m 769.15261,1998.3653 c -29.2978,-8.0436 -50.77923,-18.967 -75.74153,-38.515 -18.70987,-14.6517 -24.11862,-20.0279 -37.53355,-37.3079 -12.96272,-16.6975 -13.16514,-17.6797 -7.7872,-37.783 7.38759,-27.6156 17.81375,-57.5699 29.13009,-83.6906 11.99348,-27.6837 34.89143,-72.6971 39.66184,-77.9684 1.83132,-2.0236 3.32967,-4.3307 3.32967,-5.1268 0,-3.4472 27.80141,-42.1919 43.01294,-59.9439 8.95076,-10.4457 51.10226,-52.6186 62.16697,-62.1986 12.82216,-11.1017 55.68637,-42.6743 57.93627,-42.6743 3.50315,0 40.53453,13.6518 48.96009,18.0494 16.57273,8.6498 35.98021,22.2709 48.43039,33.9907 12.17651,11.4622 35.46791,40.0337 35.46791,43.5085 0,0.8982 -8.652,7.4039 -19.22669,14.4572 -16.42682,10.9565 -38.20775,29.2252 -56.44466,47.3427 -34.33303,34.1082 -68.37588,87.8385 -94.41351,149.0141 -14.94153,35.1052 -35.77827,94.1754 -45.72616,129.6294 -4.4819,15.9734 -5.50817,16.2763 -31.22287,9.2165 l 0,0 z"
       style="fill:#eefd8d;fill-opacity:1;stroke:none" />
    <path
       inkscape:connector-curvature="0"
       id="path4217"
       d="m 317.03396,2106.6298 c 0,-4.7971 1.58332,-18.8148 3.51848,-31.1504 9.41552,-60.019 11.09549,-70.2695 14.17954,-86.5175 8.43951,-44.4627 20.84265,-99.9131 27.88888,-124.6822 17.87792,-62.845 24.42884,-82.658 41.22478,-124.6822 18.36061,-45.9392 51.87037,-111.1333 61.02968,-118.7349 2.18237,-1.8112 7.47513,0.01 19.94257,6.8635 9.33445,5.1309 17.26421,9.329 17.62168,9.329 1.35632,0 35.56892,20.7409 52.68666,31.9405 l 17.85923,11.6847 -10.3936,16.0582 c -38.8174,59.9729 -61.61398,137.8333 -65.25199,222.8643 l -1.5693,36.6792 -17.50507,15.7573 c -9.62779,8.6665 -18.64907,16.806 -20.0473,18.0878 -1.39822,1.2818 -11.44596,10.196 -22.32831,19.8093 -10.88235,9.6134 -20.93003,18.5276 -22.3282,19.8094 -2.73054,2.5032 -26.73388,23.7066 -47.58705,42.0362 -7.04979,6.1966 -13.9892,12.3825 -15.42093,13.7465 -1.43172,1.364 -5.10227,4.6051 -8.15678,7.2025 -3.0545,2.5973 -10.01074,8.7495 -15.45831,13.6716 l -9.90466,8.9491 0,-8.7219 z"
       style="fill:#eefd8d;fill-opacity:1;stroke:none" />
    <path
       inkscape:connector-curvature="0"
       id="path4219"
       d="m 243.88133,1803.4989 c -39.37719,-26.3321 -53.28916,-37.9277 -65.56071,-54.6449 l -8.32452,-11.3403 4.7941,-24.0111 c 9.27391,-46.448 19.60761,-75.0509 38.05356,-105.3293 15.09964,-24.7855 21.25039,-32.5379 45.19935,-56.9692 l 19.08118,-19.4655 19.37221,6.2456 c 21.00957,6.7735 71.96861,27.9011 80.72494,33.4685 l 5.42053,3.4465 -15.90782,15.6711 c -23.47646,23.1272 -26.91743,27.2368 -41.37086,49.4104 -28.05911,43.0464 -42.95031,86.6662 -52.26368,153.0924 l -3.84107,27.3959 -25.37721,-16.9701 z"
       style="fill:#eefd8d;fill-opacity:1;stroke:none" />
    <path
       inkscape:connector-curvature="0"
       id="path4221"
       d="M 330.74818,628.68175 C 301.3792,604.81112 272.1461,567.6009 256.89792,534.67925 244.78958,508.53668 238.5061,486.84598 230.62013,443.96784 c -6.292,-34.21133 -6.04475,-37.49678 3.30059,-43.85912 7.82307,-5.32596 41.16409,-38.48723 41.16409,-40.94216 0,-0.72982 3.00456,-5.83664 6.6768,-11.34846 16.35979,-24.55512 20.77597,-64.51166 9.5952,-86.81505 -9.92802,-19.80439 -20.19025,-28.48215 -70.563,-59.66818 -32.0729,-19.85649 -47.46927,-36.76804 -53.20501,-58.441 -2.66345,-10.06405 -2.42652,-11.67091 3.51006,-23.80483 10.22299,-20.895039 35.61719,-39.983609 56.83278,-42.720643 7.05513,-0.910186 10.90264,0.334245 20.35232,6.582721 6.4089,4.237797 12.00212,8.515596 12.42938,9.506221 0.42726,0.990625 2.26254,1.801137 4.07839,1.801137 1.81585,0 3.30872,0.786546 3.31748,1.747881 0.009,0.961335 3.86583,4.369703 8.57127,7.574153 4.70544,3.20445 9.67973,6.8965 11.05399,8.20455 1.37425,1.30806 8.26665,6.5359 15.31644,11.61743 7.04979,5.08152 14.65722,10.90985 16.90541,12.95183 2.24818,2.04198 9.75207,7.81775 16.6753,12.83503 l 12.58769,9.12234 1.57232,17.4967 c 1.78141,19.8235 9.1838,71.6513 12.98405,90.90771 7.51667,38.0881 15.73593,75.08892 19.93118,89.72458 10.4371,36.41116 16.72691,56.02778 24.28554,75.74152 2.70302,7.04979 6.2989,16.55284 7.99087,21.11791 7.16392,19.32875 31.51885,69.80094 43.22669,89.58125 3.79337,6.4089 6.91495,12.93308 6.93681,14.49823 0.0363,2.59845 -57.39777,41.8547 -84.41816,57.69992 -2.23044,1.30797 -11.78997,7.19845 -21.2434,13.08997 l -17.18806,10.71186 -12.54897,-10.19959 z"
       style="fill:#6bc3f8;fill-opacity:1;stroke:#6bc3f8;stroke-width:6;stroke-miterlimit:4;stroke-opacity:1;stroke-dasharray:none" />
    <path
       inkscape:connector-curvature="0"
       id="path4223"
       d="m 523.53692,338.91839 c -7.2671,-30.94306 -9.9813,-48.8972 -7.392,-48.8972 0.89315,0 5.2288,3.40837 9.63477,7.57415 l 8.01086,7.57415 -1.75753,31.22074 -1.75753,31.22074 -6.73857,-28.69258 z"
       style="fill:#6bc3f8;fill-opacity:1;stroke:#6bc3f8;stroke-width:6;stroke-miterlimit:4;stroke-opacity:1;stroke-dasharray:none" />
    <path
       inkscape:connector-curvature="0"
       id="path4225"
       d="m 727.50114,564.98966 c -42.24501,-5.91374 -82.12506,-26.10638 -114.3389,-57.89373 -58.54698,-57.77186 -78.56091,-148.91746 -50.99199,-232.22305 5.1863,-15.67157 22.33279,-51.41806 26.20524,-54.63191 5.33398,-4.42681 72.05891,61.25686 100.91379,99.33901 36.55713,48.24742 64.28778,103.83514 79.01426,158.38875 7.96548,29.50773 19.75706,85.2131 18.34058,86.64383 -1.92689,1.94623 -45.92956,2.2268 -59.14298,0.3771 z"
       style="fill:#6bc3f8;fill-opacity:1;stroke:#6bc3f8;stroke-width:6;stroke-miterlimit:4;stroke-opacity:1;stroke-dasharray:none" />
    <path
       inkscape:connector-curvature="0"
       id="path4227"
       d="m 949.93851,450.72904 c -0.72942,-3.15096 -2.86657,-14.64323 -4.74924,-25.53836 -6.94315,-40.18058 -11.93744,-60.30373 -23.70563,-95.51537 -8.77296,-26.24958 -24.64765,-60.96703 -34.43024,-75.29787 -3.32001,-4.8636 -6.03639,-9.40035 -6.03639,-10.08168 0,-3.45228 -24.45473,-32.48791 -43.03786,-51.09978 -22.46204,-22.49678 -50.52228,-45.20912 -80.50879,-65.1649 -21.23402,-14.13107 -21.21101,-14.163 11.98204,-16.62519 70.55733,-5.23381 142.52215,30.32802 182.41635,90.14209 20.25259,30.36505 31.70313,62.05262 36.49829,101.00329 5.62624,45.70159 -7.02732,104.77278 -30.74255,143.51676 -6.05011,9.88417 -6.42434,10.11112 -7.68598,4.66101 l 0,0 z"
       style="fill:#6bc3f8;fill-opacity:1;stroke:#6bc3f8;stroke-width:6;stroke-miterlimit:4;stroke-opacity:1;stroke-dasharray:none" />
    <path
       inkscape:connector-curvature="0"
       id="path4229"
       d="m 1055.8515,477.04449 c -18.5023,-17.62447 -40.2597,-38.42368 -48.3498,-46.22046 l -14.70937,-14.17598 4.52054,-14.95538 c 6.41623,-21.2269 11.88213,-56.02851 11.88213,-75.654 0,-14.2205 -3.9483,-44.81371 -8.1571,-63.20413 -0.9338,-4.08059 1.1866,-6.53057 11.0752,-12.7967 20.1048,-12.73976 19.0125,-12.96615 27.3442,5.66729 27.3088,61.07513 43.6094,139.77169 49.7082,239.98343 0.4485,7.37023 0.7055,13.40042 0.571,13.40042 -0.1345,0 -15.3828,-14.42002 -33.885,-32.04449 l 0,0 z"
       style="fill:#6bc3f8;fill-opacity:1;stroke:#6bc3f8;stroke-width:6;stroke-miterlimit:4;stroke-opacity:1;stroke-dasharray:none" />
    <path
       inkscape:connector-curvature="0"
       id="path4231"
       d="m 1285.1444,686.79026 c -24.8784,-20.29624 -23.7271,-18.15821 -35.4538,-65.83687 -14.8359,-60.31973 -22.7221,-102.71837 -34.2448,-184.11017 -13.1928,-93.18858 -19.5027,-129.73002 -29.4529,-170.56533 -8.2777,-33.97151 -25.1761,-77.73697 -34.2161,-88.61694 -6.3176,-7.60335 -6.0557,-7.79369 51.4099,-37.37073 18.4998,-9.52163 23.3347,-11.1559 26.1332,-8.83331 4.6128,3.82827 38.5615,48.2154 38.5615,50.41824 0,0.95749 1.532,3.43372 3.4044,5.50273 5.9769,6.60434 23.848,44.83373 31.0964,66.52043 10.415,31.16119 17.6496,65.67139 21.1459,100.87018 l 1.6859,16.97188 -9.4396,7.49846 c -43.774,34.77245 -61.876,64.8893 -61.876,102.94469 0,28.45646 14.2415,50.22031 48.9406,74.79084 7.0498,4.99197 13.3422,9.63719 13.9831,10.32271 0.6409,0.68552 5.3602,4.34288 10.4873,8.12744 28.0497,20.70484 45.4449,45.64613 45.4449,65.15892 0,18.11413 -19.8466,40.2654 -47.2011,52.68219 -16.5846,7.52813 -24.8716,6.20018 -40.4088,-6.47536 l 0,0 z"
       style="fill:#6bc3f8;fill-opacity:1;stroke:#6bc3f8;stroke-width:6;stroke-miterlimit:4;stroke-opacity:1;stroke-dasharray:none" />
    <path
       inkscape:connector-curvature="0"
       id="path4233"
       d="m 1432.4458,271.70542 c -4.1334,-31.15871 -20.4814,-80.77486 -36.6324,-111.17901 -7.4907,-14.10119 -27.1338,-45.51332 -29.7809,-47.62387 -0.8038,-0.64089 -4.57,-5.36017 -8.3692,-10.48728 -3.7993,-5.127123 -8.7748,-11.355064 -11.0567,-13.839872 -5.2431,-5.709311 -5.2651,-8.300203 -0.071,-8.299088 5.0774,0.0011 35.3121,29.77628 54.5052,53.67675 8.63,10.74666 26.323,39.69437 32.0031,52.36051 13.4615,30.01823 16.0191,63.60602 6.4878,85.20292 l -5.4679,12.38965 -1.6185,-12.20071 0,0 z"
       style="fill:#6bc3f8;fill-opacity:1;stroke:#6bc3f8;stroke-width:6;stroke-miterlimit:4;stroke-opacity:1;stroke-dasharray:none" />
    <path
       inkscape:connector-curvature="0"
       id="path4235"
       d="m 849.03397,1455.3867 c -16.38123,-5.896 -29.10372,-15.4193 -37.50602,-28.0746 -10.80146,-16.2689 -12.85329,-25.1875 -8.58067,-37.2974 7.92748,-22.4689 28.03077,-41.1782 67.58244,-62.8961 36.065,-19.8034 58.76091,-39.0781 69.19135,-58.7615 4.53999,-8.5674 5.30779,-13.5354 5.32881,-34.48 0.0376,-37.4389 -7.19398,-52.8651 -41.00745,-87.4759 l -20.57132,-21.0564 5.56502,-24.6285 c 5.34097,-23.637 10.79888,-42.4348 18.85306,-64.9324 4.67197,-13.0502 21.4599,-46.50749 25.81851,-51.45469 1.78283,-2.0236 3.24152,-4.41048 3.24152,-5.30418 0,-3.81 17.84551,-25.00343 35.60756,-42.28774 33.05482,-32.16581 46.69662,-41.7796 53.90452,-37.98823 14.348,7.54708 110.9255,73.75837 110.8786,76.01577 -0.018,0.87511 -5.0999,5.78602 -11.2927,10.91314 -12.4988,10.34811 -36.345,38.44203 -50.0068,58.91463 -9.9623,14.9288 -36.7499,68.2991 -42.3678,84.4116 -15.6355,44.8431 -27.6855,89.2585 -35.72357,131.6738 -4.60171,24.2824 -12.04154,85.6894 -12.05052,99.4627 -0.01,15.1591 0.41456,14.5968 -24.6786,32.6991 -59.53868,42.9516 -94.93474,67.1452 -98.04192,67.0126 -1.08367,-0.046 -7.44847,-2.0558 -14.14402,-4.4657 l 0,0 z"
       style="fill:#6bc3f8;fill-opacity:1;stroke:#6bc3f8;stroke-width:6;stroke-miterlimit:4;stroke-opacity:1;stroke-dasharray:none" />
    <path
       inkscape:connector-curvature="0"
       id="path4237"
       d="m 1167.7663,1239.4194 c 0.053,-1.1256 3.6988,-9.3876 8.1012,-18.3601 l 8.0044,-16.3135 -0.527,12.5351 c -0.4669,11.1042 -1.3917,13.2001 -8.1012,18.3601 -4.1658,3.2038 -7.5306,4.904 -7.4774,3.7784 z"
       style="fill:#6bc3f8;fill-opacity:1;stroke:#6bc3f8;stroke-width:6;stroke-miterlimit:4;stroke-opacity:1;stroke-dasharray:none" />
    <path
       inkscape:connector-curvature="0"
       id="path4239"
       d="m 1227.23,1308.0186 c -1.7869,-4.2471 -5.5307,-12.9656 -8.3194,-19.3745 -11.8926,-27.3305 -14.8354,-44.2651 -14.7821,-85.0636 0.054,-41.5598 2.7058,-56.3359 16.1315,-89.8949 27.344,-68.3492 86.7379,-121.1276 157.1553,-139.65083 18.0451,-4.74674 27.6354,-5.82495 51.8538,-5.82974 34.2502,-0.007 32.3726,-1.81944 26.0513,25.15076 -12.5733,53.64411 -22.6206,83.39541 -40.386,119.58721 -30.4718,62.0775 -82.7478,123.4178 -152.4805,178.9196 -32.9105,26.1942 -31.3094,25.4598 -35.2239,16.156 l 0,0 z"
       style="fill:#6bc3f8;fill-opacity:1;stroke:#6bc3f8;stroke-width:6;stroke-miterlimit:4;stroke-opacity:1;stroke-dasharray:none" />
    <path
       inkscape:connector-curvature="0"
       id="path4241"
       d="m 1385.5721,1421.5029 c -1.2818,-0.4276 -5.3653,-1.4513 -9.0745,-2.275 l -6.744,-1.4976 5.5787,-3.8148 c 3.0684,-2.0982 6.1031,-4.4554 6.744,-5.2384 0.6409,-0.7829 5.3602,-4.5083 10.4873,-8.2786 5.1271,-3.7702 9.8464,-7.42 10.4873,-8.1104 0.6409,-0.6905 6.9333,-5.3812 13.9831,-10.4237 7.0498,-5.0425 13.3421,-9.7604 13.983,-10.4842 0.6409,-0.7239 10.0795,-8.0123 20.9746,-16.1966 35.0841,-26.3548 67.9023,-56.2753 87.1167,-79.4249 33.9092,-40.8538 60.2599,-106.3334 71.4845,-177.6337 1.5638,-9.9338 3.6,-18.0614 4.5248,-18.0614 2.7462,0 16.0008,35.649 20.9858,56.4423 8.7844,36.642 5.8728,86.8355 -7.3382,126.5026 -26.3496,79.117 -95.1503,140.732 -174.4431,156.2241 -15.1595,2.9618 -62.0365,4.5098 -68.75,2.2703 z"
       style="fill:#6bc3f8;fill-opacity:1;stroke:#6bc3f8;stroke-width:6;stroke-miterlimit:4;stroke-opacity:1;stroke-dasharray:none" />
    <path
       inkscape:connector-curvature="0"
       id="path4243"
       d="m 1660.5721,1286.0157 c -7.6907,-5.4595 -13.7842,-11.2964 -13.5412,-12.971 0.243,-1.6746 2.5248,-10.752 5.0707,-20.1721 7.7761,-28.7724 10.6096,-63.7343 7.422,-91.5769 -1.5197,-13.2741 -3.8553,-28.5522 -5.1902,-33.9513 -1.9033,-7.6982 -1.7435,-10.4744 0.7406,-12.8648 1.7422,-1.6765 12.0818,-10.8143 22.9769,-20.3062 10.8951,-9.492 20.3337,-17.8868 20.9746,-18.6552 1.4007,-1.6794 48.2314,-41.8104 54.5526,-46.7481 4.3455,-3.3946 4.4148,-2.6526 3.0484,32.6494 -2.2956,59.3095 -15.8934,111.0884 -44.9834,171.2924 -7.306,15.1202 -24.0715,44.3697 -32.1015,56.0048 l -4.9865,7.2253 -13.983,-9.9263 0,0 z"
       style="fill:#6bc3f8;fill-opacity:1;stroke:#6bc3f8;stroke-width:6;stroke-miterlimit:4;stroke-opacity:1;stroke-dasharray:none" />
    <path
       inkscape:connector-curvature="0"
       id="path4245"
       d="m 1840.0213,1395.0015 c -8.9725,-4.7977 -22.606,-12.3468 -30.2967,-16.7757 -7.6906,-4.4289 -16.6675,-9.4252 -19.9485,-11.1029 l -5.9654,-3.0503 14.1222,-28.6628 c 18.3551,-37.254 18.1575,-36.8159 33.1804,-73.5666 26.3728,-64.5157 51.7769,-139.5161 69.4663,-205.0847 2.2478,-8.3316 5.4348,-19.8676 7.0823,-25.6356 7.8172,-27.3681 23.0475,-94.05682 33.7973,-147.9873 1.5329,-7.69068 3.4573,-15.2052 4.2763,-16.69893 3.1892,-5.81637 36.5753,-31.07512 41.0425,-31.05127 7.0042,0.0374 25.5989,6.06082 33.112,10.72602 19.7132,12.24073 31.0647,28.55946 30.9911,44.55202 -0.113,24.54841 -17.1389,44.8621 -65.9473,78.68207 -49.4149,34.24019 -64.3705,53.33739 -66.4455,84.84549 -2.2479,34.1332 9.0759,58.6843 41.0044,88.9013 l 21.9354,20.7597 -3.4232,11.1248 c -1.8828,6.1187 -5.2299,17.9416 -7.4381,26.2732 -12.0156,45.3358 -32.3747,97.2984 -50.8595,129.8087 -13.9996,24.6219 -53.8819,73.054 -59.9532,72.8057 -1.8806,-0.077 -10.7604,-4.0652 -19.7328,-8.8629 z"
       style="fill:#6bc3f8;fill-opacity:1;stroke:#6bc3f8;stroke-width:6;stroke-miterlimit:4;stroke-opacity:1;stroke-dasharray:none" />
    <path
       inkscape:connector-curvature="0"
       id="path4247"
       d="m 1971.695,1451.8704 c 0,-0.5909 1.8946,-2.9506 4.2103,-5.2436 2.3157,-2.293 9.919,-10.9859 16.8962,-19.3175 6.9772,-8.3315 13.2702,-15.6726 13.9845,-16.3135 0.7142,-0.6409 7.5963,-9.5551 15.2936,-19.8094 32.5248,-43.3293 49.6089,-80.9941 58.6675,-129.3432 l 1.9649,-10.4873 3.9195,13.1765 c 6.544,21.9999 4.225,41.7116 -8.1626,69.3823 -14.3972,32.1597 -34.8257,59.6257 -69.8977,93.9773 -18.3006,17.9246 -27.1857,25.0529 -31.2273,25.0529 -3.1069,0 -5.6489,-0.4835 -5.6489,-1.0745 z"
       style="fill:#6bc3f8;fill-opacity:1;stroke:#6bc3f8;stroke-width:6;stroke-miterlimit:4;stroke-opacity:1;stroke-dasharray:none" />
    <path
       inkscape:connector-curvature="0"
       id="path4249"
       d="m 1203.4633,2047.161 c -17.7639,-11.5119 -33.8711,-21.6249 -35.7937,-22.4733 -1.9227,-0.8484 -7.3173,-4.5145 -11.988,-8.1469 -4.6706,-3.6324 -9.1727,-6.6044 -10.0046,-6.6044 -0.8319,0 -7.2138,-4.3045 -14.182,-9.5655 -14.0152,-10.5816 -14.0266,-10.8375 -1.1262,-25.3921 3.9763,-4.4862 8.9781,-11.0408 11.1151,-14.5657 2.1371,-3.5249 4.7081,-6.4089 5.7136,-6.4089 1.0054,0 1.828,-1.1599 1.828,-2.5777 0,-1.4178 2.9553,-6.3993 6.5674,-11.07 18.2014,-23.5358 47.5748,-80.0104 63.8114,-122.687 25.0299,-65.7889 40.4385,-137.8065 45.2268,-211.384 l 1.32,-20.2824 38.8359,-28.7945 c 75.0978,-55.6805 72.6213,-54.0963 84.3531,-53.9608 14.0691,0.1624 32.5646,10.381 45.4495,25.1104 17.478,19.98 18.1021,38.2929 2.0579,60.3847 -8.2843,11.407 -29.6847,29.4885 -44.8595,37.9027 -4.7005,2.6063 -12.9827,7.5878 -18.4048,11.0699 -5.4221,3.4821 -10.4832,6.3311 -11.2469,6.3311 -2.3554,0 -29.7814,21.6626 -36.8362,29.0953 -16.1472,17.0123 -23.717,48.3239 -17.8316,73.7592 5.8559,25.3077 15.6788,41.1625 41.4802,66.9517 l 24.1609,24.1494 -2.5669,23.626 c -3.6231,33.3469 -7.9081,51.8243 -17.7692,76.623 -16.4742,41.4293 -48.6575,81.6103 -89.5531,111.8074 -28.0729,20.7289 -22.9133,20.9791 -59.7571,-2.8976 l 0,0 z"
       style="fill:#6bc3f8;fill-opacity:1;stroke:#6bc3f8;stroke-width:6;stroke-miterlimit:4;stroke-opacity:1;stroke-dasharray:none" />
    <path
       inkscape:connector-curvature="0"
       id="path4251"
       d="m 1058.1357,1841.3976 c 0,-0.4083 1.4925,-5.9141 3.3167,-12.2352 4.7323,-16.3981 8.8593,-59.9135 7.262,-76.5706 l -1.3578,-14.1596 11.7031,-8.9097 11.7031,-8.9096 -0.049,11.2401 c -0.067,15.2981 -11.3412,62.6451 -20.4345,85.8165 -8.8393,22.5242 -9.7078,24.4703 -10.9204,24.4703 -0.6726,0 -1.2229,-0.334 -1.2229,-0.7422 z"
       style="fill:#6bc3f8;fill-opacity:1;stroke:#6bc3f8;stroke-width:6;stroke-miterlimit:4;stroke-opacity:1;stroke-dasharray:none" />
    <path
       inkscape:connector-curvature="0"
       id="path4253"
       d="m 802.06751,2003.3613 c -3.35982,-2.3263 -1.56795,-9.247 16.7014,-64.5054 17.14271,-51.8506 55.01244,-138.2725 65.94912,-150.5013 1.80978,-2.0236 3.29051,-4.3306 3.29051,-5.1268 0,-1.785 12.34789,-20.4413 22.22323,-33.577 23.41609,-31.1468 58.83021,-64.9636 90.62003,-86.5328 l 17.3761,-11.7895 4.4743,7.5834 c 7.3003,12.373 17.0982,38.6037 21.8685,58.5457 5.8072,24.2769 6.1497,74.3244 0.6792,99.256 -12.9765,59.1399 -45.1395,109.5671 -91.98712,144.2235 -38.01779,28.1244 -74.32466,41.1151 -121.18645,43.3609 -15.48942,0.7423 -28.15478,0.347 -30.00882,-0.9367 z"
       style="fill:#6bc3f8;fill-opacity:1;stroke:#6bc3f8;stroke-width:6;stroke-miterlimit:4;stroke-opacity:1;stroke-dasharray:none" />
    <path
       inkscape:connector-curvature="0"
       id="path4255"
       d="m 633.25772,1885.7622 c -41.96326,-84.0262 -23.04617,-198.1733 44.0311,-265.6868 38.7954,-39.0477 84.6739,-62.3054 136.73409,-69.3161 29.60846,-3.9873 73.61394,0.6503 58.772,6.1937 -5.58194,2.0849 -16.30275,10.2285 -45.37959,34.4709 -30.44413,25.3822 -57.00763,52.8833 -82.34359,85.2498 -24.93126,31.8496 -54.85568,84.5779 -71.42109,125.8475 -2.82975,7.0498 -6.20029,15.4396 -7.4901,18.6441 -3.51068,8.722 -17.10666,50.8544 -20.51264,63.5663 -1.64017,6.1215 -3.7325,11.5938 -4.64963,12.1606 -0.91713,0.5668 -4.40038,-4.4417 -7.74055,-11.13 l 0,0 z"
       style="fill:#6bc3f8;fill-opacity:1;stroke:#6bc3f8;stroke-width:6;stroke-miterlimit:4;stroke-opacity:1;stroke-dasharray:none" />
    <path
       inkscape:connector-curvature="0"
       id="path4257"
       d="m 499.66134,1918.7698 c 3.18242,-67.3527 18.18012,-128.6426 44.98419,-183.8334 14.20086,-29.2401 27.79768,-51.2711 31.64289,-51.2711 1.84022,0 22.95994,12.7266 29.38341,17.7063 0.45103,0.3497 -0.81189,5.6852 -2.80651,11.8567 -11.5948,35.8752 -13.80153,80.659 -5.97308,121.2191 l 4.85829,25.1712 -17.30305,16.3136 c -41.12198,38.7704 -80.49009,74.1432 -84.00091,75.4759 -1.58321,0.6011 -1.84387,-10.2332 -0.78523,-32.6383 z"
       style="fill:#6bc3f8;fill-opacity:1;stroke:#6bc3f8;stroke-width:6;stroke-miterlimit:4;stroke-opacity:1;stroke-dasharray:none" />
    <path
       inkscape:connector-curvature="0"
       id="path4259"
       d="m 251.50538,2144.219 c -18.59106,-6.6435 -32.68849,-18.6198 -41.43618,-35.2014 -5.92433,-11.2299 -6.10455,-16.6901 -0.98033,-29.7014 8.09431,-20.5528 19.83225,-32.4987 65.99594,-67.1652 42.46713,-31.8906 51.80989,-42.543 59.23151,-67.5343 4.60967,-15.5224 4.63357,-23.2548 0.1261,-40.8114 -7.01074,-27.3069 -20.74045,-47.6402 -46.39148,-68.7043 l -15.55138,-12.7705 1.45807,-17.4788 c 3.40415,-40.8076 18.02838,-96.6323 34.08932,-130.1281 15.81813,-32.9894 44.14935,-70.3458 68.45602,-90.2633 l 10.43665,-8.552 33.55983,16.9839 c 47.66025,24.1199 45.17229,21.2502 33.8305,39.0216 -47.77715,74.8618 -87.7215,187.7067 -116.07451,327.9167 -8.07297,39.9221 -20.04936,113.3521 -22.42616,137.5 -0.88313,8.9725 -2.55478,18.0955 -3.71478,20.2733 -1.15999,2.1779 -9.54907,9.7812 -18.64239,16.8962 -17.99658,14.0814 -25.13378,15.7343 -41.96673,9.719 l 0,0 z"
       style="fill:#6bc3f8;fill-opacity:1;stroke:#6bc3f8;stroke-width:6;stroke-miterlimit:4;stroke-opacity:1;stroke-dasharray:none" />
    <path
       inkscape:connector-curvature="0"
       id="path4261"
       d="m 164.50559,1726.3537 c -3.29554,-8.3864 -4.16187,-37.2824 -1.49211,-49.7687 4.66898,-21.8366 23.58585,-57.5742 44.35199,-83.7893 22.16084,-27.9757 55.51508,-60.6265 61.88284,-60.5777 3.51283,0.027 0.32335,4.235 -12.86149,16.9688 -44.26354,42.7492 -70.01877,91.5679 -82.68027,156.7195 -4.33485,22.3056 -6.54267,27.2121 -9.20096,20.4474 z"
       style="fill:#6bc3f8;fill-opacity:1;stroke:#6bc3f8;stroke-width:6;stroke-miterlimit:4;stroke-opacity:1;stroke-dasharray:none" />
    <path
       inkscape:connector-curvature="0"
       id="path4263"
       d="M 181.86447,698.04449 C 161.37102,693.99905 133.16383,674.2851 110.10119,647.88929 69.774364,601.73415 35.250273,524.64499 35.097286,480.4124 c -0.08639,-24.97874 4.566421,-32.53946 44.39601,-72.14252 51.943844,-51.64842 57.010954,-60.74111 56.766594,-101.86519 -0.18836,-31.69998 0.019,-31.09202 -33.50149,-98.21462 C 75.191955,152.9901 69.81444,134.40308 75.626474,114.41039 79.111481,102.42238 89.898823,88.974171 107.68095,74.449154 c 26.81509,-21.903429 51.71717,-29.966963 76.64464,-24.818277 14.71265,3.038848 25.57481,7.083465 25.40945,9.461426 -0.0525,0.75559 -5.41537,3.871374 -11.91741,6.923965 -15.13693,7.106521 -36.64965,28.467619 -43.72138,43.413222 -10.84295,22.91585 -8.8394,41.92675 7.00166,66.43595 10.22505,15.82014 26.43484,29.21287 59.54718,49.19865 52.87441,31.91366 65.47421,50.76445 56.65755,84.76642 -8.66528,33.41809 -23.04683,50.25944 -82.07874,96.11728 -46.0681,35.78715 -58.52374,48.05182 -73.39124,72.26604 -22.894198,37.28706 -23.005368,77.84725 -0.3361,122.62625 11.3173,22.35526 35.07956,52.59585 60.50269,76.99757 22.74456,21.83079 23.11032,22.34676 15.65533,22.08502 -4.19833,-0.1474 -11.30388,-0.99259 -15.79011,-1.87818 z"
       style="fill:#4291d2;fill-opacity:1;stroke:#4291d2;stroke-width:6;stroke-miterlimit:4;stroke-opacity:1;stroke-dasharray:none" />
    <path
       inkscape:connector-curvature="0"
       id="path4265"
       d="m 1345.7579,727.02115 c -14.2902,-4.51236 -26.1032,-11.08847 -21.9443,-12.21599 25.8221,-7.00064 51.4576,-28.2233 62.3639,-51.62862 5.0763,-10.89373 5.6684,-14.65195 4.5016,-28.57014 -2.5245,-30.11127 -17.2982,-49.34607 -66.7289,-86.87831 -42.4549,-32.23564 -52.2443,-45.05763 -51.7872,-67.83036 0.6069,-30.23447 21.9922,-62.73218 56.8656,-86.41469 5.4633,-3.71017 10.2829,-7.5323 10.7102,-8.49363 0.4272,-0.96134 1.6694,-1.74788 2.7604,-1.74788 2.4911,0 40.7808,-25.35638 59.3865,-39.32722 15.505,-11.64261 40.0855,-36.17634 43.4885,-43.40583 1.2067,-2.56356 4.7441,-9.3803 7.8608,-15.14831 3.1167,-5.76801 7.3912,-18.21548 9.4989,-27.66106 3.2091,-14.38178 3.3961,-19.81377 1.1503,-33.4126 -7.2711,-44.02839 -35.0635,-93.57007 -76.5397,-136.436933 l -11.8383,-12.235169 7.3635,0.05531 c 17.5473,0.131819 50.2333,19.853702 69.9427,42.201672 39.9934,45.34714 76.1261,133.37084 76.0641,185.30104 -0.019,15.91612 -0.9014,19.83445 -6.7475,29.96316 -7.2949,12.63889 -27.237,32.60424 -52.0261,52.08675 -44.3821,34.88121 -61.9205,69.95271 -55.3957,110.77483 3.4047,21.30178 9.5719,40.34988 23.8572,73.68503 24.1332,56.3159 30.2447,85.72112 21.9332,105.53037 -5.5007,13.11018 -33.5696,36.85133 -55.1162,46.61816 -19.7916,8.97136 -41.6292,10.87238 -59.6235,5.19042 l 0,0 z"
       style="fill:#4291d2;fill-opacity:1;stroke:#4291d2;stroke-width:6;stroke-miterlimit:4;stroke-opacity:1;stroke-dasharray:none" />
    <path
       inkscape:connector-curvature="0"
       id="path4267"
       d="m 812.26701,1474.0708 c -12.78009,-3.1113 -22.46354,-9.6791 -42.1839,-28.6115 -32.35354,-31.0607 -37.82399,-42.7599 -30.15621,-64.4927 2.91959,-8.275 15.58881,-29.3183 19.80434,-32.8946 5.61422,-4.7628 44.8161,-59.8819 50.55397,-71.0805 22.08535,-43.1037 13.85154,-80.6751 -31.93273,-145.7109 -3.13726,-4.4565 -6.49066,-8.4522 -7.45199,-8.8795 -0.96134,-0.4272 -1.74788,-2.1751 -1.74788,-3.8841 0,-1.7091 -0.78655,-3.457 -1.74789,-3.8842 -7.24512,-3.2201 -31.15555,-47.5367 -36.70098,-68.0231 -3.95779,-14.6213 -3.96513,-16.1897 -0.15112,-32.3231 16.86388,-71.33498 59.07797,-139.76207 102.68897,-166.45403 15.04117,-9.2059 35.34936,-15.28622 47.98033,-14.36543 l 9.98322,0.72778 -13.61688,10.25651 c -16.96983,12.78204 -51.27957,47.18066 -64.7621,64.9299 -26.29589,34.6175 -37.30526,60.52854 -38.56292,90.75947 -1.80236,43.3242 15.11733,73.2476 64.96458,114.8934 13.03215,10.888 29.07697,24.7475 35.65515,30.799 6.57817,6.0515 12.62787,11.033 13.44378,11.07 1.84311,0.083 25.35579,29.5263 29.59256,37.0561 10.10233,17.9545 12.63084,48.4589 5.33712,64.3882 -5.42747,11.8534 -22.53736,27.7998 -43.40872,40.4568 -8.97023,5.4398 -18.38516,11.1471 -20.92205,12.6829 -43.84108,26.5414 -58.7928,40.0836 -69.98288,63.3857 -9.16257,19.08 -9.25026,34.8643 -0.29535,53.1675 7.53524,15.4015 24.86238,33.851 37.36258,39.7827 14.11903,6.6999 5.04993,10.8228 -13.743,6.2477 z"
       style="fill:#4291d2;fill-opacity:1;stroke:#4291d2;stroke-width:6;stroke-miterlimit:4;stroke-opacity:1;stroke-dasharray:none" />
    <path
       inkscape:connector-curvature="0"
       id="path4269"
       d="m 2023.3309,1440.582 c 21.1504,-20.7262 49.4764,-56.6621 63.1471,-80.1118 12.5214,-21.4783 22.7234,-54.2205 22.6869,-72.8115 -0.054,-27.4414 -12.8927,-57.0058 -34.0649,-78.442 -16.9661,-17.1777 -31.4259,-28.4063 -68.4474,-53.152 -5.768,-3.8554 -11.0116,-7.5945 -11.6525,-8.309 -0.6409,-0.7145 -4.8358,-4.0694 -9.3221,-7.4553 -33.8749,-25.5665 -47.7754,-48.9173 -47.7754,-80.256 0,-18.2303 0.3679,-19.5489 8.9223,-31.9782 8.5191,-12.3779 29.8568,-30.02437 64.5056,-53.34657 40.1908,-27.05247 65.0996,-67.50234 58.3172,-94.70232 -5.6747,-22.75768 -20.9342,-40.73416 -46.4748,-54.7497 l -14.9416,-8.19926 9.0249,-1.69309 c 19.0493,-3.57367 39.8922,6.98007 71.2404,36.07249 12.0437,11.17706 18.3216,18.93699 20.1561,24.91431 5.3551,17.44825 -4.1414,41.44641 -35.081,88.6523 -38.0125,57.99724 -47.8594,89.72134 -37.9662,122.31694 7.8516,25.8691 14.2308,34.0869 66.7225,85.9526 54.0627,53.4179 60.4687,63.0111 60.4687,90.5537 0,15.1892 -1.1144,20.1482 -12.1205,53.9378 -14.2811,43.8443 -44.7891,89.2145 -77.8346,115.7526 -13.5485,10.8804 -26.8273,17.5694 -43.8916,22.1098 -27.1375,7.2206 -27.4626,6.3496 -5.6191,-15.0558 l 0,0 z"
       style="fill:#4291d2;fill-opacity:1;stroke:#4291d2;stroke-width:6;stroke-miterlimit:4;stroke-opacity:1;stroke-dasharray:none" />
    <path
       inkscape:connector-curvature="0"
       id="path4271"
       d="m 1386.0949,2112.7937 c 36.8784,-31.9213 66.4226,-68.711 83.5916,-104.0918 l 11.2754,-23.2358 0.081,-27.9661 c 0.064,-22.1517 -0.852,-30.3888 -4.4047,-39.6186 -10.423,-27.079 -29.912,-48.7898 -79.8403,-88.9426 -38.6705,-31.0991 -54.0443,-47.3844 -64.2354,-68.0435 -6.3285,-12.8291 -7.3313,-17.3858 -7.4481,-33.8452 -0.1256,-17.6927 0.4071,-19.8651 7.6325,-31.1253 7.5674,-11.7931 26.2518,-27.382 49.3299,-41.1571 31.8656,-19.0203 44.5593,-28.0337 57.5278,-40.8488 17.3488,-17.1435 26.3845,-36.3315 26.3194,-55.8907 -0.034,-10.1689 -1.5903,-18.7499 -4.6059,-25.3946 -5.7877,-12.7529 -28.4858,-35.487 -41.3104,-41.3758 -5.4145,-2.4863 -9.8716,-5.188 -9.9046,-6.0038 -0.104,-2.5644 20.2959,-4.6654 29.5436,-3.0427 14.5229,2.5484 36.0274,16.0148 53.9181,33.7641 20.5501,20.3878 24.5832,27.5682 23.0625,41.0597 -1.1114,9.8606 -11.6808,30.1007 -21.382,40.9458 -2.6399,2.9512 -11.077,12.688 -18.7491,21.6374 -7.6721,8.9493 -14.5378,16.7959 -15.257,17.4368 -5.7981,5.1664 -23.8551,31.9903 -29.8077,44.2796 -16.9906,35.0775 -11.3219,66.124 20.7531,113.6627 9.9484,14.7445 42.6858,57.838 46.436,61.1255 4.6558,4.0813 28.9289,41.6711 36.2258,56.1001 11.7532,23.2408 12.4627,43.1273 2.5298,70.9126 -29.2961,81.9507 -95.9622,142.7339 -157.1071,143.2433 l -9.9645,0.083 15.7908,-13.6682 0,0 z"
       style="fill:#4291d2;fill-opacity:1;stroke:#4291d2;stroke-width:6;stroke-miterlimit:4;stroke-opacity:1;stroke-dasharray:none" />
    <path
       inkscape:connector-curvature="0"
       id="path4273"
       d="m 224.97888,2166.2426 c -9.53805,-2.3072 -15.53256,-5.9419 -37.59343,-22.7945 -23.15386,-17.6875 -37.2823,-33.3357 -38.67684,-42.8373 -2.51697,-17.1492 7.69999,-45.596 27.82814,-77.481 10.49487,-16.625 25.97161,-49.0064 30.827,-64.4981 2.60546,-8.3131 4.75073,-21.5051 4.76726,-29.3156 0.0659,-31.1025 -15.12279,-58.0787 -55.8071,-99.1177 -52.91069,-53.372 -59.381214,-63.3895 -59.273891,-91.7662 0.09453,-24.9954 5.931751,-49.5636 21.317811,-89.7246 18.18158,-47.4578 46.62113,-87.0511 76.96515,-107.1501 10.66471,-7.064 40.04536,-17.5826 44.67877,-15.9956 1.2749,0.4367 -6.38391,9.7082 -17.01959,20.6034 -16.50839,16.9111 -39.51397,45.4405 -49.85399,61.8243 -8.88362,14.0762 -24.80502,49.769 -27.79977,62.3219 -6.52633,27.3561 -3.50943,53.3258 9.1319,78.608 9.42979,18.8592 39.14098,45.7799 80.99586,73.3886 56.79714,37.465 75.54126,58.2186 81.73924,90.5022 6.10428,31.7954 -9.11224,54.5723 -58.26094,87.2081 -27.22753,18.0796 -55.69337,46.7879 -64.13864,64.685 -9.28489,19.6764 -9.45489,42.1297 -0.43549,57.5202 8.51334,14.5269 25.67661,30.1237 40.54093,36.8408 16.44586,7.4318 10.09367,12.0226 -9.93238,7.1782 l 0,0 z"
       style="fill:#4291d2;fill-opacity:1;stroke:#4291d2;stroke-width:6;stroke-miterlimit:4;stroke-opacity:1;stroke-dasharray:none" />
    <path
       inkscape:connector-curvature="0"
       id="path4275"
       d="m 224.45093,2184.8417 c -24.11505,-5.8899 -72.54984,-42.6408 -84.88672,-64.4097 -14.65926,-25.8668 -9.83106,-47.7983 23.55582,-106.9998 31.07595,-55.1037 37.515,-77.7371 29.59883,-104.0406 -5.31854,-17.6721 -18.98036,-35.8799 -54.18483,-72.2147 -56.110082,-57.9116 -64.741904,-76.9541 -55.852403,-123.215 8.124609,-42.2804 23.879083,-86.7155 39.541903,-111.5271 3.32159,-5.2617 6.03924,-10.0594 6.03924,-10.6615 0,-2.6041 15.68944,-24.2559 23.76069,-32.7902 4.8489,-5.1272 8.8275,-9.9539 8.84131,-10.7262 0.0537,-3.0011 28.48684,-23.5602 42.43265,-30.6817 14.41002,-7.3585 15.26723,-7.4973 44.98654,-7.2841 23.18915,0.1664 34.39707,1.3672 47.77542,5.1189 25.82355,7.2417 54.40775,16.9938 62.37068,21.279 2.22685,1.1984 16.1092,7.9612 30.84966,15.0284 31.99336,15.3389 67.26824,34.3164 81.102,43.6318 5.51182,3.7115 10.53092,6.7483 11.15356,6.7483 0.62262,0 10.79515,6.1296 22.60563,13.6213 33.13852,21.0207 103.34348,62.6974 108.22415,64.2465 3.4588,1.0977 5.48045,-0.9044 9.71601,-9.6225 14.69775,-30.2524 40.79662,-62.9666 65.55245,-82.1682 5.74123,-4.4531 10.96294,-8.6722 11.60383,-9.3758 3.64336,-4 29.68902,-19.2277 44.27966,-25.8884 34.30243,-15.6591 64.40822,-21.5437 103.26805,-20.1852 73.11614,2.5562 132.9109,34.6626 175.37014,94.1638 13.0957,18.352 29.4633,52.5801 34.9509,73.0898 2.2292,8.3316 4.7475,15.9462 5.5962,16.9214 0.8488,0.9753 14.1615,-7.9389 29.584,-19.8093 47.775,-36.7714 90.4774,-70.1966 91.6968,-71.7754 1.4684,-1.9011 133.5705,-100.2776 164.5358,-122.5298 40.4408,-29.0615 60.7007,-38.5037 82.4981,-38.4485 24.368,0.062 47.6694,12.7138 76.0807,41.3101 20.843,20.9788 27.3193,33.8036 25.916,51.3207 -1.6174,20.1906 -11.6822,36.7341 -45.7133,75.1394 -58.1197,65.5899 -61.9665,89.2819 -24.075,148.274 8.7143,13.5671 30.8515,43.5103 35.3206,47.7754 2.2804,2.1762 27.2628,36.0706 34.4706,46.7672 17.1685,25.4785 28.423,54.2118 28.4812,72.7142 0.034,10.8253 -7.5221,39.584 -15.1827,57.7847 -13.8881,32.9966 -31.1739,58.355 -57.9788,85.0551 -55.7416,55.524 -111.2828,66.3157 -186.4326,36.2243 -23.3852,-9.3639 -40.7966,-17.8432 -61.4729,-29.937 -9.3298,-5.4571 -17.4999,-9.9221 -18.1558,-9.9221 -0.6559,0 -4.034,-1.9763 -7.507,-4.3919 -3.473,-2.4156 -17.8506,-12.0369 -31.9501,-21.3807 -14.0996,-9.3438 -43.464,-30.2202 -65.2543,-46.392 -45.7052,-33.9204 -67.282,-49.5516 -92.7396,-67.1845 l -18.1634,-12.5806 -19.12474,18.3266 c -39.34036,37.6984 -80.44416,58.4442 -133.31969,67.2887 -91.63014,15.3269 -189.01324,-35.4626 -233.11429,-121.5792 -4.45134,-8.6922 -8.09334,-17.1648 -8.09334,-18.8281 0,-4.4187 -2.78995,-3.7204 -9.34585,2.339 -3.19136,2.9497 -15.98575,14.4047 -28.432,25.4557 -12.44624,11.0509 -27.0314,24.1063 -32.41147,29.012 -5.38005,4.9056 -12.50078,11.3661 -15.82383,14.3567 -3.32307,2.9906 -11.28558,10.397 -17.69448,16.4588 -6.4089,6.0617 -23.71292,21.913 -38.45339,35.2251 -14.74047,13.3122 -27.93958,25.3072 -29.33134,26.6557 -1.39178,1.3485 -9.78161,8.8506 -18.64406,16.6713 -8.86249,7.8208 -21.88159,19.3131 -28.93138,25.5385 -7.04979,6.2254 -15.31694,13.4601 -18.37144,16.0771 -3.05451,2.6169 -6.72506,5.819 -8.15678,7.1156 -2.1684,1.9638 -49.45162,42.0115 -68.75001,58.2295 -3.05451,2.567 -6.72506,5.7658 -8.15678,7.1086 -5.67278,5.3201 -24.13793,17.0526 -32.02435,20.3478 -11.24659,4.6991 -24.90867,6.3567 -34.03045,4.1288 l 0,0 z m 28.37752,-19.001 c 1.3756,-1.299 1.09942,-2.0907 -0.72933,-2.0907 -6.6989,0 -29.17813,-13.206 -39.7767,-23.3678 -16.53968,-15.8581 -22.19278,-27.9074 -21.95601,-46.7982 0.36538,-29.1524 17.10494,-51.3499 67.62413,-89.6727 47.14234,-35.7612 56.59324,-46.0534 61.21142,-66.6607 4.24759,-18.9536 -3.31209,-45.467 -18.88415,-66.2306 -8.35547,-11.1411 -28.40466,-27.4666 -57.86012,-47.1139 -63.51776,-42.3676 -82.50712,-61.7348 -93.65138,-95.5153 -5.00426,-15.1689 -5.41897,-40.2777 -0.96966,-58.7086 9.00331,-37.2955 43.64106,-90.0512 85.80165,-130.6819 7.41422,-7.1452 13.48041,-13.6998 13.48041,-14.5657 0,-2.4961 -6.69127,-1.8621 -23.15619,2.194 -36.45412,8.9805 -67.20955,38.7749 -94.1775,91.2348 -20.44749,39.7758 -38.973602,107.3664 -35.486963,129.4704 2.497419,15.8327 14.613273,37.9072 29.175413,53.1561 1.99323,2.0872 15.74566,16.2451 30.56096,31.4619 36.05063,37.0275 43.37139,47.0503 51.39041,70.358 11.0079,31.995 2.58746,63.1809 -33.15027,122.7749 -3.84333,6.4089 -11.1365,20.3521 -16.20704,30.9849 -11.07786,23.2298 -12.9924,44.0888 -5.17932,56.4287 10.4471,16.5001 52.79724,49.0169 71.68347,55.0392 9.54641,3.0441 26.2268,2.1086 30.25677,-1.6968 l 0,0 z m 33.68892,-22.434 c 4.60722,-3.4982 10.99858,-8.6113 14.20303,-11.3626 3.20445,-2.7512 14.2161,-12.1847 24.47034,-20.9633 10.25424,-8.7786 19.16843,-16.5124 19.80932,-17.1862 0.64089,-0.6738 9.55509,-8.5498 19.80932,-17.5023 10.25424,-8.9524 21.66481,-18.9154 25.35682,-22.1398 3.69204,-3.2245 8.4763,-7.4358 10.63169,-9.3584 2.15542,-1.9227 12.76813,-11.3569 23.58386,-20.9648 21.94241,-19.4923 21.34322,-18.9546 33.90612,-30.4262 4.98513,-4.5521 19.55118,-17.5873 32.36897,-28.9672 12.8178,-11.3798 24.47649,-21.8131 25.90822,-23.1852 1.43172,-1.3721 5.51787,-4.9809 9.08034,-8.0194 3.56248,-3.0386 19.17074,-17.203 34.68502,-31.4765 15.51427,-14.2734 32.07363,-29.4612 36.79855,-33.7505 7.68375,-6.9754 8.34075,-8.4502 6.22252,-13.9685 -4.40394,-11.473 -8.90543,-45.6643 -8.94314,-67.9282 -0.0387,-22.89 3.99233,-51.2496 10.30747,-72.515 1.99743,-6.7261 3.6317,-12.5268 3.6317,-12.8906 0,-0.3637 -7.60328,-5.5726 -16.89619,-11.5754 -9.2929,-6.0028 -21.40586,-13.9047 -26.91767,-17.5598 -5.51182,-3.6551 -10.44073,-6.6456 -10.95309,-6.6456 -0.51236,0 -5.44127,-3.0042 -10.95309,-6.676 -5.51181,-3.6718 -16.1819,-10.0681 -23.71129,-14.2141 -7.5294,-4.146 -18.67301,-10.4764 -24.76358,-14.0675 -87.95987,-51.863 -195.31857,-100.049 -223.19473,-100.1769 -6.53542,-0.03 -10.90304,3.206 -30.62079,22.6875 -36.49006,36.0527 -61.53275,72.0766 -74.92943,107.786 -7.5537,20.1346 -8.08659,54.1215 -1.09742,69.9907 10.87488,24.6919 36.75636,49.1144 85.13898,80.3397 53.26285,34.3749 76.3382,61.4238 83.86153,98.3027 7.77399,38.1076 -10.07426,67.3309 -63.26814,103.5903 -31.56188,21.514 -55.92057,46.2906 -62.20975,63.2771 -2.7466,7.4183 -4.98397,16.3325 -4.97194,19.8093 0.0341,9.8718 13.04405,30.229 24.60584,38.502 23.2941,16.6681 44.82572,20.0353 59.05061,9.2347 z m 1114.67093,-17.2445 c 14.4466,-3.0768 38.2528,-13.7773 53.1338,-23.8829 45.8882,-31.1625 91.0597,-106.4679 91.7377,-152.9361 0.2952,-20.2317 -4.3031,-33.1155 -21.1257,-59.1908 -9.7222,-15.0696 -44.0701,-61.7601 -47.3215,-64.3261 -3.3235,-2.6229 -32.6125,-43.5711 -32.6125,-45.5947 0,-0.6095 -2.4584,-5.02 -5.4631,-9.8012 -15.1142,-24.0505 -19.3924,-55.2431 -10.7463,-78.3519 6.9532,-18.5841 33.1219,-55.4336 53.8008,-75.7595 8.4531,-8.3088 28.5606,-36.9042 32.6368,-46.4135 8.5008,-19.8316 4.9473,-30.5589 -17.5438,-52.9606 -27.4944,-27.3851 -45.0531,-37.1673 -66.5058,-37.0512 -14.1104,0.076 -25.7973,2.4197 -25.7973,5.1726 0,0.9547 5.4753,4.3354 12.1674,7.5125 15.2935,7.2609 35.7518,27.5118 41.6173,41.1955 6.3472,14.8074 5.9186,34.6363 -1.0912,50.4867 -10.0923,22.8204 -30.1307,40.8478 -75.2686,67.7144 -29.902,17.7981 -47.7685,32.941 -54.9529,46.5758 -4.0873,7.7572 -5.0183,13.3609 -4.8834,29.3937 0.147,17.4678 1.0694,21.6536 7.8043,35.4113 9.5051,19.4164 27.0695,37.724 65.321,68.0846 41.4057,32.8641 63.1356,55.7416 73.9385,77.8432 8.6424,17.6816 8.7586,18.2905 8.7586,45.8855 0,23.5664 -0.8204,29.9918 -5.2148,40.8421 -16.0029,39.5125 -60.8069,94.6992 -100.2407,123.4702 -4.1658,3.0393 -7.5741,6.3776 -7.5741,7.4183 0,2.7546 21.0895,2.3153 35.4255,-0.7379 l 0,0 z m -43.1615,-12.4501 c 11.2779,-7.595 54.219,-48.5228 65.2635,-62.2036 12.5497,-15.5453 28.677,-41.8266 34.8059,-56.7204 5.8621,-14.2454 6.7132,-19.268 6.7132,-39.6186 0,-21.8661 -0.4906,-24.2828 -7.9454,-39.1402 -10.3258,-20.5792 -32.4453,-43.5026 -70.9951,-73.5753 -30.2948,-23.6328 -49.3993,-42.373 -60.9035,-59.7421 -14.8277,-22.3868 -21.0218,-54.6513 -14.7125,-76.6364 3.8404,-13.3825 16.5768,-32.1674 28.2147,-41.6142 10.1258,-8.2193 38.41,-27.4062 40.4007,-27.4062 2.2864,0 39.5322,-25.218 45.1572,-30.5746 14.6025,-13.9058 28.0062,-36.9912 27.9433,-48.1272 -0.044,-7.7581 -11.6276,-28.8647 -20.5174,-37.3847 -10.7968,-10.3474 -26.112,-18.2893 -39.3518,-20.4064 -7.8999,-1.2633 -11.428,-0.5271 -18.6241,3.8862 -9.0775,5.5671 -40.5679,27.8249 -42.6704,30.16 -0.6408,0.7118 -4.8358,3.8103 -9.322,6.8857 -11.3646,7.7905 -52.1852,37.8774 -53.6017,39.5073 -0.6409,0.7374 -11.6525,9.1442 -24.4703,18.6817 -12.8178,9.5375 -23.8295,17.9211 -24.4704,18.6303 -0.6408,0.7092 -5.3601,4.3742 -10.4872,8.1445 -5.1272,3.7702 -9.8464,7.4579 -10.4873,8.1947 -0.6409,0.7369 -22.6642,17.5373 -48.9407,37.3343 -54.2932,40.9052 -49.8526,37.4851 -60.5932,46.668 -4.4863,3.8356 -11.6409,9.3302 -15.8992,12.2103 l -7.7424,5.2365 1.4632,15.6151 c 0.8048,8.5883 0.2879,26.4167 -1.1486,39.6187 -4.5442,41.762 -15.0599,74.0101 -35.3257,108.3318 -6.1944,10.4907 -11.2626,19.5327 -11.2626,20.0933 0,0.5606 14.42,11.8495 32.0445,25.0863 17.6245,13.2369 32.5689,24.6756 33.2098,25.4195 2.045,2.3736 25.5933,18.6955 26.9726,18.6955 0.7295,0 2.7271,1.3109 4.4392,2.9131 5.6556,5.2929 91.3443,62.3411 93.6388,62.3411 0.6447,0 6.5936,3.5755 13.2197,7.9455 35.316,23.2914 106.1647,57.9017 121.6125,59.4088 1.2988,0.1268 7.7666,-3.4095 14.3727,-7.8583 l 0,0 z M 857.71193,2004.1504 c 26.83396,-4.5708 39.34159,-8.7035 64.47286,-21.3029 63.91217,-32.042 108.56751,-90.7261 125.35791,-164.74 5.497,-24.2316 4.8837,-77.404 -1.1877,-102.9679 -5.2021,-21.9036 -6.3488,-25.1356 -16.9557,-47.7879 -37.92642,-80.9969 -126.03183,-129.8421 -214.5709,-118.9569 -42.60829,5.2383 -80.65987,20.9957 -115.45469,47.8105 -22.22925,17.1311 -52.89623,55.4844 -67.13701,83.9642 -20.48125,40.9599 -28.51226,99.3065 -20.20903,146.822 11.93652,68.3073 54.84363,127.2267 114.72504,157.5386 40.64544,20.5748 85.71447,27.327 130.95922,19.6203 z"
       style="fill:#367c9c;fill-opacity:1;stroke:#367c9c;stroke-width:3;stroke-miterlimit:4;stroke-opacity:1;stroke-dasharray:none" />
    <path
       inkscape:connector-curvature="0"
       id="path4277"
       d="m 801.5225,1489.1383 c -15.31184,-5.6358 -28.62971,-15.5613 -49.84871,-37.1509 -24.93343,-25.369 -31.46649,-37.0837 -31.45048,-56.3952 0.009,-11.1279 1.58752,-16.8174 8.33365,-30.0414 6.87612,-13.4787 25.80171,-40.9101 31.3536,-45.4449 5.04389,-4.1198 28.75915,-38.672 35.19054,-51.2712 6.34992,-12.4395 7.89222,-18.4071 8.62507,-33.3732 1.31177,-26.7882 -4.08815,-40.3514 -33.40831,-83.913 -10.25424,-15.2349 -19.6928,-29.4239 -20.97458,-31.531 -1.28178,-2.1071 -2.85487,-4.3554 -3.49576,-4.9963 -4.28171,-4.2817 -12.37677,-18.085 -20.74395,-35.3716 -11.74537,-24.2659 -15.2357,-42.689 -11.96565,-63.1587 2.30003,-14.3976 13.67114,-52.62935 18.2455,-61.34467 1.27764,-2.43424 7.27143,-14.38881 13.31952,-26.56572 16.22526,-32.66708 25.26522,-45.34332 49.96031,-70.05657 17.82189,-17.83498 25.98517,-24.11314 40.90885,-31.46186 18.57094,-9.14471 18.75376,-9.18068 46.61017,-9.16915 25.1139,0.0105 30.23408,0.76184 50.20392,7.36809 37.94889,12.55393 73.01001,30.72864 119.92321,62.16489 25.3394,16.97977 100.8748,72.42043 103.7076,76.11821 1.7551,2.29094 47.8362,37.07028 66.4195,50.12948 8.9725,6.3053 16.8379,12.0243 17.4788,12.7089 7.4698,7.9786 8.9495,7.6654 21.0772,-4.4623 71.7492,-71.74919 175.1257,-92.1913 263.2485,-52.05588 23.0258,10.48704 40.8283,22.79927 61.2328,42.34858 20.0929,19.2508 44.2177,53.5173 53.0124,75.298 5.2521,13.0072 5.4577,13.1943 10.2448,9.322 6.9086,-5.5884 17.6728,-14.9631 22.0795,-19.2294 2.0596,-1.994 15.2807,-13.5038 29.3802,-25.5775 14.0996,-12.0737 26.16,-22.5808 26.8009,-23.3492 0.6409,-0.7685 10.0794,-9.149 20.9746,-18.6233 10.8951,-9.4744 20.3337,-17.84496 20.9745,-18.60122 1.5964,-1.88369 98.853,-85.09262 112.9835,-96.66414 13.5855,-11.12524 27.5602,-22.84351 29.1776,-24.46638 0.6408,-0.64307 9.555,-7.89911 19.8093,-16.12453 10.2542,-8.22542 19.6928,-16.14861 20.9746,-17.60708 5.3971,-6.14119 35.2038,-27.5023 46.0331,-32.98993 17.8309,-9.0356 38.6356,-8.43033 58.1277,1.69109 23.7551,12.33499 56.2852,41.29541 64.4248,57.35506 7.4928,14.78366 8.1493,25.6328 2.6316,43.49263 -5.3867,17.43614 -13.8554,34.21574 -28.0681,55.61336 -5.0297,7.57236 -9.1449,14.16555 -9.1449,14.65154 0,0.48599 -3.2509,5.70057 -7.2243,11.58795 -12.0963,17.92335 -25.6004,47.33335 -28.2324,61.48625 -6.0634,32.6044 3.5555,49.9655 57.6194,103.9965 53.1748,53.1425 65.1564,69.2183 70.9897,95.2475 4.5749,20.4143 -6.4712,65.2681 -26.4757,107.5067 -24.6153,51.9744 -61.4587,91.6515 -103.2727,111.2159 -15.288,7.1531 -16.8971,7.4091 -46.1371,7.3416 -30.2234,-0.07 -44.5111,-2.5659 -76.1276,-13.3 -19.5136,-6.6251 -59.5229,-25.063 -83.7194,-38.5814 -13.3447,-7.4555 -29.5068,-16.4672 -35.9157,-20.0259 -6.4089,-3.5588 -13.3082,-7.9076 -15.3318,-9.6641 -2.0236,-1.7566 -4.3937,-3.1937 -5.2669,-3.1937 -0.8732,0 -22.9644,-13.8957 -49.0914,-30.8792 -50.2851,-32.6872 -64.6464,-41.7533 -79.0658,-49.9131 -4.909,-2.778 -10.677,-6.5513 -12.8178,-8.3852 -7.8641,-6.7367 -11.4604,-6.4296 -14.6415,1.2504 -5.8613,14.1503 -29.5603,47.3252 -45.4398,63.6083 -14.5457,14.9155 -42.7684,38.3018 -46.2227,38.3018 -0.7638,0 -5.6431,2.6858 -10.8431,5.9684 -23.6237,14.9129 -64.8717,27.4112 -99.1091,30.0302 -81.0406,6.1994 -158.9348,-32.809 -204.5144,-102.4181 -16.4429,-25.1115 -34.0752,-68.6633 -34.0752,-84.1659 0,-3.0572 -0.6044,-5.5586 -1.343,-5.5586 -0.7387,0 -13.5857,9.2414 -28.5488,20.5364 -14.9631,11.2951 -38.7416,29.1841 -52.8412,39.7535 -14.0996,10.5694 -27.2087,20.4699 -29.1314,22.001 -1.9226,1.5311 -9.2637,6.9416 -16.3135,12.0234 -7.0498,5.0817 -13.3422,9.8677 -13.9831,10.6355 -0.6409,0.7677 -6.4089,4.9509 -12.8178,9.2958 -11.8818,8.0554 -54.92959,39.4941 -62.36771,45.5486 -2.25778,1.8377 -5.05439,3.3414 -6.2147,3.3414 -1.16031,0 -2.45922,0.881 -2.8865,1.9578 -0.42725,1.0768 -15.98339,12.2656 -34.5692,24.864 -18.5858,12.5984 -37.61384,25.8752 -42.28452,29.504 -4.67069,3.6288 -9.14862,6.5979 -9.95097,6.5979 -0.80236,0 -5.37072,2.4497 -10.15192,5.4438 -19.94421,12.4893 -47.5662,16.5774 -66.04778,9.775 l 0,0 z m 34.63222,-12.8565 c 8.03136,-0.049 6.24825,-3.7848 -3.7076,-7.7683 -21.12201,-8.4513 -45.66807,-39.741 -48.6516,-62.0178 -1.48505,-11.0884 6.12297,-32.2003 16.88922,-46.8668 11.01888,-15.0108 28.07785,-27.9986 67.17234,-51.1416 35.58521,-21.0656 50.32615,-33.6755 57.25122,-48.9746 9.10356,-20.1119 4.89654,-50.3822 -10.39913,-74.8236 -7.74632,-12.3781 -33.32771,-37.8353 -57.05332,-56.7762 -21.65107,-17.2848 -54.9291,-50.4316 -63.74778,-63.4963 -16.7009,-24.7422 -22.3932,-60.967 -14.04589,-89.38556 3.79108,-12.90682 14.49263,-35.04412 23.011,-47.60072 16.92502,-24.94852 58.13192,-68.66418 81.1204,-86.05917 4.84156,-3.66352 8.23734,-7.22646 7.54617,-7.91762 -2.65722,-2.65722 -30.57575,-0.27708 -40.69095,3.46904 -55.05532,20.38943 -105.53446,96.42624 -124.7557,187.91973 -0.75535,3.5954 0.38534,13.5498 2.53485,22.1207 5.83675,23.2735 15.17653,39.5576 55.34366,96.4929 16.05079,22.7513 31.042,54.3561 34.38256,72.486 6.35733,34.5024 -5.78503,62.4737 -52.04616,119.8943 -28.43704,35.2968 -36.71143,57.0497 -28.79194,75.6924 4.8023,11.3048 44.33035,51.1089 57.51799,57.9198 11.55292,5.9666 24.28705,9.1404 31.216,7.7802 2.56356,-0.5032 7.02066,-0.9293 9.90466,-0.9468 l 0,0 z m 49.59058,-27.0957 c 10.85813,-7.1944 28.65625,-19.5892 39.55137,-27.544 10.89513,-7.9547 30.82098,-22.1949 44.27966,-31.6448 13.45869,-9.4498 38.10377,-27.2447 54.76697,-39.5441 16.6631,-12.2995 33.9671,-24.9078 38.4534,-28.0186 4.4862,-3.1109 8.5063,-6.4805 8.9336,-7.4881 0.4273,-1.0077 1.7262,-1.8321 2.8865,-1.8321 1.1603,0 3.9569,-1.4938 6.2147,-3.3196 2.2578,-1.8258 26.7677,-20.1756 54.4666,-40.7774 l 50.3616,-37.4577 0.031,-25.0595 c 0.064,-52.5174 15.4823,-104.7524 42.96,-145.5442 6.999,-10.3902 8.2538,-13.6877 5.7643,-15.1483 -3.1316,-1.8374 -11.8218,-8.8898 -39.9363,-32.4101 -7.8229,-6.5445 -23.0852,-18.40572 -33.9164,-26.3583 -10.8312,-7.95259 -21.5404,-15.96932 -23.7982,-17.81495 -2.2577,-1.84564 -5.0543,-3.3557 -6.2146,-3.3557 -1.1603,0 -2.4592,-0.78655 -2.8865,-1.74789 -1.624,-3.65401 -99.076,-69.09236 -124.2938,-83.46242 -41.60817,-23.70994 -78.00158,-40.63715 -87.36963,-40.63715 -11.89079,0 -66.24811,48.63999 -91.26332,81.66419 -36.96929,48.80556 -43.82173,87.60572 -22.61734,128.06492 6.46872,12.3427 37.88062,44.5639 62.58504,64.1975 42.58078,33.8408 68.52665,65.8046 75.66672,93.2172 12.69535,48.7407 -5.39128,81.2204 -62.84892,112.863 -7.69068,4.2353 -18.49272,10.7048 -24.00455,14.3765 -5.51182,3.6718 -10.95261,6.676 -12.09064,6.676 -1.13803,0 -9.86248,7.6033 -19.38768,16.8962 -14.24777,13.9003 -17.94791,19.0682 -20.86812,29.1458 -8.49358,29.3114 11.12678,58.3102 48.38489,71.5127 5.12712,1.8168 10.9254,3.3772 12.88507,3.4675 1.95967,0.091 12.44696,-5.7221 23.30508,-12.9166 l 0,0 z m 1141.4464,9.5433 c 52.3831,-12.3494 101.9763,-69.3336 128.7566,-147.9455 5.8022,-17.0317 7.767,-27.2479 8.5161,-44.2797 l 0.9738,-22.1398 -8.8129,-14.6875 c -8.7797,-14.6321 -26.7008,-34.0183 -68.289,-73.8718 -40.2672,-38.5875 -51.282,-56.4669 -53.1406,-86.2589 -1.6918,-27.1177 7.3759,-53.4531 29.892,-86.81567 3.7505,-5.55721 6.8191,-10.48795 6.8191,-10.9572 0,-0.46925 5.1887,-8.61088 11.5304,-18.09251 23.3359,-34.89012 31.996,-58.88304 27.5607,-76.3571 -1.9049,-7.50462 -6.7648,-13.56936 -23.4906,-29.31431 -32.2353,-30.34503 -57.7704,-41.15276 -77.3589,-32.74219 l -6.9916,3.0019 11.3011,5.02098 c 25.9451,11.52716 47.0657,33.94481 52.8045,56.04721 5.1627,19.88371 -7.6109,50.14928 -29.6811,70.32566 -17.5538,16.0476 -22.0419,19.52274 -48.6752,37.68955 -28.7142,19.58618 -48.6803,40.17548 -52.4617,54.09908 -4.0752,15.0055 -1.0948,38.3262 6.9297,54.2227 9.4252,18.6713 22.376,32.5455 47.7507,51.1555 11.7448,8.6137 32.4368,23.8247 45.9824,33.8022 40.5602,29.8762 56.6976,49.6934 66.0016,81.0516 9.5645,32.2362 0.9944,65.4352 -30.0367,116.3565 -8.0895,13.2748 -26.3354,35.0737 -47.0905,56.2607 -13.1844,13.4587 -23.9757,25.2569 -23.9808,26.2183 -0.014,2.6746 8.9588,2.0371 25.1909,-1.7897 l 0,0 z m -12.3319,-34.3332 c 31.3509,-31.6238 47.7308,-53.2452 62.3884,-82.3522 31.6942,-62.9383 16.0427,-104.8293 -58.4002,-156.3068 -63.6869,-44.0397 -82.9383,-64.1173 -94.1942,-98.2362 -8.2569,-25.0283 -4.1347,-52.8253 10.8438,-73.1233 7.5029,-10.1674 51.8478,-46.17855 56.8653,-46.17855 1.2368,0 2.5983,-0.78654 3.0256,-1.74788 0.4272,-0.96133 5.2425,-4.78046 10.7006,-8.48695 13.3282,-9.05101 32.1316,-27.79891 39.3504,-39.23417 7.0346,-11.14348 9.5788,-30.20523 5.629,-42.17326 -5.889,-17.84388 -35.936,-39.55955 -58.9111,-42.57639 -9.8472,-1.29304 -10.3787,-0.98513 -41.437,24.00386 -17.304,13.92253 -34.0837,27.54505 -37.2881,30.27227 -33.2392,28.28894 -77.9856,66.23538 -87.1401,73.8977 -6.2693,5.24732 -13.086,11.15586 -15.1483,13.13008 -2.0624,1.97421 -10.5665,9.31532 -18.8981,16.31356 -8.3315,6.99823 -16.3148,13.77283 -17.7406,15.05453 -1.4257,1.2818 -8.6739,7.5742 -16.107,13.9831 -7.433,6.4089 -14.6563,12.7048 -16.0517,13.9908 -1.3954,1.2861 -14.5975,12.7984 -29.338,25.5831 -14.7404,12.7846 -30.4714,26.5613 -34.9576,30.6148 -4.4862,4.0536 -12.7801,11.5146 -18.4309,16.5802 l -10.2741,9.21 2.542,10.2733 c 1.3981,5.6503 3.7933,21.2011 5.3226,34.5575 3.3377,29.1507 0.3378,62.483 -8.4462,93.8449 -3.119,11.1364 -5.671,20.7156 -5.671,21.2873 0,3.534 114.4382,75.8541 157.3093,99.4129 7.6907,4.2262 18.7023,10.324 24.4703,13.5507 61.4207,34.3591 132.4287,65.1124 151.3503,65.5491 7.2883,0.1683 10.8306,-2.6458 38.6366,-30.694 l 0,0 z m -559.8325,-3.0876 c 36.259,-7.9339 65.0841,-20.7639 91.6794,-40.8062 62.4929,-47.0949 96.3866,-115.489 96.3866,-194.4986 0,-70.1622 -26.1348,-127.9476 -78.1139,-172.7139 -23.8064,-20.50304 -56.0099,-36.30998 -88.9775,-43.67434 -24.5377,-5.48125 -70.484,-5.03435 -95.1373,0.92535 -34.6582,8.37828 -69.2793,25.4021 -91.6673,45.07449 -42.0793,36.9751 -66.9971,76.0863 -80.4065,126.2066 -29.8916,111.7266 24.0595,226.9337 125.5101,268.0139 35.8471,14.5154 85.3299,19.2178 120.7264,11.4727 l 0,0 z"
       style="fill:#367c9c;fill-opacity:1;stroke:#367c9c;stroke-width:3;stroke-miterlimit:4;stroke-opacity:1;stroke-dasharray:none" />
    <path
       inkscape:connector-curvature="0"
       id="path4279"
       d="m 1342.4577,745.14936 c -15.6607,-5.75009 -46.3707,-22.83577 -51.2712,-28.52505 -0.6409,-0.74406 -8.5064,-7.63002 -17.4788,-15.30212 -8.9725,-7.67213 -16.8379,-14.47484 -17.4788,-15.11712 -0.6409,-0.64232 -9.0307,-7.96932 -18.6441,-16.28224 -15.1661,-13.11452 -44.5896,-39.44274 -75.4743,-67.53436 -4.9801,-4.52977 -13.4165,-12.43084 -18.7476,-17.55796 -5.3311,-5.12712 -18.0361,-17.19731 -28.2334,-26.82264 -10.1972,-9.62532 -39.515,-37.51592 -65.1506,-61.97908 -54.37125,-51.88462 -66.16272,-62.54973 -67.58416,-61.12826 -0.5728,0.5728 -4.71637,8.09185 -9.20793,16.709 -11.16514,21.42052 -32.69711,49.15192 -51.79518,66.7079 -72.98757,67.09417 -174.15571,84.78888 -258.81381,45.26758 -21.49835,-10.03617 -37.63724,-21.59722 -59.61769,-42.70696 -23.40371,-22.47666 -18.22861,-22.30411 -47.77316,-1.5929 -9.3707,6.56902 -26.67472,18.68119 -38.45339,26.91595 -11.77865,8.23476 -29.07421,20.62383 -38.43458,27.53127 -17.1748,12.67403 -44.84913,32.29365 -72.70572,51.54451 -37.34903,25.81078 -98.36148,59.88067 -134.00423,74.82911 -25.11235,10.53203 -70.55769,20.13909 -83.25029,17.59895 C 154.0118,710.83516 120.99799,688.73597 91.532758,652.90368 67.744825,623.9755 39.706953,570.96137 28.414464,533.55932 18.054526,499.24599 15.650098,480.5833 19.512712,464.46569 24.56418,443.38731 33.624288,430.84365 70.262767,394.20261 98.5912,365.87218 106.21874,356.77126 113.00771,343.20092 c 7.06907,-14.13022 8.26354,-18.84127 8.26354,-32.59179 0,-21.28474 -4.77156,-34.86515 -32.617653,-92.83371 -21.274037,-44.28718 -32.636585,-75.11796 -32.636585,-88.55508 0,-3.0386 1.759725,-11.8859 3.910497,-19.66067 C 63.488335,96.687753 65.840529,93.444007 86.232816,73.283899 123.52055,36.420708 156.324,24.489362 194.73706,33.818484 c 13.73916,3.336738 38.56545,15.262142 52.74087,25.334286 5.57043,3.957998 12.22552,8.647082 14.78908,10.420186 10.03897,6.943515 109.6026,81.436824 110.69915,82.824884 0.64089,0.81126 13.22564,10.82968 27.96611,22.26318 14.74046,11.43349 27.32521,21.37955 27.9661,22.10236 0.64089,0.72281 8.50635,7.03204 17.47881,14.02052 8.97246,6.98848 16.83793,13.27955 17.47882,13.98015 3.34812,3.66008 72.79492,58.61892 75.22142,59.52875 1.80894,0.67827 4.48784,-4.25402 7.33101,-13.49756 9.82617,-31.94633 36.48782,-75.67707 62.17095,-101.97356 35.32869,-36.17243 76.06563,-59.14773 124.45034,-70.189005 28.83863,-6.580909 73.3786,-5.981511 102.82619,1.383785 62.79716,15.70654 117.00884,60.0492 145.58048,119.07812 5.23257,10.81048 9.96914,19.65542 10.52571,19.65542 0.55658,0 5.16518,-2.62182 10.2414,-5.82627 5.0761,-3.20445 9.7031,-5.82627 10.2821,-5.82627 1.7942,0 64.4147,-37.39571 84.5632,-50.49943 10.5071,-6.83336 19.7393,-12.4243 20.516,-12.4243 0.7767,0 8.6416,-4.71928 17.4776,-10.48729 8.8361,-5.76801 16.6666,-10.48729 17.4011,-10.48729 0.7346,0 5.2475,-2.45249 10.0287,-5.44998 17.6944,-11.09317 54.2702,-30.16382 86.7652,-45.239338 66.0291,-30.633222 128.4546,-41.84596 160.4877,-28.826493 47.8499,19.447991 93.4512,80.818121 121.4256,163.414121 9.8279,29.01738 12.4488,43.9635 12.6691,72.24576 0.1995,25.62935 -0.3756,30.25201 -4.785,38.45339 -9.3767,17.44062 -23.2946,32.04093 -52.2019,54.7615 -23.0306,18.10152 -41.9573,38.27072 -48.8421,52.04832 -6.0207,12.04858 -6.9738,16.53355 -6.9738,32.8177 0,24.69477 4.2361,39.51135 28.3758,99.2496 17.2201,42.61461 20.5649,55.20173 20.5649,77.3905 0,21.74013 -6.6012,36.07774 -24.1159,52.37899 -31.2726,29.10605 -56.71,40.47821 -89.8612,40.17364 -11.015,-0.10115 -21.6002,-0.76157 -23.5229,-1.4675 l 0,0 z m 48.3906,-15.65265 c 17.5207,-4.6641 37.3607,-16.7414 59.5928,-36.276 15.3449,-13.48318 19.5068,-38.65022 11.1813,-67.61371 -2.3937,-8.32749 -12.2732,-35.06674 -21.9544,-59.42056 -9.6813,-24.35381 -18.6508,-48.47457 -19.9322,-53.60169 -6.9998,-28.00554 -5.122,-52.34966 5.7507,-74.55476 6.0096,-12.27314 25.4975,-34.64972 41.6975,-47.87813 3.8696,-3.1598 14.5316,-11.8227 23.6933,-19.25089 31.4121,-25.46842 40.3516,-40.66511 40.3516,-68.59577 0,-46.83945 -31.4204,-128.62419 -66.4195,-172.88452 -28.523,-36.07052 -59.3749,-56.136781 -86.3104,-56.136781 l -8.8629,0 16.2597,16.896187 c 15.0776,15.667744 39.967,47.254124 46.9537,59.587504 25.2414,44.55789 33.7359,75.88761 28.4093,104.78128 -4.4542,24.16105 -19.3507,51.2139 -37.2333,67.61758 -3.2045,2.93942 -8.4481,7.7464 -11.6526,10.68214 -3.2044,2.93574 -25.4314,18.57739 -49.3933,34.75923 -54.1452,36.56515 -63.75,44.56082 -77.6873,64.67238 -13.5544,19.559 -18.9941,51.27804 -11.7623,68.58612 5.0603,12.11102 20.758,27.8105 50.2836,50.28909 40.2909,30.6745 50.7737,41.60778 60.5495,63.15125 6.12,13.48687 6.1257,34.75173 0.014,48.22205 -8.7515,19.28542 -35.4462,41.01876 -62.6738,51.02548 -5.5695,2.04691 -5.5498,2.09461 2.9401,7.10378 19.6964,11.62113 43.7107,14.82714 66.2059,8.83874 l -10e-4,0 z M 208.18444,701.05998 c 0.80367,-0.80367 -3.47864,-5.77097 -9.51624,-11.03845 -54.82706,-47.83364 -86.09193,-96.49883 -92.4582,-143.9154 -2.06824,-15.40443 3.97003,-41.12558 14.24485,-60.67859 10.37311,-19.74006 34.82737,-45.60912 63.74013,-67.42781 10.89513,-8.22189 20.33368,-15.47325 20.97457,-16.11414 0.64089,-0.64089 6.4089,-5.31458 12.8178,-10.386 42.52488,-33.65026 59.81455,-59.19841 63.26165,-93.47877 2.54462,-25.3055 -9.46773,-43.00925 -44.27562,-65.25324 -9.8944,-6.32301 -24.34243,-15.57546 -32.10674,-20.56098 -33.57125,-21.55635 -52.93331,-47.23001 -55.15956,-73.14032 -0.88911,-10.34798 0.1015,-14.64072 6.26995,-27.17064 8.94086,-18.161466 28.85423,-37.387515 48.22224,-46.557838 13.60733,-6.44277 13.64662,-6.490645 7.90542,-9.632884 -3.17344,-1.736865 -13.34822,-4.970373 -22.61063,-7.185576 -14.6028,-3.492413 -18.93527,-3.64171 -32.60224,-1.123472 C 135.0375,51.422686 116.36981,62.105525 95.3641,82.605933 80.124891,97.478558 76.885562,102.04326 73.639033,113.21982 c -6.018963,20.72099 -1.236671,37.37533 27.680927,96.39883 31.13303,63.54541 32.76939,68.49159 32.76785,99.04661 -10e-4,23.12407 -0.43983,25.36784 -7.9735,40.78389 -6.58761,13.48013 -13.8285,22.17269 -41.689579,50.04756 -18.544516,18.55371 -37.504109,39.44229 -42.132426,46.41909 -8.3382,12.56913 -8.412686,12.89985 -8.148423,36.18126 0.233314,20.55483 1.351348,26.70532 8.931168,49.13176 25.8091,76.36146 68.61782,135.38534 116.75561,160.98045 15.2345,8.10024 43.86389,13.3406 48.35378,8.85071 l 0,0 z m 1118.21546,-5.63111 c 39.7728,-15.67698 57.382,-46.90274 43.5223,-77.17635 -7.9924,-17.45784 -20.3638,-29.52829 -61.5611,-60.06396 -39.1324,-29.00519 -52.1322,-48.21186 -52.1322,-77.02338 0,-11.186 1.7098,-20.85427 5.5675,-31.48209 11.8391,-32.61654 32.1421,-53.57417 86.4876,-89.27651 54.1591,-35.57992 76.6295,-55.68072 90.1837,-80.6734 7.3751,-13.59898 7.6916,-15.23679 7.6945,-39.81792 0,-21.45948 -0.9208,-28.1033 -5.6683,-40.7839 -12.8245,-34.2539 -33.7313,-65.64584 -65.8663,-98.89964 l -22.5971,-23.383769 -17.0216,4.343548 c -38.5148,9.828173 -122.3857,48.763181 -202.297,93.911451 -12.605,7.12159 -60.1014,34.15517 -65.9027,37.5099 -2.8478,1.64681 -13.0432,8.1463 -22.6566,14.44331 -9.6133,6.297 -24.0761,15.43689 -32.1395,20.31087 -13.73735,8.30372 -14.57621,9.30207 -13.32077,15.85331 7.40877,38.66129 8.62157,50.56523 7.36037,72.24576 -1.3551,23.29472 -5.3636,45.82684 -11.98561,67.37251 -4.46099,14.51438 -4.49502,14.10983 1.72747,20.53402 8.74974,9.03335 57.30754,55.07362 85.48754,81.05534 14.5974,13.45868 30.4649,28.14089 35.2612,32.62712 17.9112,16.75349 34.5487,32.14654 60.4541,55.9322 14.6581,13.45869 28.7809,26.59716 31.3841,29.19663 2.6031,2.59945 15.2203,14.08734 28.0381,25.52863 12.8178,11.44128 24.4764,21.89918 25.9082,23.2398 5.1733,4.84415 16.177,14.24323 25.3361,21.64155 11.2442,9.08246 21.0629,9.80104 38.736,2.83497 l 0,0 z M 251.77972,688.34219 c 14.50884,-5.49506 55.67676,-25.94865 74.14238,-36.83637 6.76036,-3.98603 12.71719,-7.24734 13.23741,-7.24734 0.52024,0 5.45555,-2.88401 10.96737,-6.4089 5.51181,-3.5249 11.83448,-7.45763 14.05035,-8.73941 43.5474,-25.19012 171.43051,-113.36623 206.66528,-142.49684 0.52159,-0.43124 -3.89587,-10.49503 -9.81657,-22.36396 -21.93896,-43.97977 -28.90245,-78.72735 -26.3302,-131.38654 l 1.49323,-30.56937 -7.99866,-6.10088 c -4.39925,-3.35549 -9.40034,-7.4411 -11.11352,-9.07914 -1.71318,-1.63807 -10.45596,-8.70776 -19.42842,-15.71047 -8.97246,-7.00269 -16.83793,-13.34163 -17.47882,-14.08652 -0.64089,-0.74489 -10.07944,-8.05106 -20.97457,-16.23594 -10.89513,-8.18488 -20.33369,-15.52175 -20.97458,-16.30417 -0.64089,-0.78242 -20.04237,-15.98297 -43.1144,-33.779 -23.07204,-17.79602 -42.47352,-33.02728 -43.11441,-33.84724 -1.80107,-2.30427 -92.99822,-70.329181 -105.27051,-78.522359 -11.36484,-7.587343 -11.57477,-7.598091 -32.22949,-1.650235 -10.78028,3.104351 -30.7826,18.01309 -38.58466,28.759104 -10.9256,15.04814 -14.08819,27.62829 -10.32478,41.06987 2.97391,10.62177 13.85069,27.84251 20.75614,32.8623 2.02563,1.47249 6.58632,5.19306 10.13486,8.26793 3.54855,3.07487 16.65766,11.76894 29.13136,19.32016 42.26183,25.58408 58.44131,40.47279 66.56474,61.25428 7.51864,19.23434 3.64909,49.15127 -9.41376,72.78122 -9.96302,18.02255 -13.54547,22.0764 -49.63288,56.16393 -2.17039,2.05013 -14.85355,11.92533 -28.18479,21.94491 -13.33123,10.01955 -33.74735,27.74367 -45.36915,39.3869 -23.12763,23.17031 -34.08522,41.51707 -38.3082,64.14114 -7.9603,42.6462 30.23118,109.55713 89.93509,157.56495 6.29904,5.06506 11.80238,9.99574 12.22964,10.95707 1.46228,3.29012 15.53182,1.74739 28.35452,-3.10908 z M 789.55989,566.2049 c 37.47451,-5.73876 62.12236,-15.38916 94.69455,-37.07587 73.41968,-48.88316 115.61953,-137.88629 106.43987,-224.49087 -3.53089,-33.31175 -8.89157,-51.86191 -23.40772,-81.00002 -13.39069,-26.879 -16.33775,-30.98423 -38.49415,-53.62177 -81.51362,-83.28371 -215.15889,-81.85704 -304.94347,3.25529 -12.72234,12.06031 -34.94132,40.35582 -44.09656,56.15631 -8.16719,14.09529 -19.6319,43.1891 -25.59014,64.93966 -7.05862,25.76748 -7.0596,86.86059 -0.002,112.17898 6.63761,23.81104 11.0391,35.57987 18.60368,49.74307 36.7743,68.85264 105.1204,111.36783 181.83813,113.11373 6.73778,0.15334 22.46871,-1.286 34.95763,-3.19851 z"
       style="fill:#367c9c;fill-opacity:1;stroke:#367c9c;stroke-width:3;stroke-miterlimit:4;stroke-opacity:1;stroke-dasharray:none" />
  </g>
</svg>
