<?xml version="1.0" encoding="UTF-8" standalone="no"?>
<!-- Created with Inkscape (http://www.inkscape.org/) -->

<svg
   xmlns:dc="http://purl.org/dc/elements/1.1/"
   xmlns:cc="http://creativecommons.org/ns#"
   xmlns:rdf="http://www.w3.org/1999/02/22-rdf-syntax-ns#"
   xmlns:svg="http://www.w3.org/2000/svg"
   xmlns="http://www.w3.org/2000/svg"
   xmlns:sodipodi="http://sodipodi.sourceforge.net/DTD/sodipodi-0.dtd"
   xmlns:inkscape="http://www.inkscape.org/namespaces/inkscape"
   width="765"
   height="1052.1"
   id="svg10846"
   version="1.1"
   inkscape:version="0.48.4 r9939"
   sodipodi:docname="Lyra.svg">
  <defs
     id="defs10848" />
  <sodipodi:namedview
     id="base"
     pagecolor="#ffffff"
     bordercolor="#666666"
     borderopacity="1.0"
     inkscape:pageopacity="0.0"
     inkscape:pageshadow="2"
     inkscape:zoom="0.24748737"
     inkscape:cx="411.91785"
     inkscape:cy="476.63189"
     inkscape:document-units="px"
     inkscape:current-layer="layer1"
     showgrid="false"
     units="in"
     inkscape:window-width="959"
     inkscape:window-height="1021"
     inkscape:window-x="960"
     inkscape:window-y="27"
     inkscape:window-maximized="0" />
  <metadata
     id="metadata10851">
    <rdf:RDF>
      <cc:Work
         rdf:about="">
        <dc:format>image/svg+xml</dc:format>
        <dc:type
           rdf:resource="http://purl.org/dc/dcmitype/StillImage" />
        <dc:title></dc:title>
      </cc:Work>
    </rdf:RDF>
  </metadata>
  <g
     inkscape:label="Layer 1"
     inkscape:groupmode="layer"
     id="layer1"
     transform="translate(0,-0.25975)">
    <g
       transform="matrix(0.56994528,0,0,0.56994528,-8491.9305,4245.7209)"
       id="g4276"
       style="display:inline">
      <g
         transform="matrix(7.6687365,0.87072975,-1.1696403,8.2770452,16015.855,-32058.433)"
         id="g4942-85-17"
         style="stroke-width:1.31414688;stroke-miterlimit:4;stroke-dasharray:none;display:inline">
        <path
           inkscape:connector-curvature="0"
           d="m 380.75949,3075.4508 c -5.5567,4.8755 -17.66509,19.6616 -29.16456,30.9873 -4.01073,4.2536 -5.65911,5.5777 -12.4956,0.8142 -5.04253,-3.5135 2.98837,-10.2056 1.5589,-15.599 -1.46095,-5.5122 -11.30442,-7.4446 -11.35173,-13.147 -0.0554,-6.6804 3.11316,-16.1198 9.73148,-17.0302 11.29473,-1.5537 33.17362,11.8239 41.72151,13.9747 z"
           id="path4901-97-4"
           style="fill:#4291d2;fill-opacity:1;stroke:#367c9c;stroke-width:1.31414688;stroke-linecap:butt;stroke-linejoin:miter;stroke-miterlimit:4;stroke-opacity:1;stroke-dasharray:none" />
        <path
           inkscape:connector-curvature="0"
           d="m 380.96202,3075.3495 c -0.27697,0.234 -31.59873,-14.0456 -39.83582,-13.8282 -3.77999,3.5219 -8.34112,10.5183 -6.94899,14.9422 2.30744,7.3325 14.57471,6.5088 16.40507,13.9747 1.41167,5.7581 -8.30665,7.6443 -8.50633,13.5696 -0.0859,2.5483 4.03203,5.0809 7.26098,4.4611 2.77746,-2.0101 33.03633,-35.1579 33.44787,-35.3472"
           id="path4903-13-0"
           style="fill:#6bc3f8;fill-opacity:1;stroke:#367c9c;stroke-width:1.31414688;stroke-linecap:butt;stroke-linejoin:miter;stroke-miterlimit:4;stroke-opacity:1;stroke-dasharray:none" />
        <path
           inkscape:connector-curvature="0"
           d="m 395.60555,3080.4458 c 5.92609,-4.4191 19.16962,-18.1978 31.53153,-28.5753 4.33563,-3.9219 7.04704,-5.7219 13.48398,-0.4309 4.74783,3.9025 -5.57104,9.5569 -4.57406,15.0468 1.01895,5.6107 12.86789,11.0636 12.46257,16.7518 -0.47488,6.6637 -5.75331,14.0666 -12.42302,14.4489 -11.38239,0.6526 -32.13073,-14.419 -40.481,-17.2413 z"
           id="path4901-3-4-9"
           style="fill:#4291d2;fill-opacity:1;stroke:#367c9c;stroke-width:1.31414688;stroke-linecap:butt;stroke-linejoin:miter;stroke-miterlimit:4;stroke-opacity:1;stroke-dasharray:none;display:inline" />
        <path
           inkscape:connector-curvature="0"
           d="m 395.39562,3080.5307 c 0.29468,-0.2113 30.38452,16.5087 38.61292,16.9458 4.04752,-3.211 9.14945,-9.8233 8.11276,-14.3438 -1.7183,-7.4924 -14.01224,-7.6448 -15.2444,-15.2324 -0.95028,-5.8519 8.88705,-6.961 9.55632,-12.8517 0.28781,-2.5336 -3.61616,-5.3849 -6.8841,-5.0233 -2.92821,1.7834 -35.72205,32.4255 -36.14731,32.5815"
           id="path4903-2-7-4"
           style="fill:#6bc3f8;fill-opacity:1;stroke:#367c9c;stroke-width:1.31414688;stroke-linecap:butt;stroke-linejoin:miter;stroke-miterlimit:4;stroke-opacity:1;stroke-dasharray:none;display:inline" />
        <path
           inkscape:connector-curvature="0"
           d="m 404.35443,3084.666 c 4.42194,-4.3544 5.40084,-11.7469 4.75949,-16.1013 4.05064,-3.6793 8.10127,-7.3586 12.15191,-11.0379 1.41772,11.5781 -1.01267,22.9536 -7.29115,31.6962 -3.20675,-1.519 -6.4135,-3.038 -9.62025,-4.557 z"
           id="path4938-13-8"
           style="fill:#eefd8d;fill-opacity:1;stroke:none" />
        <path
           inkscape:connector-curvature="0"
           d="m 407.29115,3075.7546 a 18.329115,17.721521 0 1 1 -36.65823,0 18.329115,17.721521 0 1 1 36.65823,0 z"
           id="path4928-71-8"
           style="fill:#6bc3f8;fill-opacity:1;fill-rule:nonzero;stroke:#367c9c;stroke-width:1.31414688;stroke-linecap:round;stroke-linejoin:round;stroke-miterlimit:4;stroke-opacity:1;stroke-dasharray:none;stroke-dashoffset:0" />
        <path
           inkscape:connector-curvature="0"
           d="m 351.74683,3105.7292 c -0.43882,-14.4641 1.35021,-29.9409 6.58227,-39.1392 3.12236,1.3081 6.24473,2.6161 9.36709,3.9242 -3.49367,5.7552 -4.55695,13.5358 -3.18986,21.5189 -4.25317,4.5654 -8.50633,9.1307 -12.7595,13.6961 z"
           id="path4932-2-2"
           style="fill:#eefd8d;fill-opacity:1;stroke:none" />
        <path
           inkscape:connector-curvature="0"
           d="m 335.92405,3078.6658 c -0.0169,-7.9831 2.0422,-12.1179 6.73418,-16.9112 2.80168,0.2785 6.66666,1.5696 9.03797,2.4557 -5.67088,5.3333 -7.16457,11.1224 -6.7595,19.6962 -2.73418,-1.2489 -7.51898,-2.903 -9.01265,-5.2407 z"
           id="path4934-7-4"
           style="fill:#eefd8d;fill-opacity:1;stroke:none" />
        <path
           inkscape:connector-curvature="0"
           d="m 375.34177,3086.7926 c 1.48524,-12.8946 6.86919,-21.6372 15.64557,-28.4558 4.27004,0.5907 8.33755,2.1942 11.64557,6.3799 -9.31646,6.6835 -11.84811,15.9494 -13.87342,28.5063 -6.21097,0 -10.09283,-2.5823 -13.41772,-6.4304 z"
           id="path4936-53-5"
           style="fill:#eefd8d;fill-opacity:1;stroke:none" />
        <path
           inkscape:connector-curvature="0"
           d="m 432.65823,3074.8938 c 1.46835,8.6245 -1.77215,14.3122 -8.25317,19.1393 3.27426,1.0802 7.51055,3.0717 9.92405,2.9367 6.12659,-4.2194 9.06329,-13.6541 6.78481,-15.3924 -2.7173,-4.1182 -4.6751,-4.2364 -8.45569,-6.6836 z"
           id="path4940-4-5"
           style="fill:#eefd8d;fill-opacity:1;stroke:none" />
      </g>
      <g
         transform="matrix(-7.6434771,-1.0381714,1.3247017,-8.2577143,14666.364,19180.136)"
         id="g4942-2-4-1"
         style="stroke-width:1.31414688;stroke-miterlimit:4;stroke-dasharray:none;display:inline">
        <path
           inkscape:connector-curvature="0"
           d="m 380.75949,3075.4508 c -5.5567,4.8755 -17.66509,19.6616 -29.16456,30.9873 -4.01073,4.2536 -5.69242,5.9339 -12.52891,1.1704 -5.04253,-3.5135 3.82286,-11.0406 2.39339,-16.434 -1.46095,-5.5122 -12.97331,-7.7918 -13.02062,-13.4942 -0.0554,-6.6804 3.98087,-15.2938 10.59919,-16.2042 11.29473,-1.5537 33.17362,11.8239 41.72151,13.9747 z"
           id="path4901-9-5-7"
           style="fill:#4291d2;fill-opacity:1;stroke:#367c9c;stroke-width:1.31414688;stroke-linecap:butt;stroke-linejoin:miter;stroke-miterlimit:4;stroke-opacity:1;stroke-dasharray:none" />
        <path
           inkscape:connector-curvature="0"
           d="m 380.96202,3075.3495 c -0.27697,0.234 -31.59873,-14.0456 -39.83582,-13.8282 -3.77999,3.5219 -8.34112,10.5183 -6.94899,14.9422 2.30744,7.3325 14.57471,6.5088 16.40507,13.9747 1.41167,5.7581 -8.30665,7.6443 -8.50633,13.5696 -0.0859,2.5483 4.03203,5.0809 7.26098,4.4611 2.77746,-2.0101 33.03633,-35.1579 33.44787,-35.3472"
           id="path4903-1-5-1"
           style="fill:#6bc3f8;fill-opacity:1;stroke:#367c9c;stroke-width:1.31414688;stroke-linecap:butt;stroke-linejoin:miter;stroke-miterlimit:4;stroke-opacity:1;stroke-dasharray:none" />
        <path
           inkscape:connector-curvature="0"
           d="m 395.60555,3080.4458 c 5.92609,-4.4191 19.16962,-18.1978 31.53153,-28.5753 4.33563,-3.9219 6.6752,-5.2762 13.11214,0.015 4.74783,3.9025 -4.4049,9.5739 -3.40792,15.0638 1.01895,5.6107 10.50297,9.4262 10.09765,15.1144 -0.47488,6.6637 -4.18269,15.2413 -10.8524,15.6236 -11.38239,0.6526 -32.13073,-14.419 -40.481,-17.2413 z"
           id="path4901-3-2-1-1"
           style="fill:#4291d2;fill-opacity:1;stroke:#367c9c;stroke-width:1.31414688;stroke-linecap:butt;stroke-linejoin:miter;stroke-miterlimit:4;stroke-opacity:1;stroke-dasharray:none;display:inline" />
        <path
           inkscape:connector-curvature="0"
           d="m 395.39562,3080.5307 c 0.29468,-0.2113 30.38452,16.5087 38.61292,16.9458 4.04752,-3.211 9.14945,-9.8233 8.11276,-14.3438 -1.7183,-7.4924 -14.01224,-7.6448 -15.2444,-15.2324 -0.95028,-5.8519 8.88705,-6.961 9.55632,-12.8517 0.28781,-2.5336 -3.61616,-5.3849 -6.8841,-5.0233 -2.92821,1.7834 -35.72205,32.4255 -36.14731,32.5815"
           id="path4903-2-6-4-5"
           style="fill:#6bc3f8;fill-opacity:1;stroke:#367c9c;stroke-width:1.31414688;stroke-linecap:butt;stroke-linejoin:miter;stroke-miterlimit:4;stroke-opacity:1;stroke-dasharray:none;display:inline" />
        <path
           inkscape:connector-curvature="0"
           d="m 404.35443,3084.666 c 1.5865,-5.3671 3.17299,-10.7342 4.75949,-16.1013 4.05064,-3.6793 8.10127,-7.3586 12.15191,-11.0379 1.68946,15.8228 -1.73599,26.6626 -7.29115,31.6962 -3.20675,-1.519 -6.4135,-3.038 -9.62025,-4.557 z"
           id="path4938-1-1-2"
           style="fill:#eefd8d;fill-opacity:1;stroke:none" />
        <path
           inkscape:connector-curvature="0"
           d="m 407.29115,3075.7546 a 18.329115,17.721521 0 1 1 -36.65823,0 18.329115,17.721521 0 1 1 36.65823,0 z"
           id="path4928-7-2-7"
           style="fill:#6bc3f8;fill-opacity:1;fill-rule:nonzero;stroke:#367c9c;stroke-width:1.31414688;stroke-linecap:round;stroke-linejoin:round;stroke-miterlimit:4;stroke-opacity:1;stroke-dasharray:none;stroke-dashoffset:0" />
        <path
           inkscape:connector-curvature="0"
           d="m 351.74683,3105.7292 c 0.36348,-13.4145 2.33457,-27.4692 6.58227,-39.1392 3.12236,1.3081 6.24473,2.6161 9.36709,3.9242 -3.50547,6.6147 -4.96143,14.4034 -3.18986,21.5189 -4.25317,4.5654 -8.50633,9.1307 -12.7595,13.6961 z"
           id="path4932-0-6-6"
           style="fill:#eefd8d;fill-opacity:1;stroke:none" />
        <path
           inkscape:connector-curvature="0"
           d="m 335.92405,3078.6658 c -0.21891,-6.9212 2.64184,-11.0806 6.73418,-16.9112 2.80168,0.2785 6.66666,1.5696 9.03797,2.4557 -5.28177,6.3913 -5.96533,11.7753 -6.7595,19.6962 -2.73418,-1.2489 -7.51898,-2.903 -9.01265,-5.2407 z"
           id="path4934-1-6-1"
           style="fill:#eefd8d;fill-opacity:1;stroke:none" />
        <path
           inkscape:connector-curvature="0"
           d="m 375.34177,3086.7926 c -0.45529,-15.8124 5.8451,-18.918 15.64557,-28.4558 4.27004,0.5907 8.33755,2.1942 11.64557,6.3799 -9.74103,9.01 -13.91343,16.6558 -13.87342,28.5063 -6.21097,0 -10.09283,-2.5823 -13.41772,-6.4304 z"
           id="path4936-5-3-4"
           style="fill:#eefd8d;fill-opacity:1;stroke:none" />
        <path
           inkscape:connector-curvature="0"
           d="m 432.65823,3074.8938 c -0.0868,9.7898 -2.93862,14.6676 -8.25317,19.1393 3.27426,1.0802 7.51055,3.0717 9.92405,2.9367 6.12659,-4.2194 9.06329,-13.6541 6.78481,-15.3924 -2.7173,-4.1182 -4.6751,-4.2364 -8.45569,-6.6836 z"
           id="path4940-2-3-2"
           style="fill:#eefd8d;fill-opacity:1;stroke:none" />
      </g>
      <g
         transform="matrix(-7.7337466,1.0350503,0.60559261,8.2581063,16508.982,-32955.348)"
         id="g4942-8-0-3"
         style="stroke-width:1.31414688;stroke-miterlimit:4;stroke-dasharray:none;display:inline">
        <path
           inkscape:connector-curvature="0"
           d="m 380.75949,3075.4508 c -5.5567,4.8755 -17.66509,19.6616 -29.16456,30.9873 -4.01073,4.2536 -8.08949,7.603 -14.92598,2.8395 -5.04253,-3.5135 2.58331,-12.2309 1.15384,-17.6243 -1.46095,-5.5122 -10.08923,-5.4193 -10.13654,-11.1217 -0.0554,-6.6804 4.73341,-18.1451 11.35173,-19.0555 11.29473,-1.5537 33.17362,11.8239 41.72151,13.9747 z"
           id="path4901-8-0-2"
           style="fill:#4291d2;fill-opacity:1;stroke:#367c9c;stroke-width:1.31414688;stroke-linecap:butt;stroke-linejoin:miter;stroke-miterlimit:4;stroke-opacity:1;stroke-dasharray:none" />
        <path
           inkscape:connector-curvature="0"
           d="m 380.96202,3075.3495 c -0.27697,0.234 -31.59873,-14.0456 -39.83582,-13.8282 -3.77999,3.5219 -8.34112,10.5183 -6.94899,14.9422 2.30744,7.3325 14.57471,6.5088 16.40507,13.9747 1.41167,5.7581 -8.30665,7.6443 -8.50633,13.5696 -0.0859,2.5483 4.03203,5.0809 7.26098,4.4611 2.77746,-2.0101 33.03633,-35.1579 33.44787,-35.3472"
           id="path4903-6-8-2"
           style="fill:#6bc3f8;fill-opacity:1;stroke:#367c9c;stroke-width:1.31414688;stroke-linecap:butt;stroke-linejoin:miter;stroke-miterlimit:4;stroke-opacity:1;stroke-dasharray:none" />
        <path
           inkscape:connector-curvature="0"
           d="m 395.60555,3080.4458 c 5.92609,-4.4191 19.16962,-18.1978 31.53153,-28.5753 4.33563,-3.9219 8.66729,-6.9371 15.10423,-1.6461 4.74783,3.9025 -3.54572,11.9873 -2.54874,17.4772 1.01895,5.6107 9.62738,6.2028 9.22206,11.891 -0.47488,6.6637 -6.15837,17.7122 -12.82808,18.0945 -11.38239,0.6526 -32.13073,-14.419 -40.481,-17.2413 z"
           id="path4901-3-1-1-1"
           style="fill:#4291d2;fill-opacity:1;stroke:#367c9c;stroke-width:1.31414688;stroke-linecap:butt;stroke-linejoin:miter;stroke-miterlimit:4;stroke-opacity:1;stroke-dasharray:none;display:inline" />
        <path
           inkscape:connector-curvature="0"
           d="m 395.39562,3080.5307 c 0.29468,-0.2113 30.38452,16.5087 38.61292,16.9458 4.04752,-3.211 9.14945,-9.8233 8.11276,-14.3438 -1.7183,-7.4924 -14.01224,-7.6448 -15.2444,-15.2324 -0.95028,-5.8519 8.88705,-6.961 9.55632,-12.8517 0.28781,-2.5336 -3.61616,-5.3849 -6.8841,-5.0233 -2.92821,1.7834 -35.72205,32.4255 -36.14731,32.5815"
           id="path4903-2-66-3-6"
           style="fill:#6bc3f8;fill-opacity:1;stroke:#367c9c;stroke-width:1.31414688;stroke-linecap:butt;stroke-linejoin:miter;stroke-miterlimit:4;stroke-opacity:1;stroke-dasharray:none;display:inline" />
        <path
           inkscape:connector-curvature="0"
           d="m 404.35443,3084.666 c 3.19742,-4.7035 4.65862,-11.4972 4.75949,-16.1013 4.05064,-3.6793 8.10127,-7.3586 12.15191,-11.0379 -0.33287,11.5313 -2.17159,21.9585 -7.29115,31.6962 -3.20675,-1.519 -6.4135,-3.038 -9.62025,-4.557 z"
           id="path4938-7-8-8"
           style="fill:#eefd8d;fill-opacity:1;stroke:none" />
        <path
           inkscape:connector-curvature="0"
           d="m 407.29115,3075.7546 a 18.329115,17.721521 0 1 1 -36.65823,0 18.329115,17.721521 0 1 1 36.65823,0 z"
           id="path4928-0-1-5"
           style="fill:#6bc3f8;fill-opacity:1;fill-rule:nonzero;stroke:#367c9c;stroke-width:1.31414688;stroke-linecap:round;stroke-linejoin:round;stroke-miterlimit:4;stroke-opacity:1;stroke-dasharray:none;stroke-dashoffset:0" />
        <path
           inkscape:connector-curvature="0"
           d="m 351.74683,3105.7292 c 3.85671,-15.7226 1.41526,-30.8059 6.58227,-39.1392 3.12236,1.3081 6.24473,2.6161 9.36709,3.9242 -2.81243,5.9177 -3.65827,14.9117 -3.18986,21.5189 -4.25317,4.5654 -8.50633,9.1307 -12.7595,13.6961 z"
           id="path4932-4-6-7"
           style="fill:#eefd8d;fill-opacity:1;stroke:none" />
        <path
           inkscape:connector-curvature="0"
           d="m 335.92405,3078.6658 c 0.54105,-6.9963 2.6485,-11.4559 6.73418,-16.9112 2.80168,0.2785 6.66666,1.5696 9.03797,2.4557 -4.93826,6.1441 -6.54893,11.1208 -6.7595,19.6962 -2.73418,-1.2489 -7.51898,-2.903 -9.01265,-5.2407 z"
           id="path4934-9-9-6"
           style="fill:#eefd8d;fill-opacity:1;stroke:none" />
        <path
           inkscape:connector-curvature="0"
           d="m 375.34177,3086.7926 c 1.07368,-15.3602 5.57924,-20.8741 15.64557,-28.4558 4.27004,0.5907 8.33755,2.1942 11.64557,6.3799 -10.0152,9.6723 -13.00035,17.538 -13.87342,28.5063 -6.21097,0 -10.09283,-2.5823 -13.41772,-6.4304 z"
           id="path4936-8-8-18"
           style="fill:#eefd8d;fill-opacity:1;stroke:none" />
        <path
           inkscape:connector-curvature="0"
           d="m 432.65823,3074.8938 c -0.1954,7.9135 -1.95259,13.7652 -8.25317,19.1393 3.27426,1.0802 7.51055,3.0717 9.92405,2.9367 6.12659,-4.2194 9.06329,-13.6541 6.78481,-15.3924 -2.7173,-4.1182 -4.6751,-4.2364 -8.45569,-6.6836 z"
           id="path4940-9-0-9"
           style="fill:#eefd8d;fill-opacity:1;stroke:none" />
      </g>
    </g>
  </g>
</svg>
