<?xml version="1.0" encoding="UTF-8" standalone="no"?>
<svg
   xmlns:dc="http://purl.org/dc/elements/1.1/"
   xmlns:cc="http://creativecommons.org/ns#"
   xmlns:rdf="http://www.w3.org/1999/02/22-rdf-syntax-ns#"
   xmlns:svg="http://www.w3.org/2000/svg"
   xmlns="http://www.w3.org/2000/svg"
   xmlns:sodipodi="http://sodipodi.sourceforge.net/DTD/sodipodi-0.dtd"
   xmlns:inkscape="http://www.inkscape.org/namespaces/inkscape"
   viewBox="-585 -605 1874.25 2422.6347"
   width="765"
   height="990"
   id="svg2"
   version="1.1"
   inkscape:version="0.48.4 r9939"
   sodipodi:docname="Cadence.tex">
  <metadata
     id="metadata14">
    <rdf:RDF>
      <cc:Work
         rdf:about="">
        <dc:format>image/svg+xml</dc:format>
        <dc:type
           rdf:resource="http://purl.org/dc/dcmitype/StillImage" />
        <dc:title></dc:title>
      </cc:Work>
    </rdf:RDF>
  </metadata>
  <defs
     id="defs12" />
  <sodipodi:namedview
     pagecolor="#ffffff"
     bordercolor="#666666"
     borderopacity="1"
     objecttolerance="10"
     gridtolerance="10"
     guidetolerance="10"
     inkscape:pageopacity="0"
     inkscape:pageshadow="2"
     inkscape:window-width="959"
     inkscape:window-height="1021"
     id="namedview10"
     showgrid="false"
     inkscape:zoom="0.36837299"
     inkscape:cx="762.07864"
     inkscape:cy="86.029256"
     inkscape:window-x="960"
     inkscape:window-y="27"
     inkscape:window-maximized="0"
     inkscape:current-layer="svg2"
     units="in"
     fit-margin-top="0"
     fit-margin-left="0"
     fit-margin-right="0"
     fit-margin-bottom="0" />
  <g
     id="g3034"
     transform="matrix(2.152964,0,0,2.152964,-748.08259,-889.5908)">
    <path
       id="path3"
       d="m 686.502,841.99 c 0,0 -93,-51 52.5,-111.5 0,0 48.612,-14.738 85.978,-9.049 37.312,5.73 4.005,-8.299 4.005,-8.299 l 12.209,-14.652 -41.702,-26.365 c 0,0 62.143,5.393 68.042,-19.512 0,0 -2.811,-53.807 -49.693,-1.441 0,0 -4.45,-22.727 20.268,-33.359 l 9.574,-58.115 c 0,0 44.475,78.072 58.781,63.383 0,0 -0.128,41.912 8.836,41.334 0,0 41.479,7.711 29.414,34.797 0,0 -79.104,-34.15 -65.549,50.537 0,0 -201.097,-22.24 -200.049,58.479 0,0 10.687,33.621 31.887,9.264 0,0 -7.5,-29.5 9.5,-6.5 -0.001,-0.002 19.999,40.498 -34.001,30.998 z"
       inkscape:connector-curvature="0"
       style="fill:#f9ba21" />
    <polygon
       id="polygon5"
       points="516.069,617.52 360.89,466.374 507.711,294.708 675.333,451.933 "
       style="fill:#18bcdd" />
    <polyline
       id="polyline7"
       points="507.711,294.708 743.933,314.388 675.333,451.933 "
       style="fill:#ffffff" />
    <polygon
       id="polygon9"
       points="843.118,460.101 743.933,314.388 675.333,451.933 684.677,532.502 "
       style="fill:#18bcdd" />
    <polyline
       id="polyline11"
       points="743.933,314.388 843.118,460.101 848.458,315.104 "
       style="fill:#14839b" />
    <polyline
       id="polyline13"
       points="516.069,617.52 675.333,451.933 684.677,532.502 "
       style="fill:#69cce6" />
    <polyline
       id="polyline15"
       points="516.069,617.52 608.396,715.688 741.305,591.777 684.677,532.502 "
       style="fill:#129bb8" />
    <polyline
       id="polyline17"
       points="684.677,532.502 741.305,591.777 843.118,460.101 "
       style="fill:#0f7d94" />
    <polyline
       id="polyline19"
       points="516.069,617.52 449.323,738.422 528.706,793.275 608.396,715.688 "
       style="fill:#2abbce" />
    <polyline
       id="polyline21"
       points="507.711,294.708 633.237,239.256 744.002,315.241 "
       style="fill:#6acce7" />
    <polyline
       id="polyline23"
       points="633.237,239.256 753.566,179.734 744.002,315.241 "
       style="fill:#18bcdd" />
    <polyline
       id="polyline25"
       points="753.566,179.734 743.933,314.388 848.458,315.104 "
       style="fill:#129bb8" />
    <polyline
       id="polyline27"
       points="515.735,197.323 633.237,239.256 753.566,179.734 662.89,131.239 "
       style="fill:#129bb8" />
    <polyline
       id="polyline29"
       points="515.735,197.323 398.484,252.664 507.711,294.708 633.237,239.256 "
       style="fill:#0d7085" />
    <polyline
       id="polyline31"
       points="507.711,294.708 275.509,325.858 360.89,466.374 "
       style="fill:#8fd6ea" />
    <polygon
       id="polygon33"
       points="182.641,474.933 275.509,325.858 360.89,466.374 338.915,545.104 "
       style="fill:#18bcdd" />
    <polyline
       id="polyline35"
       points="275.509,325.858 182.641,474.933 173.627,326.371 "
       style="fill:#14839b" />
    <polyline
       id="polyline37"
       points="516.069,617.52 360.89,466.374 338.915,545.104 "
       style="fill:#69cce6" />
    <polyline
       id="polyline39"
       points="516.069,617.52 450.891,739.779 288.301,603.133 338.915,545.104 "
       style="fill:#129bb8" />
    <polyline
       id="polyline41"
       points="338.915,545.104 288.301,603.133 182.641,474.933 "
       style="fill:#0f7d94" />
    <polyline
       id="polyline43"
       points="507.711,294.708 398.484,252.664 275.509,325.858 "
       style="fill:#6acce7" />
    <polyline
       id="polyline45"
       points="398.484,252.664 262.682,191.104 275.509,325.858 "
       style="fill:#18bcdd" />
    <polyline
       id="polyline47"
       points="262.682,191.104 275.509,325.858 173.627,326.371 "
       style="fill:#129bb8" />
    <polyline
       id="polyline49"
       points="515.735,197.323 398.484,252.664 262.682,191.104 349.703,135.819 "
       style="fill:#129bb8" />
    <path
       id="path51"
       d="m 346.387,843.748 c 0,0 93.653,-53.432 -56.563,-110.078 0,0 -50.044,-13.453 -88.062,-6.783 -37.961,6.711 -4.31,-8.189 -4.31,-8.189 l -12.856,-14.326 41.902,-27.455 c 0,0 -63.334,7.029 -70.017,-17.711 0,0 1.454,-53.863 50.722,-2.752 0,0 3.947,-22.834 -21.58,-32.813 l -11.311,-57.844 c 0,0 -43.373,79.217 -58.374,64.91 0,0 2.063,41.285 -7.937,41.553 0,0 -42.166,8.799 -29.129,35.559 0,0 79.901,-36.223 68.287,48.793 0,0 204.827,-27.529 205.883,53.189 0,0 -10.029,33.893 -32.326,10.102 0,0 6.883,-29.688 -9.876,-6.248 0.001,-10e-4 -19.361,41.013 35.547,30.093 z"
       inkscape:connector-curvature="0"
       style="fill:#f9ba21" />
  </g>
</svg>
