<?xml version="1.0" encoding="utf-8"?>
<!-- Generator: Adobe Illustrator 14.0.0, SVG Export Plug-In . SVG Version: 6.00 Build 43363)  -->
<!DOCTYPE svg PUBLIC "-//W3C//DTD SVG 1.1//EN" "http://www.w3.org/Graphics/SVG/1.1/DTD/svg11.dtd">
<svg version="1.1" id="Layer_1" xmlns="http://www.w3.org/2000/svg" xmlns:xlink="http://www.w3.org/1999/xlink" x="0px" y="0px"
	 width="1000px" height="1000px" viewBox="0 0 1000 1000" enable-background="new 0 0 1000 1000" xml:space="preserve">
<path fill="#F9BA21" d="M686.502,841.99c0,0-93-51,52.5-111.5c0,0,48.612-14.738,85.978-9.049c37.312,5.73,4.005-8.299,4.005-8.299
	l12.209-14.652l-41.702-26.365c0,0,62.143,5.393,68.042-19.512c0,0-2.811-53.807-49.693-1.441c0,0-4.45-22.727,20.268-33.359
	l9.574-58.115c0,0,44.475,78.072,58.781,63.383c0,0-0.128,41.912,8.836,41.334c0,0,41.479,7.711,29.414,34.797
	c0,0-79.104-34.15-65.549,50.537c0,0-201.097-22.24-200.049,58.479c0,0,10.687,33.621,31.887,9.264c0,0-7.5-29.5,9.5-6.5
	C720.502,810.99,740.502,851.49,686.502,841.99z"/>
<polygon fill="#18BCDD" points="360.89,466.374 507.711,294.708 675.333,451.933 516.069,617.52 "/>
<polyline fill="#FFFFFF" points="507.711,294.708 743.933,314.388 675.333,451.933 "/>
<polygon fill="#18BCDD" points="743.933,314.388 675.333,451.933 684.677,532.502 843.118,460.101 "/>
<polyline fill="#14839B" points="743.933,314.388 843.118,460.101 848.458,315.104 "/>
<polyline fill="#69CCE6" points="516.069,617.52 675.333,451.933 684.677,532.502 "/>
<polyline fill="#129BB8" points="516.069,617.52 608.396,715.688 741.305,591.777 684.677,532.502 "/>
<polyline fill="#0F7D94" points="684.677,532.502 741.305,591.777 843.118,460.101 "/>
<polyline fill="#2ABBCE" points="516.069,617.52 449.323,738.422 528.706,793.275 608.396,715.688 "/>
<polyline fill="#6ACCE7" points="507.711,294.708 633.237,239.256 744.002,315.241 "/>
<polyline fill="#18BCDD" points="633.237,239.256 753.566,179.734 744.002,315.241 "/>
<polyline fill="#129BB8" points="753.566,179.734 743.933,314.388 848.458,315.104 "/>
<polyline fill="#129BB8" points="515.735,197.323 633.237,239.256 753.566,179.734 662.89,131.239 "/>
<polyline fill="#0D7085" points="515.735,197.323 398.484,252.664 507.711,294.708 633.237,239.256 "/>
<polyline fill="#8FD6EA" points="507.711,294.708 275.509,325.858 360.89,466.374 "/>
<polygon fill="#18BCDD" points="275.509,325.858 360.89,466.374 338.915,545.104 182.641,474.933 "/>
<polyline fill="#14839B" points="275.509,325.858 182.641,474.933 173.627,326.371 "/>
<polyline fill="#69CCE6" points="516.069,617.52 360.89,466.374 338.915,545.104 "/>
<polyline fill="#129BB8" points="516.069,617.52 450.891,739.779 288.301,603.133 338.915,545.104 "/>
<polyline fill="#0F7D94" points="338.915,545.104 288.301,603.133 182.641,474.933 "/>
<polyline fill="#6ACCE7" points="507.711,294.708 398.484,252.664 275.509,325.858 "/>
<polyline fill="#18BCDD" points="398.484,252.664 262.682,191.104 275.509,325.858 "/>
<polyline fill="#129BB8" points="262.682,191.104 275.509,325.858 173.627,326.371 "/>
<polyline fill="#129BB8" points="515.735,197.323 398.484,252.664 262.682,191.104 349.703,135.819 "/>
<path fill="#F9BA21" d="M346.387,843.748c0,0,93.653-53.432-56.563-110.078c0,0-50.044-13.453-88.062-6.783
	c-37.961,6.711-4.31-8.189-4.31-8.189l-12.856-14.326l41.902-27.455c0,0-63.334,7.029-70.017-17.711c0,0,1.454-53.863,50.722-2.752
	c0,0,3.947-22.834-21.58-32.813l-11.311-57.844c0,0-43.373,79.217-58.374,64.91c0,0,2.063,41.285-7.937,41.553
	c0,0-42.166,8.799-29.129,35.559c0,0,79.901-36.223,68.287,48.793c0,0,204.827-27.529,205.883,53.189
	c0,0-10.029,33.893-32.326,10.102c0,0,6.883-29.688-9.876-6.248C310.841,813.654,291.479,854.668,346.387,843.748z"/>
</svg>
