<?xml version="1.0" encoding="UTF-8" standalone="no"?>
<svg
   xmlns:dc="http://purl.org/dc/elements/1.1/"
   xmlns:cc="http://creativecommons.org/ns#"
   xmlns:rdf="http://www.w3.org/1999/02/22-rdf-syntax-ns#"
   xmlns:svg="http://www.w3.org/2000/svg"
   xmlns="http://www.w3.org/2000/svg"
   xmlns:sodipodi="http://sodipodi.sourceforge.net/DTD/sodipodi-0.dtd"
   xmlns:inkscape="http://www.inkscape.org/namespaces/inkscape"
   viewBox="-585 -605 1225 1226"
   width="500"
   height="501"
   id="svg2"
   version="1.1"
   inkscape:version="0.48.1 "
   sodipodi:docname="1.svg">
  <metadata
     id="metadata14">
    <rdf:RDF>
      <cc:Work
         rdf:about="">
        <dc:format>image/svg+xml</dc:format>
        <dc:type
           rdf:resource="http://purl.org/dc/dcmitype/StillImage" />
        <dc:title />
      </cc:Work>
    </rdf:RDF>
  </metadata>
  <defs
     id="defs12" />
  <sodipodi:namedview
     pagecolor="#ffffff"
     bordercolor="#666666"
     borderopacity="1"
     objecttolerance="10"
     gridtolerance="10"
     guidetolerance="10"
     inkscape:pageopacity="0"
     inkscape:pageshadow="2"
     inkscape:window-width="1280"
     inkscape:window-height="962"
     id="namedview10"
     showgrid="false"
     inkscape:zoom="2.9469839"
     inkscape:cx="253.01481"
     inkscape:cy="250.33631"
     inkscape:window-x="-8"
     inkscape:window-y="-8"
     inkscape:window-maximized="1"
     inkscape:current-layer="svg2" />
  <path
     d="m 160.99909,-281.99974 11.99999,44 q -62.99994,-37 -140.999862,-36 l -38.9999638,2 q -47.9999552,-49.00001 -45.9999572,-103.00002 1.999998,-67.00001 77.999927,-83.00001 101.999906,-23 98.999906,-74.00002 -1,-36 -34.999965,-53.00001 -37.999965,-18 -71.999933,16.00001 22.999979,-48.00001 94.999908,-32.00001 72.99993,16 97.99991,83.00002 24.99997,73.00001 -37.99997,140.00002 -25.99997,29.00001 -10.99999,96.00002 m 42.99996,65 q 5,-65 48.99996,-99.00001 54.99995,-41 118.99988,4 84.99993,59.00001 120.9999,23.00001 25.99996,-25.00001 14.99997,-62.00001 -12.99997,-41.00001 -59.99993,-42.00001 49.99995,-14.00001 87.99991,48.00001 36.99997,64.00001 3,128.00001 -34.99996,68.00002 -126.99988,68.00002 -39.99997,0 -79.99993,51.000008 l -24.99997,38.000007 Q 289.99898,-134.99972 232.99903,-191.99972 l -28.99998,-25.00002 m 108.99991,188.000041 q 47.99994,-43.000008 101.9999,-39.000008 66.99994,5.000002 81.99992,81.000014 6,35.000007 24.99997,68.000012 21.99998,34.000011 43.99996,34.000011 34.99997,0 53.99996,-34.000011 17.99998,-37.000007 -13.99999,-72.000013 45.99996,26.000005 28.99997,95.000024 -17.99998,73.00001 -86.99992,95.00001 -71.99993,22 -137.99987,-42.00001 -27.99998,-27 -94.99991,-15 l -35.99996,9 Q 314.99895,88.00032 314.99895,9.000306 l -1.99999,-38.000005 M 254.99901,185.00034 q 59.99994,8 90.99991,52 37.99996,55.00002 -9,118.00002 -61.99993,82.00002 -27.99996,120.00003 22.99997,25 60.99994,16 40.99996,-11 44.99996,-57.00001 11.99999,50.00001 -50.99996,85.00001 -65.99993,35.00001 -128.99988,0 -65.99994,-39 -61.99994,-130.00002 1,-39.00001 -45.99995,-79.00001 l -32.999971,-24 q 77.999921,-16 138.999871,-76.00002 l 21.99998,-25 M 61.999189,291.00036 q 41.999961,49 38.999961,103.00001 -1.999995,69.00002 -78.999923,84.00002 -34.999967,6 -66.999938,25 -34.999967,22 -34.999967,44 0,35.00002 33.999968,54.00002 35.999967,19 71.999933,-13 -25.99997534038,45 -94.999911,28 -72.999942,-18 -94.999922,-87.00002 -21.99998,-74.00001 41.99997,-138.00002 26.999976,-28.00001 14.99998,-95.00001 l -11.99999,-46.00002 q 65.999947,42.00002 150.999868,43.00002 l 29.999971,-2 M -148.00062,228.00034 q -7.99999,65.00002 -53.99994,99.00002 -54.99995,38.00001 -116.9999,-9 -83.99992,-62.00002 -119.99989,-28 -26.99997,23 -16.99998,61 10.99999,41.00001 56.99995,45.00001 -49.99996,12 -84.99993,-51.00001 -34.99997,-66 1,-129.00002 37.99997,-66.00001 129.99988,-62.00001 38.99997,1 78.99993,-46 l 27.99998,-40.000013 q 15.99998,80.000013 77.99992,142.000023 l 19.99998,18 M -250.00052,41.000312 q -47.99996,46.000008 -103.99991,46.000008 -68.99993,-1 -84.99992,-77.000014 -22.99998,-102.000016 -73.99993,-99.000016 -35.99996,2 -51.99994,36.000006 -18.99999,37.000007 14.99998,70.000012 -46.99996,-23.0000044 -30.99997,-93.000015 14.99999,-75.000013 81.99992,-97.000013 71.99993,-26 139.99986,36 27.99998,25 94.99992,12 31.99997,-7 55.99995,-18 -43.99996,67.000013 -43.99996,152.000026 l 2,32.000006 m 60.99994,-210.000032 q -71.99993,-3 -107.9999,-49.00002 -42.99996,-55 4,-118.00001 58.99994,-86.00002 22.99998,-122.00002 -24.99998,-24 -61.99995,-13 -39.99995,10 -40.99995,58 -14.99999,-50 46.99995,-88.00001 63.99994,-38.00001 127.99988,-4 67.99993,35.00001 67.99993,128.00002 0,39.00001 50.999961,81.00002 22.999979,18 44.999959,29 -75.99993,17 -133.99988,75.00002 l -20.99998,23"
     id="path4"
     inkscape:connector-curvature="0"
     style="fill:#fcc38b" />
  <path
     d="m -7.0004463,-271.99809 39.0000723,-1.99999 q 78.000144,-1 141.000264,35.99994 l 31.00005,20.99998 L 233,-191.99819 q 57.0001,56.99992 74.00014,131.999815 l 6,30.999959 2.00001,37.9999481 q 0,78.9998939 -36.00006,141.9998079 L 255.00004,185.00129 233,210.00126 q -61.00011,59.99992 -139.000259,75.99989 l -32.00006,5 -30.000055,2 q -85.000158,-1 -151.000276,-42.99994 l -29.00006,-21.99998 -20.00004,-17.99997 q -62.00011,-61.99992 -78.00014,-141.999807 l -4,-26.999964 -2.00001,-31.9999569 q 0,-84.9998861 44.00008,-151.9998021 l 19.00004,-25.99996 21.00003,-22.99996 q 58.00011,-57.99993 134.000253,-74.99991 l 27.0000507,-4.99999 m 39.0000723,97.99987 q -76.000141,-1 -130.000241,52.99993 -54.000095,53.999924 -54.000095,129.9998221 0,76.9998959 54.000095,131.9998279 54.0001,52.99993 130.000241,52.99993 76.000134,0 131.000244,-52.99993 54.0001,-54.999932 54.0001,-131.9998279 0,-75.9998981 -54.0001,-129.9998221 -55.00011,-53.99993 -131.000244,-52.99993"
     id="path6"
     inkscape:connector-curvature="0"
     style="fill:#ffd791" />
  <path
     d="m -97.999338,-121.00194 q 53.999913,-54.00018 129.999789,-53.00018 75.999879,-1 130.999779,53.00018 53.99992,54.000179 53.99992,130.0004297 0,77.0002543 -53.99992,132.0004303 -54.9999,53.00018 -130.999779,53.00018 -75.999876,0 -129.999789,-53.00018 -53.999912,-55.000176 -53.999912,-132.0004303 0,-76.0002507 53.999912,-130.0004297"
     id="path8"
     inkscape:connector-curvature="0"
     style="fill:#fff6b9" />
</svg>
