<svg xmlns="http://www.w3.org/2000/svg" width="500" height="1000" viewBox="0 0 23 46.2"><g transform="translate(-16.6,0.1)"><g transform="matrix(1.42444,0,-0.420472,1,-0.768427,0)"><path fill="#dfdfff" d="m24.7,9.4q0.3,2-0.1,3.2-0.4,1.5-1.4,1.1-1.7,-0.6-3.6,-3.5-1.8,-2.9-2.5,-6-0.6,-2.5 0,-3.4l0,-0.1 0.7,-0.6q0.9,-0.4 1.9,0.3l0.3,0.2q1.5,0.9 2.9,3.6 1.4,2.7 1.9,5.1z"/><path fill="#dfdfff" d="m28.3,17q -0.7,0.3-0.7,1.7 0,1.4 0.7,3.1 0.8,1.8 2,3.3 1,1.1 1.7,0.8 0.7,-0.3 0.6,-1.6-0.1,-1.7-0.9,-3.7-0.8,-2.1-2.1,-3.3-0.8,-0.6-1.3,-0.4z"/><path fill="#dfdfff" d="m22.6,16.3q -0.4,0.7-0.3,1.9 0.5,3.9 2.5,5.4 0.8,0.7 1.4,0.4 0.6,-0.3 0.5,-1.4 0.1,-1.4-0.7,-3.2Q25.2,17.4 24.1,16.4 23,15.5 22.6,16.3z"/><path fill="#dfffff" d="m24.2,17.8c0.3,0.5 0.4,0.9 0.3,1.2-0.1,0.2-0.4,0.3-0.7,0.3-0.3,-0-0.4,-0-0.6,-0.4-0.2,-0.3-0.4,-0.6-0.3,-1.1 0.1,-0.4 0.5,-0.7 1.2,-0.1z"/><path fill="#dfffff" d="m30.2,20.4c -0.4,0-0.8,0-1.3,-0.6-0.3,-0.4-0.4,-0.8-0.2,-1.1 0.2,-0.5 0.5,-0.5 1,0.3 0.4,0.7 0.6,1.2 0.4,1.5z"/><path fill="#dfffff" d="M20,2.2C20.4,2.8 20.6,3.4 20.4,3.6 20.1,3.8 19.7,3.9 19.2,3.8 18.8,3.6 18.5,3.5 18.3,3.2 17.9,2.6 17.9,2 18.2,1.5 18.4,1 19,1.2 20,2.2z"/><path fill="#dfdfff" d="m17.6,11.2q0.3,-1.2-0.6,-4Q16.6,5.8 15.8,5 14.9,3.9 14.5,4.6 14,5.2 14.3,6.8q0.3,1.6 1.1,3.1 0.8,1.3 1.5,1.7 0.7,0.4 0.8,-0.4z"/><path fill="#dfdfff" d="m34.7,32c -0.1,1.1 0.3,2.4 1.1,3.7 0.9,1.5 1.7,2 2.2,1.5 0.2,-0.3 0.3,-0.8 0.2,-1.6-0.1,-0.8-0.4,-1.6-0.8,-2.4-0.5,-0.9-1.1,-1.5-1.7,-1.8-0.4,-0.2-0.8,-0.3-1,0.1z"/><path fill="#dfffff" d="m35.5,33.2c0,0-0.3,-0.6-0.3,-0.8 0.1,-0.3 0.5,-0.5 0.9,0.1 0.3,0.4 0.4,0.8 0.3,1-0.1,0.3-0.3,0.3-0.6,0.1z"/><path fill="#dfdfff" d="m32.3,29.4q -1.4,-2.4-2.8,-3.5l0,0.1q -1.2,-0.6-1.5,0.7-0.4,1.1 0.1,3.2 0.4,2 1.3,4 1.1,2.2 2.3,3.3 1.5,1.4 2.2,0.5 0.6,-0.9 0.4,-3.1-0.4,-2.3-2,-5z"/><path fill="#dfffff" d="m29,28c0.3,-0.5 0.8,-0 1,0.2 0.4,0.6 0.6,1 0.5,1.3-0.1,0.2-0.3,0.3-0.7,0.2-0.3,-0-0.5,-0.1-0.6,-0.3-0.3,-0.5-0.4,-1-0.2,-1.4z"/><path fill="#dfdfff" d="M36.9,39.1Q35.6,39 36.5,42.1 37.5,45.4 39,46 39.8,46.3 39.9,45.3 40,44.4 39.6,43 39.1,41.5 38.4,40.4 37.6,39.2 36.8,39l0.1,0.1z"/><path fill="#dfffff" d="M37.2,41.4C36.9,40.9 36.8,40.5 36.9,40.3c0.2,-0.4 0.5,-0.2 1,0.4 0.3,0.5 0.4,0.9 0.4,1.1-0.1,0.2-0.4,0.2-0.6,0.1C37.4,41.8 37.2,41.4 37.2,41.4z"/><path fill="#dfffff" d="m15.8,6c0.3,0.5 0.4,0.8 0.3,1C15.9,7.3 15.6,7.2 15.4,7.1 15.3,7 15.1,6.8 15,6.7 14.9,6.5 14.7,6 14.8,5.8 14.9,5.5 15.2,5.5 15.3,5.6 15.4,5.7 15.8,6 15.8,6z"/></g></g></svg>