<?xml version="1.0" encoding="UTF-8" standalone="no"?>
<!-- Created with Inkscape (http://www.inkscape.org/) -->

<svg
   xmlns:dc="http://purl.org/dc/elements/1.1/"
   xmlns:cc="http://creativecommons.org/ns#"
   xmlns:rdf="http://www.w3.org/1999/02/22-rdf-syntax-ns#"
   xmlns:svg="http://www.w3.org/2000/svg"
   xmlns="http://www.w3.org/2000/svg"
   xmlns:sodipodi="http://sodipodi.sourceforge.net/DTD/sodipodi-0.dtd"
   xmlns:inkscape="http://www.inkscape.org/namespaces/inkscape"
   id="svg6212"
   version="1.1"
   inkscape:version="0.48.4 r9939"
   width="1740"
   height="2880"
   sodipodi:docname="DrWhooves.png">
  <metadata
     id="metadata6218">
    <rdf:RDF>
      <cc:Work
         rdf:about="">
        <dc:format>image/svg+xml</dc:format>
        <dc:type
           rdf:resource="http://purl.org/dc/dcmitype/StillImage" />
        <dc:title></dc:title>
      </cc:Work>
    </rdf:RDF>
  </metadata>
  <defs
     id="defs6216" />
  <sodipodi:namedview
     pagecolor="#ffffff"
     bordercolor="#666666"
     borderopacity="1"
     objecttolerance="10"
     gridtolerance="10"
     guidetolerance="10"
     inkscape:pageopacity="0"
     inkscape:pageshadow="2"
     inkscape:window-width="1920"
     inkscape:window-height="1021"
     id="namedview6214"
     showgrid="false"
     inkscape:zoom="0.16388889"
     inkscape:cx="301.04755"
     inkscape:cy="1129.4396"
     inkscape:window-x="0"
     inkscape:window-y="27"
     inkscape:window-maximized="1"
     inkscape:current-layer="svg6212" />
  <path
     style="fill:#d29d4f;fill-opacity:1"
     d="m 147.08125,499.66334 c -1.4401,-7.02016 -4.36153,-91.22443 -6.49205,-187.12059 L 136.71552,138.18611 262.87364,110.06325 C 332.26061,94.595673 429.55048,74.712535 479.07332,65.878491 561.15072,51.237264 741.48664,26.24496 765.17551,26.228307 c 11.84898,-0.0083 42.44516,90.874033 62.11799,184.514053 14.77676,70.33531 14.09952,156.48057 -1.52064,193.42235 l -8.87699,20.99412 -226.35156,22.51236 c -124.49337,12.3818 -241.72075,25.54761 -260.50527,29.25736 -18.78453,3.70975 -67.04549,13.21459 -107.24655,21.12186 l -73.09286,14.37687 -2.61838,-12.76394 z"
     id="path6222"
     inkscape:connector-curvature="0" />
  <path
     style="fill:#d3b367;fill-opacity:1"
     d="m 814.88637,413.47888 c 3.09197,-8.13249 8.71228,-32.53342 12.48958,-54.2243 C 838.41678,295.85348 819.35968,179.23102 778.64281,61.025618 769.63734,34.881754 768.38916,25.005167 773.85593,23.147799 794.7059,16.06389 1062.2266,4.0173651 1145.2428,6.4241555 l 95.5172,2.7692195 15.678,43.598779 c 23.0547,64.112536 29.5377,98.273196 30.2758,159.530986 0.778,64.58301 -8.059,104.79055 -37.1576,169.06278 l -21.2919,47.02889 -209.4999,-0.0748 -209.49979,-0.0748 5.62176,-14.78634 z"
     id="path6224"
     inkscape:connector-curvature="0" />
  <path
     style="fill:#d29d4f;fill-opacity:1"
     d="m 1425.9786,440.22684 c -37.6708,-2.79181 -98.516,-6.73269 -135.2117,-8.75751 l -66.7197,-3.6815 21.6441,-42.11736 c 11.9042,-23.16454 25.7753,-59.28817 30.8248,-80.27472 18.5602,-77.141 7.1697,-189.72256 -27.1199,-268.046228 l -12.4915,-28.5329359 19.8181,2.4611509 c 10.9,1.353633 49.2387,5.447679 85.1971,9.097881 74.7466,7.587649 155.5334,22.616096 165.667,30.818343 4.5967,3.720651 8.102,65.979249 10.533,187.081609 2.0039,99.82786 5.5349,187.68316 7.8466,195.23401 4.788,15.63985 12.9807,15.08946 -99.9879,6.71726 z"
     id="path6226"
     inkscape:connector-curvature="0" />
  <path
     style="fill:#d29d4f;fill-opacity:1"
     d="m 789.63256,2872.7153 c -3.44603,-1.2514 -164.15626,-8.1547 -357.13385,-15.3407 -192.9776,-7.186 -353.89147,-13.9634 -357.586384,-15.0608 -12.281,-3.6479 -57.739193,-198.7533 -68.4272075,-293.6879 l -4.1944533,-37.2566 24.0060788,-3.8627 c 31.321357,-5.0398 313.260366,-5.0166 614.367766,0.051 l 239.49334,4.0303 18.9343,44.2931 c 29.45589,68.9063 39.52249,119.4871 36.06556,181.2149 -2.53528,45.2709 -6.28098,59.9464 -24.13898,94.5762 l -21.13807,40.9904 -46.9913,1.1643 c -25.84521,0.6403 -49.81077,0.1403 -53.2568,-1.1111 z"
     id="path6228"
     inkscape:connector-curvature="0" />
  <path
     style="fill:#d29d4f;fill-opacity:1"
     d="m 1293.6429,2856.2288 c 25.4837,-31.6429 47.8633,-82.3553 56.468,-127.9566 10.141,-53.7431 -0.1439,-112.6179 -29.2372,-167.3647 l -20.7745,-39.0928 77.8394,0.416 c 105.8006,0.5654 357.5075,9.1486 360.5464,12.2946 1.3514,1.399 -10.1696,67.069 -25.6023,145.9334 -15.4325,78.8644 -28.1342,143.9996 -28.226,144.7448 -0.9427,7.6588 -95.0811,21.5452 -215.9933,31.8613 -81.4988,6.9534 -157.891,14.1696 -169.7604,16.036 l -21.5809,3.3934 16.3208,-20.2654 0,0 z"
     id="path6230"
     inkscape:connector-curvature="0" />
  <path
     style="fill:#d3b367;fill-opacity:1"
     d="m 910.96425,2877.2911 -41.13415,-2.1333 17.9638,-35.5861 c 39.16657,-77.5885 38.24375,-161.8104 -2.97836,-271.8251 -11.28223,-30.1104 -19.43101,-55.8282 -18.10839,-57.1509 3.52757,-3.5275 443.29585,11.0893 449.52855,14.9412 9.9148,6.1277 39.9231,72.4614 47.7017,105.4453 9.5264,40.3947 5.1193,109.3967 -9.3953,147.1036 -5.8132,15.1017 -20.2992,42.8507 -32.1912,61.6643 l -21.6219,34.2067 -73.0699,3.9289 c -72.0504,3.8742 -236.48456,3.5654 -316.69485,-0.5946 l 0,0 z"
     id="path6232"
     inkscape:connector-curvature="0" />
  <path
     style="fill:#bfeafb;fill-opacity:1"
     d="m 1415.0345,2517.316 -37.4029,-2.1473 18.1343,-56.1685 c 42.6096,-131.9783 53.0382,-261.0267 28.7003,-355.1516 -6.942,-26.8475 -14.7603,-65.559 -17.374,-86.0256 -9.2209,-72.2038 -61.6642,-139.4251 -122.9794,-157.6338 -17.7075,-5.2586 -37.4769,-9.561 -43.9319,-9.561 -13.7541,0 -33.706,-13.11 -162.2399,-106.6048 -52.7062,-38.3381 -104.82336,-80.8976 -115.81606,-94.5765 -65.54867,-81.5665 -73.69584,-190.9103 -22.22682,-298.308 41.49335,-86.5821 74.48478,-128.0922 219.35448,-275.9934 151.465,-154.63446 217.6194,-260.12195 227.1525,-362.20968 4.0493,-43.36338 1.1217,-47.16451 -42.6518,-55.37646 -20.0602,-3.76331 -25.0563,-8.36522 -38.679,-35.62633 -8.6038,-17.21764 -22.8228,-38.95634 -31.5977,-48.3082 -22.6703,-24.16081 -71.7252,-37.20751 -120.328,-32.0026 -54.7434,5.86252 -87.7681,24.16694 -106.0536,58.78182 l -14.834,28.08092 -85.84402,3.85096 c -47.21424,2.11804 -128.40333,7.9424 -180.42028,12.94303 -94.1747,9.05346 -376.6672,33.82384 -385.74216,33.82384 -9.18728,0 -4.63034,47.7848 10.09134,105.81938 25.43247,100.25778 39.00889,121.6426 172.56404,271.81312 156.00299,175.411 181.03849,207.1762 209.72237,266.0963 40.32397,82.8302 41.8968,161.9597 4.98191,250.6334 -34.38238,82.5901 -89.01932,141.9571 -248.02118,269.493 -106.23951,85.2151 -164.00174,146.6203 -196.06712,208.4326 -37.00319,71.3309 -46.06122,108.6167 -46.09603,189.7461 -0.0342,79.3 11.64515,140.5278 39.85445,208.9361 9.85489,23.8983 15.80858,45.0488 13.23044,47.0011 -2.57815,1.9523 -36.26382,2.1397 -74.85704,0.4164 l -70.1695,-3.1333 -19.16851,-28.6815 c -26.92467,-40.2868 -44.23685,-95.4739 -52.25395,-166.5727 -5.78838,-51.3337 -5.287,-70.4004 3.15936,-120.1448 29.47956,-173.6186 135.3106,-325.9871 284.87327,-410.1415 151.86072,-85.4475 253.2932,-170.3328 284.19608,-237.8335 20.83373,-45.5069 21.5781,-92.8859 2.12457,-135.2249 C 679.46341,1354.5028 592.90396,1270.444 525.9333,1228.2553 301.53037,1086.8912 249.1889,1021.4876 219.07447,844.81811 c -22.27522,-130.6799 5.65025,-271.04759 67.54924,-339.53715 17.81465,-19.71141 21.99941,-21.13436 88.86451,-30.21667 283.09115,-38.45235 545.57628,-51.40713 832.88138,-41.10631 l 170.8474,6.12543 27.4577,30.551 c 86.5052,96.2509 126.523,236.10282 101.3907,354.33511 -24.4362,114.95833 -87.4414,194.10968 -250.8823,315.17538 -105.1373,77.8785 -192.338,165.5145 -216.8828,217.9655 -17.6716,37.7634 -19.0976,45.4031 -17.129,91.7644 1.8168,42.7853 5.291,56.7626 22.565,90.7832 28.2183,55.575 84.3725,114.7595 169.6551,178.8103 184.6219,138.6589 227.5406,178.3831 276.5045,255.9239 87.5032,138.573 103.5944,314.3539 41.2437,450.5458 -20.0539,43.8036 -59.5052,96.1834 -71.3267,94.701 -5.1565,-0.6466 -26.2068,-2.142 -46.7784,-3.323 l 0,0 z"
     id="path6234"
     inkscape:connector-curvature="0" />
  <path
     style="fill:#f8f5ed;fill-opacity:1"
     d="m 1162.6069,838.44889 c -30.922,-6.6925 -54.9256,-20.90518 -80.2006,-47.48725 -35.0604,-36.87353 -49.3352,-70.89436 -48.659,-115.96792 1.2237,-81.5668 40.6091,-122.86767 122.7092,-128.67711 77.6842,-5.49696 114.5454,15.36784 145.0287,82.09163 24.5551,53.74765 26.621,91.25757 7.7983,141.58905 -18.8635,50.44055 -43.0943,69.53834 -90.8325,71.59087 -18.9685,0.81556 -44.0984,-0.59711 -55.8441,-3.13927 z"
     id="path6236"
     inkscape:connector-curvature="0" />
  <path
     style="fill:#f8f5ed;fill-opacity:1"
     d="m 1203.8487,2122.6239 c -59.3363,-21.1773 -96.2589,-71.5263 -96.0975,-131.0418 0.129,-47.534 53.532,-122.0601 94.9054,-132.4441 24.9398,-6.2595 77.9841,1.4049 104.9567,15.1653 74.6661,38.0918 117.5245,151.1151 79.1816,208.8124 -21.5498,32.4275 -59.212,48.2424 -114.125,47.9227 -25.2974,-0.1473 -56.2669,-3.9339 -68.8212,-8.4145 l 0,0 z"
     id="path6238"
     inkscape:connector-curvature="0" />
  <path
     style="fill:#d6cf98;fill-opacity:1"
     d="m 968.79817,2509.2651 c -95.25271,-2.2863 -247.13748,-4.5255 -337.5217,-4.9761 -90.38424,-0.4504 -194.33324,-2.6032 -230.99781,-4.7838 l -66.66285,-3.9646 -15.80227,-34.2948 c -33.80037,-73.3549 -44.49628,-125.6235 -44.59776,-217.9399 -0.0813,-73.9645 1.88963,-91.1501 14.39186,-125.4908 35.77406,-98.2628 98.39544,-169.4502 259.2446,-294.7069 102.032,-79.4544 163.68231,-138.7182 196.4988,-188.892 57.56183,-88.0075 75.85282,-185.4389 50.14599,-267.115 -24.2142,-76.9335 -58.14618,-122.645 -226.94577,-305.7289 C 464.72674,950.93103 419.90864,894.38106 401.98191,853.72426 384.95169,815.10071 364.32093,732.29585 364.26305,702.33363 c -0.0507,-26.26916 0.65879,-26.56995 75.52828,-32.01748 25.97801,-1.89016 144.21803,-11.66945 262.75556,-21.73176 118.53753,-10.06229 241.81502,-18.3001 273.94997,-18.30624 l 58.42714,-0.0111 -2.1683,37.40711 c -1.8837,32.49481 0.5383,42.59108 18.4451,76.8828 32.1321,61.5341 75.3518,89.27486 150.6122,96.67102 35.3559,3.47456 44.7977,2.09733 69.2748,-10.10493 23.3076,-11.61923 32.0181,-21.19294 49.0564,-53.91757 19.3272,-37.12095 20.4749,-42.72749 17.1104,-83.5881 l -3.6064,-43.79832 30.1223,7.43919 30.1224,7.43919 1.9421,29.24431 c 2.2463,33.82526 -15.8684,93.99784 -43.5485,144.65688 -32.796,60.02233 -97.2543,136.58105 -200.855,238.56067 -114.4048,112.6146 -171.8237,182.7345 -208.02666,254.0424 -45.12126,88.874 -54.47467,158.2002 -31.21865,231.3878 21.2601,66.9066 53.74566,102.3208 167.88961,183.0255 55.4039,39.173 111.4642,78.3014 124.5786,86.952 20.2734,13.373 22.082,16.2583 12.0759,19.2662 -47.3216,14.2249 -80.7648,48.1971 -100.5734,102.1645 -23.6511,64.4355 19.6731,146.7922 89.8393,170.7798 13.3447,4.5619 49.5247,8.2768 80.8358,8.2997 48.2652,0.037 60.5745,-2.1277 82.918,-14.5712 14.4313,-8.0371 31.3709,-23.8766 37.6439,-35.1987 6.2729,-11.3222 13.2583,-20.5858 15.5233,-20.5858 6.4862,0 18.813,53.6597 24.2473,105.5504 8.3403,79.6396 -5.6104,177.8926 -41.7268,293.8779 l -16.679,53.5632 -123.3868,-1.1455 c -67.8628,-0.63 -201.321,-3.0161 -296.57373,-5.3024 z"
     id="path6240"
     inkscape:connector-curvature="0" />
</svg>
