<?xml version="1.0" encoding="UTF-8" standalone="no"?>
<svg
   xmlns:dc="http://purl.org/dc/elements/1.1/"
   xmlns:cc="http://creativecommons.org/ns#"
   xmlns:rdf="http://www.w3.org/1999/02/22-rdf-syntax-ns#"
   xmlns:svg="http://www.w3.org/2000/svg"
   xmlns="http://www.w3.org/2000/svg"
   xmlns:sodipodi="http://sodipodi.sourceforge.net/DTD/sodipodi-0.dtd"
   xmlns:inkscape="http://www.inkscape.org/namespaces/inkscape"
   viewBox="-344 -363 718 732"
   width="500"
   height="510"
   id="svg2"
   version="1.1"
   inkscape:version="0.48.1 "
   sodipodi:docname="cmfluttershy.svg">
  <metadata
     id="metadata33">
    <rdf:RDF>
      <cc:Work
         rdf:about="">
        <dc:format>image/svg+xml</dc:format>
        <dc:type
           rdf:resource="http://purl.org/dc/dcmitype/StillImage" />
      </cc:Work>
    </rdf:RDF>
  </metadata>
  <defs
     id="defs31">
    <defs
       id="defmain">
      <g
         id="def907">
        <path
           d="m 138 -176 q 75 -58 130 -75 q 54 -16 44 20 q -11 34 -54 66 q -41 29 -79 33 q 30 15 35 76 q 4 65 -46 77 q -46 12 -67 -41 l -17 -73 q -55 27 -86 32 q -56 8 -68 -38 q -13 -49 36 -82 q 44 -31 91 -23 q -35 -23 -30 -89 q 3 -67 49 -70 q 41 -2 56 73 q 9 50 6 114"
           fill="rgb(244, 182, 209)"
           id="def907:0" />
        <path
           d="m 165 -355 q 8 0 14 8 l 2 4 q 12 19 -2 67 l -17 46 h 2 q 28 -43 57 -69 q 18 -15 32 -16 q 12 0 19 7 q 5 6 3 15 l -8 14 q -9 8 -21 5 l 1 -10 l 14 -2 l 5 -8 l -2 -8 l -11 -3 q -12 1 -26 14 l -34 38 l -22 31 q 1 20 -35 75 q -35 54 -64 77 q 52 -126 80 -153 l -3 -1 l 21 -54 q 11 -46 4 -59 l -3 -4 l -13 -2 l -4 9 q -1 6 3 11 l 2 2 l -7 6 l -3 -2 q -7 -7 -5 -18 q 1 -10 8 -15 l 13 -5"
           fill="rgb(108, 201, 198)"
           id="def907:1" />
        <path
           d="m -168 -2 q 8 -53 35 -29 q 25 22 34 71 q 9 47 -3 82 q 25 -20 79 1 q 58 21 47 69 q -9 44 -62 41 l -68 -16 q 0 59 -9 87 q -15 51 -59 44 q -47 -9 -55 -65 q -9 -50 17 -86 q -34 20 -89 -10 q -55 -30 -39 -70 q 15 -36 85 -19 q 46 12 99 40 q -20 -86 -12 -140"
           fill="rgb(244, 182, 209)"
           id="def907:2" />
        <path
           d="m -229 18 q -4 -23 0 -32 l 14 -14 l 13 2 l 9 13 q 4 12 -4 20 l -7 -5 q 4 -5 2 -13 q -3 -10 -11 -9 l -8 9 l 1 27 q 10 35 38 76 h -1 q 17 7 50 60 q 31 52 41 86 q -86 -92 -99 -130 l -2 2 l -39 -39 q -33 -30 -49 -27 l -3 1 q -9 1 -7 10 l 5 7 l 11 2 l 2 -1 l 4 9 h -3 l -18 -2 l -11 -13 l 2 -13 l 12 -9 l 6 -1 q 19 -1 55 30 l 34 32 v -1 q -27 -40 -37 -77"
           fill="rgb(108, 201, 198)"
           id="def907:3" />
        <path
           d="m 337 140 q 44 -15 36 15 q -7 28 -42 55 q -33 26 -64 31 q 25 11 30 61 q 6 53 -35 65 q -38 10 -56 -32 l -16 -59 q -45 23 -71 28 q -46 8 -57 -29 q -12 -40 27 -69 q 36 -27 75 -21 q -29 -19 -28 -73 q 2 -55 39 -59 q 34 -2 48 59 q 9 39 9 93 q 59 -50 105 -65"
           fill="rgb(244, 182, 209)"
           id="def907:4" />
        <path
           d="m 248 57 q 7 0 12 6 l 3 3 q 9 15 0 56 l -13 39 l 2 -1 q 20 -35 45 -59 q 13 -12 25 -13 l 16 4 q 10 13 -3 25 l -17 4 l 1 -8 l 11 -2 q 8 -6 2 -12 l -9 -3 l -21 11 l -28 33 l -16 26 h -1 q 2 17 -26 64 q -28 44 -50 65 q 38 -104 60 -129 l -1 -1 l 14 -46 q 10 -36 2 -48 l -2 -3 l -11 -1 q -8 8 0 17 l 1 1 l -5 6 l -2 -2 q -6 -7 -5 -15 q 1 -8 6 -13 l 10 -4"
           fill="rgb(108, 201, 198)"
           id="def907:5" />
      </g>
    </defs>
  </defs>
  <sodipodi:namedview
     pagecolor="#ffffff"
     bordercolor="#666666"
     borderopacity="1"
     objecttolerance="10"
     gridtolerance="10"
     guidetolerance="10"
     inkscape:pageopacity="0"
     inkscape:pageshadow="2"
     inkscape:window-width="1280"
     inkscape:window-height="962"
     id="namedview29"
     showgrid="false"
     inkscape:zoom="0.72374459"
     inkscape:cx="130.99109"
     inkscape:cy="338.27257"
     inkscape:window-x="-8"
     inkscape:window-y="-8"
     inkscape:window-maximized="1"
     inkscape:current-layer="svg2" />
  <path
     style="fill:#f4b6d1"
     inkscape:connector-curvature="0"
     d="m 138,-176 q 75,-58 130,-75 54,-16 44,20 -11,34 -54,66 -41,29 -79,33 30,15 35,76 4,65 -46,77 -46,12 -67,-41 L 84,-93 q -55,27 -86,32 -56,8 -68,-38 -13,-49 36,-82 44,-31 91,-23 -35,-23 -30,-89 3,-67 49,-70 41,-2 56,73 9,50 6,114"
     id="path17" />
  <path
     style="fill:#6cc9c6"
     inkscape:connector-curvature="0"
     d="m 165,-355 q 8,0 14,8 l 2,4 q 12,19 -2,67 l -17,46 h 2 q 28,-43 57,-69 18,-15 32,-16 12,0 19,7 5,6 3,15 l -8,14 q -9,8 -21,5 l 1,-10 14,-2 5,-8 -2,-8 -11,-3 q -12,1 -26,14 l -34,38 -22,31 q 1,20 -35,75 -35,54 -64,77 52,-126 80,-153 l -3,-1 21,-54 q 11,-46 4,-59 l -3,-4 -13,-2 -4,9 q -1,6 3,11 l 2,2 -7,6 -3,-2 q -7,-7 -5,-18 1,-10 8,-15 l 13,-5"
     id="path19" />
  <path
     style="fill:#f4b6d1"
     inkscape:connector-curvature="0"
     d="m -168,-2 q 8,-53 35,-29 25,22 34,71 9,47 -3,82 25,-20 79,1 58,21 47,69 -9,44 -62,41 l -68,-16 q 0,59 -9,87 -15,51 -59,44 -47,-9 -55,-65 -9,-50 17,-86 -34,20 -89,-10 -55,-30 -39,-70 15,-36 85,-19 46,12 99,40 -20,-86 -12,-140"
     id="path21" />
  <path
     style="fill:#6cc9c6"
     inkscape:connector-curvature="0"
     d="m -229,18 q -4,-23 0,-32 l 14,-14 13,2 9,13 q 4,12 -4,20 l -7,-5 q 4,-5 2,-13 -3,-10 -11,-9 l -8,9 1,27 q 10,35 38,76 h -1 q 17,7 50,60 31,52 41,86 -86,-92 -99,-130 l -2,2 -39,-39 q -33,-30 -49,-27 l -3,1 q -9,1 -7,10 l 5,7 11,2 2,-1 4,9 h -3 l -18,-2 -11,-13 2,-13 12,-9 6,-1 q 19,-1 55,30 l 34,32 v -1 q -27,-40 -37,-77"
     id="path23" />
  <path
     style="fill:#f4b6d1"
     inkscape:connector-curvature="0"
     d="m 337,140 q 44,-15 36,15 -7,28 -42,55 -33,26 -64,31 25,11 30,61 6,53 -35,65 -38,10 -56,-32 l -16,-59 q -45,23 -71,28 -46,8 -57,-29 -12,-40 27,-69 36,-27 75,-21 -29,-19 -28,-73 2,-55 39,-59 34,-2 48,59 9,39 9,93 59,-50 105,-65"
     id="path25" />
  <path
     style="fill:#6cc9c6"
     inkscape:connector-curvature="0"
     d="m 248,57 q 7,0 12,6 l 3,3 q 9,15 0,56 l -13,39 2,-1 q 20,-35 45,-59 13,-12 25,-13 l 16,4 q 10,13 -3,25 l -17,4 1,-8 11,-2 q 8,-6 2,-12 l -9,-3 -21,11 -28,33 -16,26 h -1 q 2,17 -26,64 -28,44 -50,65 38,-104 60,-129 l -1,-1 14,-46 q 10,-36 2,-48 l -2,-3 -11,-1 q -8,8 0,17 l 1,1 -5,6 -2,-2 q -6,-7 -5,-15 1,-8 6,-13 l 10,-4"
     id="path27" />
</svg>
