<?xml version="1.0" encoding="UTF-8" standalone="no"?>
<!-- Created with Inkscape (http://www.inkscape.org/) -->

<svg
   xmlns:dc="http://purl.org/dc/elements/1.1/"
   xmlns:cc="http://creativecommons.org/ns#"
   xmlns:rdf="http://www.w3.org/1999/02/22-rdf-syntax-ns#"
   xmlns:svg="http://www.w3.org/2000/svg"
   xmlns="http://www.w3.org/2000/svg"
   version="1.1"
   width="2463"
   height="2872"
   id="svg5943">
  <metadata
     id="metadata5949">
    <rdf:RDF>
      <cc:Work
         rdf:about="">
        <dc:format>image/svg+xml</dc:format>
        <dc:type
           rdf:resource="http://purl.org/dc/dcmitype/StillImage" />
        <dc:title></dc:title>
      </cc:Work>
    </rdf:RDF>
  </metadata>
  <defs
     id="defs5947" />
  <g
     transform="matrix(0.31105452,0,0,0.31105452,848.8033,988.73809)"
     id="g5963">
    <path
       d="m 181.86502,1276.5556 c -23.35437,-4.6264 -59.31762,-24.1334 -81.49859,-44.206 C 36.374032,1174.4398 2.3324687,1092.9598 2.3446792,997.73012 2.3566868,904.08085 31.396164,829.18176 91.358276,768.14481 c 22.500174,-22.9035 42.796994,-36.23929 72.435824,-47.59313 27.47416,-10.52462 84.16112,-10.22884 112.81831,0.58865 74.66452,28.18432 127.714,95.0202 152.53028,192.16965 9.78824,38.31842 10.60002,120.28872 1.58994,160.54322 -22.49318,100.493 -89.41909,180.4377 -168.24108,200.9682 -21.82183,5.6839 -56.88155,6.438 -80.62653,1.7342 l 0,0 z"
       id="path5953"
       style="fill:#140a44;fill-opacity:1" />
    <path
       d="m 2130.0526,2179.6787 c -174.9264,-31.3251 -288.5533,-87.8874 -344.985,-171.7301 -28.5154,-42.3664 -60.152,-129.5233 -74.5702,-205.4367 -5.0639,-26.6618 -6.5042,-127.4259 -2.278,-159.3687 l 2.5947,-19.6119 -20.0643,-2.3205 c -76.46,-8.8428 -135.8943,-41.3382 -199.4346,-109.0399 l -31.1331,-33.1721 -29.2642,29.2555 c -89.1593,89.1331 -172.556,128.2975 -273.1933,128.296 -141.5379,0 -263.36805,-72.6721 -328.01981,-195.6588 -28.95387,-55.0789 -40.94841,-94.2813 -55.58863,-181.6837 -9.94118,-59.349 -10.67352,-69.2113 -8.95082,-120.5402 2.49949,-74.4735 13.84903,-119.5252 46.41419,-184.2396 16.81154,-33.40835 53.05742,-86.37138 71.1795,-104.00854 11.97916,-11.6586 11.3423,-12.55836 -23.50943,-33.21408 C 812.19558,789.31766 788.4148,770.85867 751.76018,733.77046 685.82961,667.06005 646.3888,586.71337 627.22009,480.06423 c -3.07507,-17.10884 -4.62872,-52.88463 -4.47608,-103.07056 0.19177,-63.04973 1.62179,-84.71643 7.95573,-120.54014 C 646.93116,164.65136 669.90718,91.311026 703.0588,25.480718 L 715.49001,0.79561765 731.89063,2.7524553 c 9.02034,1.0762607 30.55098,2.8965126 47.84587,4.0450041 46.44874,3.0844937 136.4851,14.4675596 192.18065,24.2969056 170.73355,30.131644 409.64205,117.575835 553.81845,202.706075 165.3052,97.60587 275.9882,198.26673 359.1438,326.62389 14.3167,22.09903 29.0192,44.50066 32.6722,49.7814 3.653,5.28075 22.7313,32.79534 42.3963,61.14356 79.0302,113.9264 129.0945,268.5443 149.5826,461.96851 4.5306,42.772 5.681,191.7279 3.6842,477.0287 -1.386,198.023 2.4976,278.7471 19.0781,396.5596 7.9348,56.3802 18.1753,103.0063 31.382,142.8861 6.6155,19.9769 11.6022,36.6368 11.0815,37.022 -0.5207,0.3851 -20.6374,-2.8258 -44.7037,-7.1355 z m -583.4013,-883.4822 c 62.7217,-10.3732 113.1066,-31.2338 157.1613,-65.0688 119.0251,-91.4139 178.2548,-232.99258 178.2548,-426.08804 0,-162.21919 -39.8831,-278.63337 -122.7997,-358.43769 -31.5214,-30.3382 -60.4211,-50.09791 -102.1296,-69.82932 -52.3348,-24.75853 -79.6666,-30.97928 -136.6911,-31.11113 -30.1425,-0.0697 -56.2897,1.72533 -68.1314,4.67727 -22.8945,5.70721 -73.3904,25.00373 -73.3292,28.02209 0.024,1.16969 10.7033,6.44048 23.7325,11.71283 54.8186,22.18278 111.4839,70.95566 136.0751,117.12226 22.8729,42.94091 30.186,74.28358 30.3543,130.09454 0.1646,54.50113 -4.7157,84.86173 -19.9368,124.03406 -32.3404,83.22948 -82.1735,136.35841 -149.0224,158.87817 -96.3556,32.45985 -180.1512,-14.36381 -244.8243,-136.80391 -18.9357,-35.84923 -20.8658,-34.73163 -20.948,12.12913 -0.2072,118.17092 32.5178,233.59674 92.3323,325.67014 89.315,137.4838 195.5025,195.5723 319.9022,174.9984 z"
       id="path5955"
       style="fill:#140a44;fill-opacity:1" />
    <path
       d="m 1391.9286,2095.4408 c -25.517,-8.8145 -54.8929,-38.6737 -72.4954,-73.6882 l -14.4921,-28.8275 -14.2292,12.1797 c -24.549,21.013 -50.2545,20.5417 -72.1185,-1.3223 -32.0207,-32.0207 -42.7593,-83.6854 -28.2655,-135.9882 12.0786,-43.5872 34.5931,-70.5909 58.7351,-70.4465 22.9388,0.1371 54.5702,20.3142 60.7067,38.7235 0.7552,2.2657 13.9287,-8.4363 29.2744,-23.782 24.5499,-24.5499 31.3364,-29.226 56.498,-38.9294 35.4831,-13.6837 48.2297,-13.7951 75.7479,-0.6618 66.0118,31.5045 105.1164,127.3558 84.1469,206.2566 -11.9101,44.8132 -42.8396,91.7779 -73.131,111.0453 -11.951,7.6017 -19.0899,9.2489 -43.966,10.1446 -20.9216,0.7534 -34.6374,-0.6367 -46.4113,-4.7038 z"
       id="path5957"
       style="fill:#140a44;fill-opacity:1" />
    <path
       d="m 2060.2572,2653.8331 c -17.4711,-2.6982 -42.7945,-14.6734 -55.4184,-26.2068 -14.6253,-13.3618 -34.8171,-46.1387 -42.5472,-69.0658 -9.3488,-27.7282 -10.3727,-76.2609 -2.1873,-103.6798 12.5928,-42.1824 41.8285,-77.8696 79.4782,-97.0168 15.4644,-7.8646 23.4028,-9.5968 43.3851,-9.4668 98.393,0.6402 161.3208,125.3429 114.1176,226.1441 -13.9913,29.8779 -41.7634,62.0094 -61.6935,71.3777 -17.8714,8.4005 -50.0434,11.7894 -75.1345,7.9142 z"
       id="path5959"
       style="fill:#140a44;fill-opacity:1" />
    <path
       d="m 2350.3025,2862.2959 c -31.3104,-16.212 -51.6159,-57.7157 -47.9603,-98.0295 5.5927,-61.6777 60.6911,-101.9937 109.2486,-79.9382 45.6693,20.7436 64.6009,90.8973 37.869,140.3285 -21.1,39.0169 -64.6037,55.5305 -99.1573,37.6392 z"
       id="path5961"
       style="fill:#140a44;fill-opacity:1" />
  </g>
</svg>
