<?xml version="1.0" encoding="UTF-8" standalone="no"?>
<!-- Created with Inkscape (http://www.inkscape.org/) -->

<svg
   xmlns:dc="http://purl.org/dc/elements/1.1/"
   xmlns:cc="http://creativecommons.org/ns#"
   xmlns:rdf="http://www.w3.org/1999/02/22-rdf-syntax-ns#"
   xmlns:svg="http://www.w3.org/2000/svg"
   xmlns="http://www.w3.org/2000/svg"
   xmlns:sodipodi="http://sodipodi.sourceforge.net/DTD/sodipodi-0.dtd"
   xmlns:inkscape="http://www.inkscape.org/namespaces/inkscape"
   width="765"
   height="1052.1"
   id="svg10846"
   version="1.1"
   inkscape:version="0.48.4 r9939"
   sodipodi:docname="Lyra.tex">
  <defs
     id="defs10848" />
  <sodipodi:namedview
     id="base"
     pagecolor="#ffffff"
     bordercolor="#666666"
     borderopacity="1.0"
     inkscape:pageopacity="0.0"
     inkscape:pageshadow="2"
     inkscape:zoom="0.24748737"
     inkscape:cx="411.91785"
     inkscape:cy="476.63189"
     inkscape:document-units="px"
     inkscape:current-layer="layer1"
     showgrid="false"
     units="in"
     inkscape:window-width="959"
     inkscape:window-height="1021"
     inkscape:window-x="960"
     inkscape:window-y="27"
     inkscape:window-maximized="0" />
  <metadata
     id="metadata10851">
    <rdf:RDF>
      <cc:Work
         rdf:about="">
        <dc:format>image/svg+xml</dc:format>
        <dc:type
           rdf:resource="http://purl.org/dc/dcmitype/StillImage" />
        <dc:title></dc:title>
      </cc:Work>
    </rdf:RDF>
  </metadata>
  <g
     inkscape:label="Layer 1"
     inkscape:groupmode="layer"
     id="layer1"
     transform="translate(0,-0.25975)">
    <g
       transform="matrix(4.0137055,0,0,4.0136231,8656.7217,1241.5873)"
       id="g5801"
       style="display:inline">
      <path
         inkscape:connector-curvature="0"
         d="m -2081,-256.13781 -22.6005,146.44975"
         id="path5795"
         style="fill:none;stroke:#b3ad93;stroke-width:4;stroke-linecap:butt;stroke-linejoin:miter;stroke-miterlimit:4;stroke-opacity:1;stroke-dasharray:none" />
      <path
         inkscape:connector-curvature="0"
         d="m -2062.5,-257.13781 5,160.499997"
         id="path5797"
         style="fill:none;stroke:#b3ad93;stroke-width:4;stroke-linecap:butt;stroke-linejoin:miter;stroke-miterlimit:4;stroke-opacity:1;stroke-dasharray:none" />
      <path
         inkscape:connector-curvature="0"
         d="m -2041.5,-256.63781 30.1716,142.91421"
         id="path5799"
         style="fill:none;stroke:#b3ad93;stroke-width:4;stroke-linecap:butt;stroke-linejoin:miter;stroke-miterlimit:4;stroke-opacity:1;stroke-dasharray:none" />
      <path
         inkscape:connector-curvature="0"
         d="m -2110.5559,-270.28684 103.6518,3.25 3.0355,21.04899 -113.7154,-3.75 z"
         id="path5769"
         style="fill:#e2c24b;fill-opacity:1;stroke:#b3ad93;stroke-width:4;stroke-linecap:butt;stroke-linejoin:miter;stroke-miterlimit:4;stroke-opacity:1;stroke-dasharray:none" />
      <path
         inkscape:connector-curvature="0"
         d="m -2126.8393,-266.32758 c -5.2409,18.14523 -31.8581,103.2021 -5.98,151.60424 25.1153,46.975461 113.8269,47.383391 144.4361,4.82842 24.4141,-33.94213 -2.0089,-107.59764 -9.2076,-150.85728 -1.0951,-6.58101 0.4157,3.27509 2.9651,13.13471 24.2236,-0.18276 33.2097,-19.15971 20.2676,-36.55717 -15.452,-20.77143 -47.504,-11.61209 -49.8094,6.19544 -3.2284,24.93736 50.5533,124.14669 10.8995,155.11374 -32.4608,25.34977 -60.8375,23.36633 -94.8026,-1.5 -40.1356,-29.38381 4.2437,-112.14892 7.3285,-149.19953 2.1022,-25.24898 -39.2327,-34.98583 -51.6264,-8.13441 -11.2639,24.40364 16.4041,31.06707 21.3708,29.96169 1.8826,-6.19469 4.6067,-16.14193 4.1584,-14.58985 z"
         id="path5767"
         style="fill:#e2c24b;fill-opacity:1;stroke:#b3ad93;stroke-width:4;stroke-linecap:butt;stroke-linejoin:miter;stroke-miterlimit:4;stroke-opacity:1;stroke-dasharray:none" />
      <path
         inkscape:connector-curvature="0"
         d="m -2127.4688,-264.04406 c 0,0 2.7742,-8.44608 0.5899,-11.52497 -2.2726,-3.20325 -7.4481,-4.20897 -9.9336,5.55622"
         id="path5771"
         style="fill:none;stroke:#b3ad93;stroke-width:4;stroke-linecap:butt;stroke-linejoin:miter;stroke-miterlimit:4;stroke-opacity:1;stroke-dasharray:none" />
      <path
         inkscape:connector-curvature="0"
         d="m -1997.4577,-260.12978 c 0,0 -1.9617,-7.88358 0.2226,-10.96247 2.2726,-3.20325 7.1981,-4.20897 9.6836,5.55622"
         id="path5771-2"
         style="fill:none;stroke:#b3ad93;stroke-width:4;stroke-linecap:butt;stroke-linejoin:miter;stroke-miterlimit:4;stroke-opacity:1;stroke-dasharray:none;display:inline" />
    </g>
  </g>
</svg>
