<?xml version="1.0" encoding="UTF-8" standalone="no"?>
<svg
   xmlns:dc="http://purl.org/dc/elements/1.1/"
   xmlns:cc="http://creativecommons.org/ns#"
   xmlns:rdf="http://www.w3.org/1999/02/22-rdf-syntax-ns#"
   xmlns:svg="http://www.w3.org/2000/svg"
   xmlns="http://www.w3.org/2000/svg"
   xmlns:sodipodi="http://sodipodi.sourceforge.net/DTD/sodipodi-0.dtd"
   xmlns:inkscape="http://www.inkscape.org/namespaces/inkscape"
   viewBox="-289 -510 589 1145"
   width="500"
   height="972"
   id="svg2"
   version="1.1"
   inkscape:version="0.48.1 "
   sodipodi:docname="cmrainbowdash.svg">
  <metadata
     id="metadata30">
    <rdf:RDF>
      <cc:Work
         rdf:about="">
        <dc:format>image/svg+xml</dc:format>
        <dc:type
           rdf:resource="http://purl.org/dc/dcmitype/StillImage" />
      </cc:Work>
    </rdf:RDF>
  </metadata>
  <defs
     id="defs28">
    <defs
       id="defmain">
      <g
         id="def9">
        <path
           d="m 71 -137 l -3 22 l -39 29 l -41 41 l -31 39 l -14 18 l 38 -19 l 42 -21 l 20 -10 q -39 58 -61 129 q -22 72 -31 148 q -9 75 -10 146 l 3 127 l 8 89 l 3 34 q -57 -119 -80 -211 q -23 -90 -26 -154 q -3 -62 3 -94 l 6 -31 l -45 30 l -47 41 l -38 34 l -14 13 q -8 -114 8 -214 q 17 -100 46 -181 q 29 -81 60 -140 q 30 -58 52 -89 l 22 -32 q 67 21 104 55 q 37 34 51 73 q 15 38 16 73 l -2 55"
           fill="rgb(25, 152, 213)"
           id="def9:0" />
        <path
           d="m -98 -393 q 67 21 103 55 q 37 34 52 72 q -31 20 -59 60 l -53 86 l -41 92 l -28 72 l -10 31 l 101 -52 q -30 71 -40 154 q -11 82 -8 163 l 12 148 l 17 107 l 7 40 q -57 -119 -80 -211 q -23 -90 -26 -154 q -3 -62 3 -94 l 6 -31 l -45 30 l -47 41 l -38 34 l -14 13 q -8 -114 8 -214 q 17 -100 46 -181 q 29 -81 60 -140 q 30 -58 52 -89 l 22 -32"
           fill="rgb(255, 233, 107)"
           id="def9:1" />
        <path
           d="m -19 -357 q -49 54 -85 121 q -35 66 -59 134 l -37 127 l -20 93 l -5 39 l 31 -19 l 44 -29 l 39 -25 l 17 -11 q -23 68 -24 145 q -2 77 9 150 l 25 134 l 27 97 l 12 36 q -57 -119 -80 -211 q -23 -90 -26 -154 q -3 -62 3 -94 l 6 -31 l -45 30 l -47 41 l -38 34 l -14 13 q -8 -114 8 -214 q 17 -100 46 -181 q 29 -81 60 -140 q 30 -58 52 -89 l 22 -32 q 47 15 79 36"
           fill="rgb(238, 64, 67)"
           id="def9:2" />
        <path
           d="m 240 -422 q 19 35 14 74 q -5 39 -39 67 q 20 0 42 26 q 23 25 34 64 q 11 39 0 81 q -11 42 -57 76 q -48 29 -83 29 q -35 -1 -57 -20 q -22 -19 -33 -47 q -11 -28 -13 -55 q -2 -27 4 -43 l -8 10 l -24 22 q -15 11 -35 17 l -44 1 q -22 -8 -28 -29 q -5 -21 1 -46 l 23 -49 q 14 -22 32 -33 l -19 -9 l -38 -25 q -21 -16 -31 -43 q -10 -26 4 -62 q 23 -49 59 -68 q 36 -20 73 -15 q 38 5 63 31 l 99 -4 q 41 16 61 50"
           fill="rgb(255, 255, 255)"
           id="def9:3" />
        <path
           d="m 244 -336 q 11 -30 0 -63 q -9 -28 -35 -51 q -27 -22 -72 -23 l -30 3 l -23 9 l -13 11 q -20 30 -15 53 q 6 22 31 31 l 8 2 l -7 5 l -24 29 q -13 21 -17 49 q -3 34 22 60 q 13 15 28 21 l 28 2 q 20 -6 26 -24 l -1 -18 l -5 -19 l -3 -9 q 24 23 17 49 q -6 23 -31 30 l -13 1 l -30 -6 l -28 -20 q -27 -30 -24 -67 q 3 -26 18 -48 l 26 -32 q -12 -5 -22 -14 q -9 -10 -12 -21 q -4 -12 3 -31 q 6 -21 27 -40 l -32 -21 l -39 -7 q -37 0 -67 22 q -30 21 -46 59 q -15 36 -2 66 q 12 23 31 38 q 19 14 35 21 l 17 8 l 9 3 l -8 5 l -29 29 l -21 43 q -8 23 -6 44 q 4 26 27 33 l 20 3 q 24 -2 43 -14 l 32 -24 l 11 -14 l 20 -26 l -12 31 q -5 12 -4 33 q 0 20 6 43 q 6 23 20 43 q 27 39 71 40 q 37 -1 83 -28 q 37 -27 50 -59 q 11 -31 10 -58 q -2 -27 -8 -42 q -11 -33 -29 -52 l -33 -27 l -15 -9 q 26 -21 37 -52 m -43 -139 l 38 30 l 22 38 q 10 33 -3 66 q -14 32 -39 55 q 20 7 42 31 q 21 24 32 56 l 7 46 q 2 30 -11 64 q -14 34 -54 64 q -48 29 -87 29 q -49 0 -79 -43 q -16 -26 -23 -58 q -5 -32 -2 -56 l -34 26 q -21 13 -48 15 l -23 -4 q -28 -8 -33 -40 l 5 -42 l 19 -44 l 29 -33 l -25 -13 l -31 -22 q -15 -14 -24 -33 l -10 -39 q -3 -21 5 -41 q 18 -41 50 -64 q 31 -23 71 -23 l 47 11 q 24 11 39 26 l 30 -11 l 34 -3 l 56 12"
           fill="rgb(25, 152, 213)"
           id="def9:4" />
      </g>
    </defs>
  </defs>
  <sodipodi:namedview
     pagecolor="#ffffff"
     bordercolor="#666666"
     borderopacity="1"
     objecttolerance="10"
     gridtolerance="10"
     guidetolerance="10"
     inkscape:pageopacity="0"
     inkscape:pageshadow="2"
     inkscape:window-width="1280"
     inkscape:window-height="962"
     id="namedview26"
     showgrid="false"
     inkscape:zoom="0.26851852"
     inkscape:cx="250"
     inkscape:cy="486"
     inkscape:window-x="-8"
     inkscape:window-y="-8"
     inkscape:window-maximized="1"
     inkscape:current-layer="svg2" />
  <path
     style="fill:#1998d5"
     inkscape:connector-curvature="0"
     d="m 71,-137 -3,22 -39,29 -41,41 -31,39 -14,18 38,-19 42,-21 20,-10 Q 4,20 -18,91 q -22,72 -31,148 -9,75 -10,146 l 3,127 8,89 3,34 q -57,-119 -80,-211 -23,-90 -26,-154 -3,-62 3,-94 l 6,-31 -45,30 -47,41 -38,34 -14,13 q -8,-114 8,-214 17,-100 46,-181 29,-81 60,-140 30,-58 52,-89 l 22,-32 q 67,21 104,55 37,34 51,73 15,38 16,73 l -2,55"
     id="path16" />
  <path
     style="fill:#ffe96b"
     inkscape:connector-curvature="0"
     d="m -98,-393 q 67,21 103,55 37,34 52,72 -31,20 -59,60 l -53,86 -41,92 -28,72 -10,31 101,-52 q -30,71 -40,154 -11,82 -8,163 l 12,148 17,107 7,40 q -57,-119 -80,-211 -23,-90 -26,-154 -3,-62 3,-94 l 6,-31 -45,30 -47,41 -38,34 -14,13 q -8,-114 8,-214 17,-100 46,-181 29,-81 60,-140 30,-58 52,-89 l 22,-32"
     id="path18" />
  <path
     style="fill:#ee4043"
     inkscape:connector-curvature="0"
     d="m -19,-357 q -49,54 -85,121 -35,66 -59,134 l -37,127 -20,93 -5,39 31,-19 44,-29 39,-25 17,-11 q -23,68 -24,145 -2,77 9,150 l 25,134 27,97 12,36 q -57,-119 -80,-211 -23,-90 -26,-154 -3,-62 3,-94 l 6,-31 -45,30 -47,41 -38,34 -14,13 q -8,-114 8,-214 17,-100 46,-181 29,-81 60,-140 30,-58 52,-89 l 22,-32 q 47,15 79,36"
     id="path20" />
  <path
     style="fill:#ffffff"
     inkscape:connector-curvature="0"
     d="m 240,-422 q 19,35 14,74 -5,39 -39,67 20,0 42,26 23,25 34,64 11,39 0,81 -11,42 -57,76 -48,29 -83,29 -35,-1 -57,-20 -22,-19 -33,-47 -11,-28 -13,-55 -2,-27 4,-43 l -8,10 -24,22 q -15,11 -35,17 l -44,1 q -22,-8 -28,-29 -5,-21 1,-46 l 23,-49 q 14,-22 32,-33 l -19,-9 -38,-25 q -21,-16 -31,-43 -10,-26 4,-62 23,-49 59,-68 36,-20 73,-15 38,5 63,31 l 99,-4 q 41,16 61,50"
     id="path22" />
  <path
     style="fill:#1998d5"
     inkscape:connector-curvature="0"
     d="m 244,-336 q 11,-30 0,-63 -9,-28 -35,-51 -27,-22 -72,-23 l -30,3 -23,9 -13,11 q -20,30 -15,53 6,22 31,31 l 8,2 -7,5 -24,29 q -13,21 -17,49 -3,34 22,60 13,15 28,21 l 28,2 q 20,-6 26,-24 l -1,-18 -5,-19 -3,-9 q 24,23 17,49 -6,23 -31,30 l -13,1 -30,-6 -28,-20 q -27,-30 -24,-67 3,-26 18,-48 l 26,-32 q -12,-5 -22,-14 -9,-10 -12,-21 -4,-12 3,-31 6,-21 27,-40 l -32,-21 -39,-7 q -37,0 -67,22 -30,21 -46,59 -15,36 -2,66 12,23 31,38 19,14 35,21 l 17,8 9,3 -8,5 -29,29 -21,43 q -8,23 -6,44 4,26 27,33 l 20,3 q 24,-2 43,-14 l 32,-24 11,-14 20,-26 -12,31 q -5,12 -4,33 0,20 6,43 6,23 20,43 27,39 71,40 37,-1 83,-28 37,-27 50,-59 11,-31 10,-58 -2,-27 -8,-42 -11,-33 -29,-52 l -33,-27 -15,-9 q 26,-21 37,-52 m -43,-139 38,30 22,38 q 10,33 -3,66 -14,32 -39,55 20,7 42,31 21,24 32,56 l 7,46 q 2,30 -11,64 -14,34 -54,64 Q 187,4 148,4 99,4 69,-39 53,-65 46,-97 q -5,-32 -2,-56 l -34,26 q -21,13 -48,15 l -23,-4 q -28,-8 -33,-40 l 5,-42 19,-44 29,-33 -25,-13 -31,-22 q -15,-14 -24,-33 l -10,-39 q -3,-21 5,-41 18,-41 50,-64 31,-23 71,-23 l 47,11 q 24,11 39,26 l 30,-11 34,-3 56,12"
     id="path24" />
</svg>
