<?xml version="1.0" encoding="UTF-8" standalone="no"?>
<svg
   xmlns:dc="http://purl.org/dc/elements/1.1/"
   xmlns:cc="http://creativecommons.org/ns#"
   xmlns:rdf="http://www.w3.org/1999/02/22-rdf-syntax-ns#"
   xmlns:svg="http://www.w3.org/2000/svg"
   xmlns="http://www.w3.org/2000/svg"
   xmlns:sodipodi="http://sodipodi.sourceforge.net/DTD/sodipodi-0.dtd"
   xmlns:inkscape="http://www.inkscape.org/namespaces/inkscape"
   viewBox="-237 -501 540 1047"
   width="500"
   height="970"
   id="svg2"
   version="1.1"
   inkscape:version="0.48.1 "
   sodipodi:docname="cmrarity.svg">
  <metadata
     id="metadata105">
    <rdf:RDF>
      <cc:Work
         rdf:about="">
        <dc:format>image/svg+xml</dc:format>
        <dc:type
           rdf:resource="http://purl.org/dc/dcmitype/StillImage" />
      </cc:Work>
    </rdf:RDF>
  </metadata>
  <defs
     id="defs103">
    <defs
       id="defmain">
      <g
         id="def1199">
        <path
           d="m -124 -228 l 110 -273 l 119 235 l -109 265 l -120 -227"
           fill="rgb(126, 210, 246)"
           id="def1199:0" />
        <path
           d="m -7 -292 q -9 -2 -18 10 l -15 31 l -2 16 q -3 22 4 41 q 5 18 15 21 h 4 q 8 2 17 -10 l 15 -31 l 2 -16 q 4 -24 -3 -41 q -7 -18 -18 -19 l -1 -2 m 5 -10 q 36 10 29 74 l -3 17 q -12 52 -45 48 h -4 q -15 -5 -24 -26 q -8 -20 -5 -48 l 4 -15 q 12 -54 44 -50 h 4"
           fill="rgb(25, 152, 213)"
           id="def1199:1" />
        <path
           d="m -6 -485 l 6 184 h -11 l -7 -189 l 4 -11 l 8 16"
           fill="rgb(25, 152, 213)"
           id="def1199:2" />
        <path
           d="m 24 -263 l -9 -7 l 50 -69 l 5 4 l 2 5 l -48 67"
           fill="rgb(25, 152, 213)"
           id="def1199:3" />
        <path
           d="m 103 -263 l -81 30 l -3 -11 l 82 -29 l 4 7 l -2 3"
           fill="rgb(25, 152, 213)"
           id="def1199:4" />
        <path
           d="m 12 -189 l 5 -10 l 48 28 l -3 10 l -50 -28"
           fill="rgb(25, 152, 213)"
           id="def1199:5" />
        <path
           d="m -7 -6 l -7 -165 h 12 l 5 153 l -7 17 l -3 -5"
           fill="rgb(25, 152, 213)"
           id="def1199:6" />
        <path
           d="m -124 -232 l 74 -5 l 1 11 l -72 5 l -3 -7 v -4"
           fill="rgb(25, 152, 213)"
           id="def1199:7" />
        <path
           d="m -85 -328 l 50 52 l -8 6 l -45 -48 l 3 -10"
           fill="rgb(25, 152, 213)"
           id="def1199:8" />
        <path
           d="m -76 -135 l 31 -50 l 8 5 l -32 57 l -7 -12"
           fill="rgb(25, 152, 213)"
           id="def1199:9" />
        <path
           d="m 74 129 l 110 -273 l 119 235 l -109 265 l -120 -227"
           fill="rgb(126, 210, 246)"
           id="def1199:a" />
        <path
           d="m 196 55 q 36 10 29 74 l -3 17 q -12 52 -45 48 h -3 q -18 -5 -24 -26 q -7 -22 -4 -48 l 2 -15 q 12 -54 45 -50 h 3 m -3 10 q -23 -4 -35 41 l -2 16 q -3 24 4 41 q 7 17 17 21 h 2 q 22 3 33 -42 l 1 -13 q 4 -23 -3 -43 q -5 -18 -16 -19 l -1 -2"
           fill="rgb(25, 152, 213)"
           id="def1199:b" />
        <path
           d="m 193 -128 l 5 184 h -10 l -7 -189 l 3 -11 l 9 16"
           fill="rgb(25, 152, 213)"
           id="def1199:c" />
        <path
           d="m 222 94 l -9 -5 l 50 -71 l 6 4 l 1 5 l -48 67"
           fill="rgb(25, 152, 213)"
           id="def1199:d" />
        <path
           d="m 301 94 l -81 29 l -3 -10 l 83 -29 l 3 7 l -2 3"
           fill="rgb(25, 152, 213)"
           id="def1199:e" />
        <path
           d="m 210 168 l 5 -8 l 48 26 l -3 10 l -50 -28"
           fill="rgb(25, 152, 213)"
           id="def1199:f" />
        <path
           d="m 191 351 l -7 -165 h 12 l 5 153 l -7 17 l -3 -5"
           fill="rgb(25, 152, 213)"
           id="def1199:g" />
        <path
           d="m 74 125 l 76 -5 v 10 l -73 6 l -3 -7 v -4"
           fill="rgb(25, 152, 213)"
           id="def1199:h" />
        <path
           d="m 115 29 l 48 51 l -8 7 l -45 -48 l 5 -10"
           fill="rgb(25, 152, 213)"
           id="def1199:i" />
        <path
           d="m 122 222 l 31 -50 l 9 5 l -33 57 l -7 -12"
           fill="rgb(25, 152, 213)"
           id="def1199:j" />
        <path
           d="m -124 46 l 118 234 l -108 266 l -123 -228 l 113 -272"
           fill="rgb(126, 210, 246)"
           id="def1199:k" />
        <path
           d="m -135 265 l -15 31 l -4 15 q -2 25 5 42 q 6 17 16 19 l 2 1 q 8 2 19 -10 q 10 -12 13 -31 l 4 -15 q 2 -25 -4 -42 q -7 -17 -17 -19 l -2 -1 q -8 -2 -17 10 m 47 7 q 7 20 3 46 l -2 16 q -15 52 -46 50 h -2 q -36 -11 -29 -74 l 3 -16 q 12 -52 45 -50 h 4 q 17 5 24 28"
           fill="rgb(25, 152, 213)"
           id="def1199:l" />
        <path
           d="m -118 61 l 7 185 h -10 l -7 -190 l 4 -10 l 6 15"
           fill="rgb(25, 152, 213)"
           id="def1199:m" />
        <path
           d="m -87 284 l -8 -7 l 50 -69 l 3 3 l 4 6 l -49 67"
           fill="rgb(25, 152, 213)"
           id="def1199:n" />
        <path
           d="m -7 284 l -81 29 l -4 -10 l 83 -30 l 3 7 l -1 4"
           fill="rgb(25, 152, 213)"
           id="def1199:o" />
        <path
           d="m -99 358 l 6 -10 l 48 27 l -4 11 l -50 -28"
           fill="rgb(25, 152, 213)"
           id="def1199:p" />
        <path
           d="m -118 541 l -6 -166 h 10 l 7 154 l -7 17 l -4 -5"
           fill="rgb(25, 152, 213)"
           id="def1199:q" />
        <path
           d="m -235 315 l 74 -5 l 2 10 l -72 5 l -6 -7 l 2 -3"
           fill="rgb(25, 152, 213)"
           id="def1199:r" />
        <path
           d="m -195 218 l 50 52 l -9 7 l -45 -48 l 4 -11"
           fill="rgb(25, 152, 213)"
           id="def1199:s" />
        <path
           d="m -187 411 l 31 -50 l 9 6 l -34 56 l -6 -12"
           fill="rgb(25, 152, 213)"
           id="def1199:t" />
      </g>
    </defs>
  </defs>
  <sodipodi:namedview
     pagecolor="#ffffff"
     bordercolor="#666666"
     borderopacity="1"
     objecttolerance="10"
     gridtolerance="10"
     guidetolerance="10"
     inkscape:pageopacity="0"
     inkscape:pageshadow="2"
     inkscape:window-width="1280"
     inkscape:window-height="962"
     id="namedview101"
     showgrid="false"
     inkscape:zoom="0.26907216"
     inkscape:cx="250"
     inkscape:cy="485"
     inkscape:window-x="-8"
     inkscape:window-y="-8"
     inkscape:window-maximized="1"
     inkscape:current-layer="svg2" />
  <path
     style="fill:#7ed2f6"
     inkscape:connector-curvature="0"
     d="M -124,-228 -14,-501 105,-266 -4,-1 -124,-228"
     id="path41" />
  <path
     style="fill:#1998d5"
     inkscape:connector-curvature="0"
     d="m -7,-292 q -9,-2 -18,10 l -15,31 -2,16 q -3,22 4,41 5,18 15,21 h 4 q 8,2 17,-10 l 15,-31 2,-16 q 4,-24 -3,-41 -7,-18 -18,-19 l -1,-2 m 5,-10 q 36,10 29,74 l -3,17 q -12,52 -45,48 h -4 q -15,-5 -24,-26 -8,-20 -5,-48 l 4,-15 q 12,-54 44,-50 h 4"
     id="path43" />
  <path
     style="fill:#1998d5"
     inkscape:connector-curvature="0"
     d="m -6,-485 6,184 h -11 l -7,-189 4,-11 8,16"
     id="path45" />
  <path
     style="fill:#1998d5"
     inkscape:connector-curvature="0"
     d="m 24,-263 -9,-7 50,-69 5,4 2,5 -48,67"
     id="path47" />
  <path
     style="fill:#1998d5"
     inkscape:connector-curvature="0"
     d="m 103,-263 -81,30 -3,-11 82,-29 4,7 -2,3"
     id="path49" />
  <path
     style="fill:#1998d5"
     inkscape:connector-curvature="0"
     d="m 12,-189 5,-10 48,28 -3,10 -50,-28"
     id="path51" />
  <path
     style="fill:#1998d5"
     inkscape:connector-curvature="0"
     d="m -7,-6 -7,-165 h 12 l 5,153 -7,17 -3,-5"
     id="path53" />
  <path
     style="fill:#1998d5"
     inkscape:connector-curvature="0"
     d="m -124,-232 74,-5 1,11 -72,5 -3,-7 v -4"
     id="path55" />
  <path
     style="fill:#1998d5"
     inkscape:connector-curvature="0"
     d="m -85,-328 50,52 -8,6 -45,-48 3,-10"
     id="path57" />
  <path
     style="fill:#1998d5"
     inkscape:connector-curvature="0"
     d="m -76,-135 31,-50 8,5 -32,57 -7,-12"
     id="path59" />
  <path
     style="fill:#7ed2f6"
     inkscape:connector-curvature="0"
     d="M 74,129 184,-144 303,91 194,356 74,129"
     id="path61" />
  <path
     style="fill:#1998d5"
     inkscape:connector-curvature="0"
     d="m 196,55 q 36,10 29,74 l -3,17 q -12,52 -45,48 h -3 q -18,-5 -24,-26 -7,-22 -4,-48 l 2,-15 q 12,-54 45,-50 h 3 m -3,10 q -23,-4 -35,41 l -2,16 q -3,24 4,41 7,17 17,21 h 2 q 22,3 33,-42 l 1,-13 q 4,-23 -3,-43 -5,-18 -16,-19 l -1,-2"
     id="path63" />
  <path
     style="fill:#1998d5"
     inkscape:connector-curvature="0"
     d="m 193,-128 5,184 h -10 l -7,-189 3,-11 9,16"
     id="path65" />
  <path
     style="fill:#1998d5"
     inkscape:connector-curvature="0"
     d="m 222,94 -9,-5 50,-71 6,4 1,5 -48,67"
     id="path67" />
  <path
     style="fill:#1998d5"
     inkscape:connector-curvature="0"
     d="m 301,94 -81,29 -3,-10 83,-29 3,7 -2,3"
     id="path69" />
  <path
     style="fill:#1998d5"
     inkscape:connector-curvature="0"
     d="m 210,168 5,-8 48,26 -3,10 -50,-28"
     id="path71" />
  <path
     style="fill:#1998d5"
     inkscape:connector-curvature="0"
     d="m 191,351 -7,-165 h 12 l 5,153 -7,17 -3,-5"
     id="path73" />
  <path
     style="fill:#1998d5"
     inkscape:connector-curvature="0"
     d="m 74,125 76,-5 v 10 l -73,6 -3,-7 v -4"
     id="path75" />
  <path
     style="fill:#1998d5"
     inkscape:connector-curvature="0"
     d="m 115,29 48,51 -8,7 -45,-48 5,-10"
     id="path77" />
  <path
     style="fill:#1998d5"
     inkscape:connector-curvature="0"
     d="m 122,222 31,-50 9,5 -33,57 -7,-12"
     id="path79" />
  <path
     style="fill:#7ed2f6"
     inkscape:connector-curvature="0"
     d="M -124,46 -6,280 -114,546 -237,318 -124,46"
     id="path81" />
  <path
     style="fill:#1998d5"
     inkscape:connector-curvature="0"
     d="m -135,265 -15,31 -4,15 q -2,25 5,42 6,17 16,19 l 2,1 q 8,2 19,-10 10,-12 13,-31 l 4,-15 q 2,-25 -4,-42 -7,-17 -17,-19 l -2,-1 q -8,-2 -17,10 m 47,7 q 7,20 3,46 l -2,16 q -15,52 -46,50 h -2 q -36,-11 -29,-74 l 3,-16 q 12,-52 45,-50 h 4 q 17,5 24,28"
     id="path83" />
  <path
     style="fill:#1998d5"
     inkscape:connector-curvature="0"
     d="m -118,61 7,185 h -10 l -7,-190 4,-10 6,15"
     id="path85" />
  <path
     style="fill:#1998d5"
     inkscape:connector-curvature="0"
     d="m -87,284 -8,-7 50,-69 3,3 4,6 -49,67"
     id="path87" />
  <path
     style="fill:#1998d5"
     inkscape:connector-curvature="0"
     d="m -7,284 -81,29 -4,-10 83,-30 3,7 -1,4"
     id="path89" />
  <path
     style="fill:#1998d5"
     inkscape:connector-curvature="0"
     d="m -99,358 6,-10 48,27 -4,11 -50,-28"
     id="path91" />
  <path
     style="fill:#1998d5"
     inkscape:connector-curvature="0"
     d="m -118,541 -6,-166 h 10 l 7,154 -7,17 -4,-5"
     id="path93" />
  <path
     style="fill:#1998d5"
     inkscape:connector-curvature="0"
     d="m -235,315 74,-5 2,10 -72,5 -6,-7 2,-3"
     id="path95" />
  <path
     style="fill:#1998d5"
     inkscape:connector-curvature="0"
     d="m -195,218 50,52 -9,7 -45,-48 4,-11"
     id="path97" />
  <path
     style="fill:#1998d5"
     inkscape:connector-curvature="0"
     d="m -187,411 31,-50 9,6 -34,56 -6,-12"
     id="path99" />
</svg>
