<?xml version="1.0" encoding="UTF-8" standalone="no"?>
<!-- Created with Inkscape (http://www.inkscape.org/) -->

<svg
   xmlns:dc="http://purl.org/dc/elements/1.1/"
   xmlns:cc="http://creativecommons.org/ns#"
   xmlns:rdf="http://www.w3.org/1999/02/22-rdf-syntax-ns#"
   xmlns:svg="http://www.w3.org/2000/svg"
   xmlns="http://www.w3.org/2000/svg"
   xmlns:sodipodi="http://sodipodi.sourceforge.net/DTD/sodipodi-0.dtd"
   xmlns:inkscape="http://www.inkscape.org/namespaces/inkscape"
   id="svg4677"
   version="1.1"
   inkscape:version="0.48.4 r9939"
   width="3150"
   height="6000"
   sodipodi:docname="shining_armor_cutie_mark_by_tdreyer1-d4y793d.png">
  <metadata
     id="metadata4683">
    <rdf:RDF>
      <cc:Work
         rdf:about="">
        <dc:format>image/svg+xml</dc:format>
        <dc:type
           rdf:resource="http://purl.org/dc/dcmitype/StillImage" />
        <dc:title></dc:title>
      </cc:Work>
    </rdf:RDF>
  </metadata>
  <defs
     id="defs4681" />
  <sodipodi:namedview
     pagecolor="#ffffff"
     bordercolor="#666666"
     borderopacity="1"
     objecttolerance="10"
     gridtolerance="10"
     guidetolerance="10"
     inkscape:pageopacity="0"
     inkscape:pageshadow="2"
     inkscape:window-width="1920"
     inkscape:window-height="1021"
     id="namedview4679"
     showgrid="false"
     inkscape:zoom="0.0685"
     inkscape:cx="772.03105"
     inkscape:cy="1622.0521"
     inkscape:window-x="0"
     inkscape:window-y="27"
     inkscape:window-maximized="1"
     inkscape:current-layer="svg4677" />
  <g
     id="g5510"
     transform="matrix(0.24454406,0,0,0.24454406,1189.223,2273.3817)">
    <path
       inkscape:connector-curvature="0"
       id="path4687"
       d="m 666.95377,1565.1562 -152.03164,-102.9126 -157.80779,98.5765 c -86.79428,54.2171 -158.71927,97.665 -159.8333,96.551 -1.11402,-1.1141 20.98735,-82.2772 49.11416,-180.3626 41.28056,-143.956 49.27541,-179.757 41.4697,-185.702 -5.31848,-4.0507 -70.00397,-58.2773 -143.74554,-120.5036 l -134.07557,-113.1387 79.65329,-4.5458 c 43.80931,-2.5002 114.50506,-4.9637 157.10167,-5.4744 42.59661,-0.5108 91.86669,-2.9381 109.48905,-5.3942 l 32.04067,-4.4655 24.92655,-63.05271 c 13.70961,-34.67902 45.04017,-112.87677 69.62346,-173.77279 l 44.69691,-110.72003 64.21587,177.36647 64.21586,177.36646 41.34316,4.1697 c 22.73873,2.2933 106.21541,8.1937 185.50372,13.112 79.2883,4.9183 144.1606,10.9022 144.1606,13.2976 0,2.3954 -30.3832,27.8665 -67.5183,56.6025 -37.135,28.7359 -102.3768,79.682 -144.9817,113.2134 l -77.46351,60.9663 42.8011,171.2859 c 23.54058,94.2073 41.97584,175.5978 40.96715,180.8679 -1.1046,5.7712 -62.29657,-31.3462 -153.86557,-93.3308 l 0,0 z"
       style="fill:#9eb6ca;fill-opacity:0.6" />
    <path
       inkscape:connector-curvature="0"
       id="path4689"
       d="m 1726.0884,885.95299 c -83.8374,-56.10627 -154.2897,-102.01138 -156.5607,-102.01138 -2.271,0 -74.7243,44.06029 -161.0072,97.91175 -86.283,53.85153 -157.4116,97.37343 -158.0636,96.71533 -0.652,-0.65803 21.3779,-78.38621 48.9552,-172.72927 27.5774,-94.34307 50.2823,-175.98713 50.4555,-181.43124 0.1732,-5.44412 -7.0756,-15.72962 -16.1085,-22.85667 -9.0328,-7.12705 -72.884,-60.67323 -141.8914,-118.99152 l -125.4681,-106.03326 74.3732,-4.20957 c 40.9053,-2.31527 125.5204,-6.22074 188.0336,-8.67883 l 113.6604,-4.46925 68.4362,-170.84562 c 37.6399,-93.965088 71.0031,-168.278635 74.1406,-165.14121 3.1374,3.137425 32.2709,79.51513 64.741,169.72823 32.4702,90.2131 61.2809,166.14919 64.0238,168.74686 2.743,2.59767 66.9926,8.65769 142.7769,13.46672 75.7843,4.80902 158.7681,10.89533 184.4083,13.52514 l 46.6187,4.78146 -138.6662,108.98306 c -76.2665,59.94069 -142.8063,111.54178 -147.8665,114.6691 -7.0813,4.37652 1.1783,47.33749 35.8638,186.53995 24.7853,99.46964 44.2794,181.63862 43.3202,182.59774 -0.959,0.95913 -70.3379,-44.16131 -154.1752,-100.26752 l 0,0 z"
       style="fill:#9eb6ca;fill-opacity:0.6" />
    <path
       inkscape:connector-curvature="0"
       id="path4691"
       d="m 2784.4891,1571.3936 c -76.2774,-52.2927 -143.9825,-97.9985 -150.4557,-101.5683 -8.8331,-4.871 -50.7204,17.891 -167.8833,91.2294 -85.8625,53.746 -156.903,95.4993 -157.8679,92.7852 -0.9649,-2.7141 20.6902,-83.6074 48.1224,-179.7629 l 49.8767,-174.8281 -95.6889,-80.6464 c -52.6289,-44.3554 -117.6825,-98.712 -144.5634,-120.7923 l -48.8745,-40.146 81.8425,-4.5141 c 45.0133,-2.4828 121.2585,-5.3349 169.4337,-6.3381 138.4786,-2.8835 119.115,14.2672 193.7745,-171.62952 35.4714,-88.32117 67.1495,-164.86605 70.3959,-170.09973 3.7537,-6.05143 28.0217,51.24232 66.6585,157.37239 33.4158,91.7885 63.1417,170.74836 66.0576,175.46636 4.7489,7.6839 263.3171,30.6187 345.8142,30.6735 15.0547,0.01 27.2868,2.4816 27.1824,5.4926 -0.1044,3.0109 -59.4969,51.4598 -131.9834,107.6642 -72.4863,56.2044 -138.2857,107.2753 -146.2208,113.491 -14.2216,11.1399 -13.7965,13.8187 29.7935,187.7316 24.3216,97.0368 44.221,178.1738 44.221,180.3047 0,9.3609 -18.7096,-2.128 -149.635,-91.8855 l 0,0 z"
       style="fill:#9eb6ca;fill-opacity:0.6" />
    <path
       inkscape:connector-curvature="0"
       id="path4699"
       d="m 1563.2731,5834.887 c -4.8717,-47.1009 -20.9012,-190.7858 -35.621,-319.2992 -14.7198,-128.5135 -31.7519,-277.7549 -37.849,-331.6478 -18.9445,-167.4514 -85.5956,-754.4217 -101.7996,-896.5125 -8.4822,-74.3767 -16.5128,-136.3209 -17.846,-137.6542 -1.3331,-1.3332 -171.5048,116.2374 -378.15883,261.268 -206.6542,145.0305 -376.95528,262.4715 -378.44685,260.9801 -1.49157,-1.4917 116.98616,-242.137 263.28385,-534.7677 L 1142.8316,3605.1981 876.74011,3072.8847 C 730.38985,2780.1123 611.726,2539.5526 613.04267,2538.3076 c 1.31667,-1.2454 171.46797,116.3455 378.11398,261.3127 206.64605,144.9671 377.03805,262.2587 378.64885,260.6478 2.9645,-2.9645 6.9816,-35.9262 67.7464,-555.8908 18.6519,-159.6053 43.7077,-373.2919 55.6794,-474.8591 11.9717,-101.5672 34.7162,-295.8458 50.5435,-431.7304 15.8272,-135.8844 29.538,-244.4237 30.4684,-241.1983 1.9116,6.6268 53.5199,442.7616 126.4536,1068.6448 69.9292,600.098 73.8597,632.8239 76.3878,635.9773 1.2486,1.5576 172.1581,-116.3092 379.7991,-261.9263 207.6409,-145.6169 379.073,-264.7582 380.9603,-264.7582 1.8873,0 -116.9886,240.8214 -264.1689,535.1589 l -267.6003,535.1589 268.0157,535.9892 c 147.4085,294.7939 266.9759,536.7523 265.7054,537.6848 -1.2707,0.9326 -173.0542,-118.4177 -381.7412,-265.2231 -208.687,-146.8052 -380.3521,-265.8088 -381.4781,-264.4525 -1.1258,1.3565 -9.4155,68.6075 -18.4214,149.4467 -9.0059,80.8391 -29.8828,265.695 -46.3932,410.7909 -16.5106,145.0958 -33.4705,294.3372 -37.6887,331.6477 -4.2185,37.3103 -21.1595,186.5518 -37.6468,331.6477 -16.4873,145.0957 -36.8606,324.864 -45.2741,399.4846 -8.4135,74.6208 -16.1353,138.5971 -17.1595,142.1693 -1.0239,3.5726 -5.848,-32.0421 -10.7198,-79.1432 l 0,0 z"
       style="fill:#e6458b;fill-opacity:1" />
    <path
       inkscape:connector-curvature="0"
       id="path4701"
       d="M 1550.1696,5958.9914 C 1364.1669,5854.7821 1312.5654,5824.3182 1243.2678,5777.8068 1056.1205,5652.1964 864.97832,5482.1899 746.75018,5336.1916 280.19063,4760.0436 93.256033,3895.455 122.69822,2449.8975 c 3.3068,-162.358 8.08603,-318.6711 10.62051,-347.3627 l 4.60814,-52.1665 71.44975,24.9887 c 39.29738,13.7439 112.96172,35.4974 163.69855,48.3413 88.24891,22.3398 98.4886,23.3406 236.15689,23.0789 135.43048,-0.2575 147.77754,-1.4618 209.5921,-20.4485 217.92574,-66.9373 384.94714,-203.3021 545.58624,-445.445 56.4715,-85.1233 130.8328,-220.9514 175.2236,-320.063 l 31.6433,-70.65 74.3998,148.1391 c 81.446,162.1688 126.4295,236.4519 208.9906,345.1143 98.0104,128.9959 237.4345,247.4091 356.4168,302.7054 203.4753,94.564 437.9641,92.1807 720.185,-7.3199 l 82.237,-28.9936 6.3218,166.8312 c 9.6359,254.286 7.6115,933.3956 -3.302,1107.7687 -39.7844,635.6586 -134.0596,1106.2201 -297.9251,1487.0504 -64.0026,148.7448 -107.7237,229.7696 -195.1281,361.6152 -188.2676,283.9931 -451.3798,518.7037 -803.5657,716.825 -154.423,86.8703 -144.9062,82.9969 -169.7378,69.0849 l 0,0 z m 47.7486,-258.7461 c 12.1827,-107.2874 35.3699,-311.3017 51.5268,-453.3648 16.157,-142.0631 32.9218,-289.8456 37.255,-328.4057 4.3333,-38.5599 15.9719,-140.1966 25.8634,-225.8594 9.8916,-85.6628 26.3584,-231.7849 36.593,-324.7158 10.2345,-92.9309 20.5381,-181.1365 22.8969,-196.0125 l 4.2887,-27.0471 128.3677,89.7763 c 70.6021,49.377 237.0422,166.1584 369.8669,259.5141 287.8841,202.3392 262.3956,185.8349 254.1056,164.5389 -3.627,-9.3173 -123.1962,-250.1681 -265.7094,-535.2237 l -259.1146,-518.283 266.2653,-532.4901 c 146.4459,-292.8694 261.4003,-530.6231 255.4544,-528.3415 -5.946,2.2818 -33.5695,20.3313 -61.3853,40.1101 -27.8159,19.7787 -73.8211,52.1385 -102.2336,71.9105 -28.4127,19.7722 -68.2641,47.6497 -88.5589,61.9502 -61.7795,43.5322 -372.4745,260.8607 -436.6542,305.4357 l -60.279,41.866 -4.2331,-27.4167 c -4.6781,-30.2989 -11.7944,-90.4856 -81.7729,-691.608 -26.4609,-227.301 -54.8373,-469.7308 -63.0586,-538.7329 -8.2213,-69.0021 -19.9076,-168.6308 -25.9695,-221.3971 -19.1246,-166.4737 -25.3451,-212.6988 -29.1323,-216.4859 -2.0247,-2.0247 -3.6811,1.6597 -3.6811,8.1877 0,6.5278 -6.7574,69.3493 -15.0162,139.6031 -8.259,70.2538 -31.5847,268.875 -51.8352,441.3802 -20.2505,172.5052 -43.2542,368.4416 -51.1194,435.4143 -7.8651,66.9725 -28.1367,241.3228 -45.0479,387.4448 -16.9109,146.1222 -33.3605,268.5485 -36.5543,272.0588 -5.6614,6.2223 -261.0033,-168.6672 -677.49918,-464.0344 -37.93507,-26.9026 -70.49683,-47.3897 -72.35947,-45.5271 -1.86265,1.8627 115.50918,241.2062 260.8263,531.8743 l 264.21275,528.4876 -264.21275,528.4876 c -145.31712,290.6681 -262.68279,530.0177 -260.81263,531.8879 3.33059,3.3306 66.96071,-40.5247 520.27668,-358.5865 123.1891,-86.4336 226.4323,-154.3293 229.4294,-150.8792 2.9971,3.4501 12.7089,71.0315 21.5819,150.1809 28.2157,251.6954 59.8554,531.0209 74.816,660.5014 7.9727,69.0021 24.5705,215.1241 36.8838,324.7157 12.3133,109.5915 28.7494,254.0531 36.5247,321.0257 7.7751,66.9727 18.2557,159.1116 23.2901,204.7533 5.0344,45.6416 10.1907,81.9475 11.4585,80.6797 1.2678,-1.2677 12.2729,-90.0857 24.4557,-197.3734 z"
       style="fill:#273771;fill-opacity:1" />
    <path
       inkscape:connector-curvature="0"
       id="path4703"
       d="M 1499.452,5960.2686 C 1117.9671,5757.733 831.50606,5517.8426 629.74528,5231.9523 351.99831,4838.3912 192.12426,4326.4938 120.51545,3601.4599 88.949793,3281.8599 76.681821,2847.7363 87.615174,2437.2263 92.105947,2268.6131 98.002477,2099.2515 100.71857,2060.8672 l 4.93836,-69.7897 96.49026,35.1125 c 188.50322,68.5957 307.86492,90.4885 458.25427,84.0509 185.87277,-7.9565 328.74847,-72.2183 479.47754,-215.6566 145.4342,-138.3995 285.1215,-361.8965 399.0056,-638.4016 l 35.4839,-86.153 9.4777,24.1092 c 207.0907,526.7943 456.9059,820.9734 765.4633,901.3992 82.1775,21.4196 219.9643,25.7838 318.3912,10.0845 73.4533,-11.716 204.3215,-49.7233 299.2701,-86.9155 l 72.9927,-28.5918 4.7774,37.424 c 9.7752,76.5756 20.7829,469.7961 20.7657,741.8038 -0.044,668.6764 -52.908,1184.887 -165.2038,1613.1387 -124.4287,474.5213 -310.1256,818.4726 -597.3071,1106.3439 -119.0993,119.3854 -222.3059,203.6275 -365.222,298.1115 -138.7176,91.7083 -345.0446,209.0771 -366.6061,208.5432 -3.1112,-0.077 -35.3831,-15.9224 -71.7156,-35.2118 z m 171.9506,-65.4871 c 250.1288,-136.4472 422.6802,-262.5587 595.4076,-435.162 158.2851,-158.1712 274.0856,-317.8915 377.341,-520.455 211.2168,-414.3599 321.5655,-919.4907 363.9847,-1666.1718 14.9308,-262.8193 7.1845,-1191.3098 -10.0831,-1208.5774 -2.0177,-2.0177 -47.6103,11.0085 -101.3169,28.947 -341.5972,114.0968 -595.3748,88.9665 -823.9257,-81.5894 -164.679,-122.8916 -288.0309,-285.4365 -422.7155,-557.0268 l -78.1867,-157.6627 -38.9952,86.8638 c -199.9748,445.4559 -463.8619,707.2319 -771.58929,765.4167 -61.08501,11.55 -281.55351,4.8243 -349.09723,-10.6496 -28.10219,-6.4381 -98.24444,-26.6914 -155.87167,-45.0074 -57.62723,-18.316 -105.98257,-32.096 -107.45631,-30.6222 -5.88872,5.8887 -17.54896,453.8744 -17.52767,673.4117 0.15471,1595.0413 297.79201,2442.5845 1043.62937,2971.8081 109.7315,77.8621 376.3379,236.221 397.6918,236.221 4.1372,0 48.5571,-22.3848 98.7108,-49.744 z"
       style="fill:#0f1c4c;fill-opacity:1" />
  </g>
</svg>
