<?xml version="1.0" encoding="UTF-8" standalone="no"?>
<!-- Created with Inkscape (http://www.inkscape.org/) -->

<svg
   xmlns:dc="http://purl.org/dc/elements/1.1/"
   xmlns:cc="http://creativecommons.org/ns#"
   xmlns:rdf="http://www.w3.org/1999/02/22-rdf-syntax-ns#"
   xmlns:svg="http://www.w3.org/2000/svg"
   xmlns="http://www.w3.org/2000/svg"
   xmlns:sodipodi="http://sodipodi.sourceforge.net/DTD/sodipodi-0.dtd"
   xmlns:inkscape="http://www.inkscape.org/namespaces/inkscape"
   id="svg11230"
   version="1.1"
   inkscape:version="0.48.4 r9939"
   width="1024"
   height="1108"
   sodipodi:docname="Spitfire.tex">
  <metadata
     id="metadata11236">
    <rdf:RDF>
      <cc:Work
         rdf:about="">
        <dc:format>image/svg+xml</dc:format>
        <dc:type
           rdf:resource="http://purl.org/dc/dcmitype/StillImage" />
        <dc:title></dc:title>
      </cc:Work>
    </rdf:RDF>
  </metadata>
  <defs
     id="defs11234" />
  <sodipodi:namedview
     pagecolor="#ffffff"
     bordercolor="#666666"
     borderopacity="1"
     objecttolerance="10"
     gridtolerance="10"
     guidetolerance="10"
     inkscape:pageopacity="0"
     inkscape:pageshadow="2"
     inkscape:window-width="959"
     inkscape:window-height="1021"
     id="namedview11232"
     showgrid="false"
     inkscape:zoom="0.42599278"
     inkscape:cx="813.74509"
     inkscape:cy="322.23691"
     inkscape:window-x="960"
     inkscape:window-y="27"
     inkscape:window-maximized="0"
     inkscape:current-layer="svg11230" />
  <path
     style="fill:#ff8a16;fill-opacity:1;stroke:#ff8a16;stroke-opacity:1;stroke-width:10;stroke-miterlimit:4;stroke-dasharray:none"
     d="m 596.60526,1068.017 c -35.45023,-2.3825 -82.06083,-8.9774 -113.8517,-16.109 -46.91281,-10.5238 -53.47689,-11.8195 -76.29237,-15.0592 -107.30478,-15.2372 -223.86927,-11.3188 -309.527978,10.4048 -15.308182,3.8822 -28.479564,7.0586 -29.269736,7.0586 -3.299472,0 27.843088,-29.643 43.018054,-40.9467 29.54187,-22.00551 54.89995,-35.84787 89.20339,-48.69399 48.59857,-18.19945 128.39919,-21.57955 170.19068,-7.20875 5.80995,1.99786 16.37351,5.62902 23.47457,8.06923 25.3139,8.69889 45.76425,11.78628 86.23534,13.01896 53.65145,1.63414 100.7121,-4.64668 169.97084,-22.68468 31.64436,-8.24156 78.46062,-22.57137 91.21755,-27.92041 20.74477,-8.69838 52.86618,-19.20933 55.55294,-18.17833 1.75561,0.6737 10.30928,5.86508 19.00811,11.5364 8.69884,5.67133 21.48879,13.35801 28.4221,17.08151 l 12.60604,6.77002 -11.43231,0.52812 c -54.73898,2.52866 -92.70568,8.00024 -125.87467,18.14045 -15.49366,4.73662 -50.35932,21.3253 -59.54244,28.3296 -4.19645,3.20079 -8.22053,5.81963 -8.9424,5.81963 -1.89618,0 -12.11394,8.63704 -28.14625,23.79204 l -13.9943,13.2284 39.76269,2.03 c 150.70138,7.6939 235.55575,-3.723 279.20337,-37.56594 5.16441,-4.00431 10.47652,-8.67818 11.80466,-10.38639 1.97257,-2.53701 5.50697,-2.10186 19.29829,2.37597 18.92973,6.14619 19.25838,4.98695 -5.15927,18.19736 -83.38456,45.1128 -220.52219,67.5399 -356.9352,58.3723 z"
     id="path11246"
     inkscape:connector-curvature="0" />
  <path
     style="fill:#fff759;fill-opacity:1;stroke:#fff759;stroke-opacity:1;stroke-width:10;stroke-miterlimit:4;stroke-dasharray:none"
     d="m 676.41882,1035.4395 c -15.49322,-0.8898 -36.09217,-1.8084 -45.77543,-2.0413 l -17.60593,-0.4235 11.73729,-10.6465 c 55.13147,-50.00825 117.31391,-71.48822 208.92373,-72.16954 l 30.51695,-0.22696 21.12711,10.69709 c 11.61992,5.8834 28.25753,13.68216 36.97246,17.33057 8.71494,3.64841 15.84534,7.34139 15.84534,8.20662 0,1.9278 -14.60548,13.74315 -24.3656,19.71092 -41.72357,25.5119 -125.73308,35.9743 -237.37592,29.5626 z"
     id="path11248"
     inkscape:connector-curvature="0" />
  <path
     style="fill:#ffc932;fill-opacity:1;stroke:#ffc932;stroke-opacity:1;stroke-width:10;stroke-miterlimit:4;stroke-dasharray:none"
     d="m 440.52941,969.68451 c -18.33493,-6.35312 -63.2142,-27.52056 -85.71229,-40.42646 -31.47924,-18.05788 -70.05002,-47.40341 -97.49056,-74.17303 -11.58083,-11.29767 -21.05605,-21.11247 -21.05605,-21.81066 0,-0.69819 5.54587,-0.37507 12.32415,0.71803 46.0861,7.43213 97.07813,9.76299 204.81568,9.36219 114.02808,-0.4242 129.21658,0.43555 185.44915,10.49751 21.93951,3.92573 66.70151,15.45016 80.98729,20.85098 19.24594,7.27604 51.237,20.97479 60.84859,26.05573 l 10.37825,5.4862 -11.55198,4.97521 c -18.46864,7.95407 -52.94167,19.7696 -93.71299,32.11986 -77.80189,23.56738 -135.81306,33.55962 -193.66526,33.35825 -28.82888,-0.10035 -33.48983,-0.73372 -51.61398,-7.01381 z"
     id="path11250"
     inkscape:connector-curvature="0" />
  <path
     style="fill:#ff8a16;fill-opacity:1;stroke-width:10;stroke-miterlimit:4;stroke-dasharray:none;stroke:#ff8a16;stroke-opacity:1"
     d="m 740.73596,859.54976 c -12.39633,-4.83208 -25.07261,-9.41997 -28.16949,-10.19529 -3.09688,-0.77534 -13.55337,-3.58199 -23.23664,-6.23703 -25.11587,-6.8865 -59.62969,-13.27504 -96.24576,-17.81521 -17.90638,-2.22027 -38.8381,-6.43175 -48.12288,-9.68239 -74.8761,-26.2143 -155.6249,-87.70954 -208.39785,-158.70794 -22.85143,-30.74329 -25.83287,-35.50233 -40.51702,-64.67407 -9.67145,-19.21345 -26.9114,-63.35774 -26.9114,-68.90882 0,-1.90265 46.19381,20.89524 72.51856,35.78987 11.33757,6.41483 36.94976,24.84555 44.04906,31.69802 1.49376,1.44183 10.80866,7.81293 20.69976,14.158 9.89111,6.34507 22.92975,14.93836 28.97475,19.09619 32.71875,22.50441 44.25782,30.24971 48.52159,32.56888 2.59796,1.41308 11.58988,6.29938 19.98204,10.85842 18.25066,9.91469 51.51731,22.58116 91.55085,34.85852 40.74872,12.49669 48.13344,15.3338 67.06693,25.76622 18.98206,10.45916 36.54215,26.3159 47.97398,43.32046 4.33991,6.45551 8.56139,12.26547 9.38103,12.91102 4.36576,3.43842 36.79635,58.01568 44.98532,75.70551 4.9945,10.78913 4.87877,10.78669 -24.10283,-0.51036 z"
     id="path11252"
     inkscape:connector-curvature="0" />
  <path
     style="fill:#fff759;fill-opacity:1;stroke:#fff759;stroke-opacity:1;stroke-width:10;stroke-miterlimit:4;stroke-dasharray:none"
     d="m 729.23661,777.95817 c -5.80996,-5.83128 -14.2608,-13.31577 -18.77966,-16.63224 -4.51885,-3.31644 -11.91335,-9.40081 -16.4322,-13.52081 -21.25064,-19.37498 -48.37038,-32.93429 -92.72458,-46.36039 -38.90373,-11.77623 -49.82965,-15.5396 -68.98042,-23.75993 -58.7946,-25.23717 -111.64946,-63.513 -144.77243,-104.83965 -35.00524,-43.67512 -71.68319,-118.35293 -82.98767,-168.9663 -1.32069,-5.91315 -3.08451,-12.53169 -3.91959,-14.70787 -1.25092,-3.25984 0.69888,-2.88399 11.07089,2.13407 6.92407,3.34991 16.27467,7.85574 20.77911,10.01295 46.43886,22.23993 145.75755,90.26169 202.8731,138.9445 34.34361,29.273 54.27637,47.59772 82.63506,75.9687 60.43406,60.46018 91.90407,101.89393 113.21251,149.05673 5.47028,12.1076 9.64075,22.29704 9.26772,22.64317 -0.37306,0.34616 -5.43188,-4.14166 -11.24184,-9.97293 l 0,0 z"
     id="path11254"
     inkscape:connector-curvature="0" />
  <path
     style="fill:#ffc932;fill-opacity:1;stroke:#ffc932;stroke-opacity:1;stroke-width:10;stroke-miterlimit:4;stroke-dasharray:none"
     d="m 736.86547,721.58395 c -5.15271,-9.09689 -39.4193,-56.12788 -45.36531,-62.26399 -1.83923,-1.89806 -5.93155,-6.4965 -9.09404,-10.21877 -21.35341,-25.13312 -96.25024,-98.12966 -118.94239,-115.92454 -8.16834,-6.40551 -30.19128,-24.58139 -33.02958,-27.25983 -2.49717,-2.35653 -11.38949,-20.57079 -19.30599,-39.54473 -7.36571,-17.65383 -17.94394,-54.87719 -19.92844,-70.12547 -1.32928,-10.21376 -2.88697,-10.83094 19.64313,7.7829 22.92795,18.94254 24.14618,19.96008 26.80136,22.38625 1.44214,1.31775 7.90384,6.59953 14.35935,11.73729 6.45551,5.13776 12.26547,9.96938 12.91102,10.73694 4.38322,5.21162 42.07883,30.98171 52.59882,35.95847 21.58969,10.21356 31.73565,7.67602 39.50123,-9.87937 4.25068,-9.60936 4.77234,-15.31816 4.53995,-49.68271 -0.1444,-21.35422 -1.34534,-47.19187 -2.66874,-57.417 -1.3234,-10.22514 -2.03602,-18.96132 -1.58359,-19.41375 0.88128,-0.88127 22.63775,30.81938 22.63775,32.98474 0,0.7108 2.95788,6.35655 6.57306,12.5461 5.74886,9.84261 25.4,54.42504 32.89781,74.63508 4.61239,12.43254 19.19602,64.77024 22.83526,81.95125 6.49053,30.64193 12.81252,78.92267 12.81252,97.84851 0,18.36956 -8.42658,76.68736 -11.58914,80.205 -0.88237,0.98145 -3.85418,-2.18762 -6.60404,-7.04237 l 0,0 z"
     id="path11256"
     inkscape:connector-curvature="0" />
  <path
     style="fill:#ff8a16;fill-opacity:1;stroke:#ff8a16;stroke-opacity:1;stroke-width:10;stroke-miterlimit:4;stroke-dasharray:none"
     d="m 755.05865,623.23186 c 0,-13.04154 -4.83065,-46.65692 -10.49964,-73.06472 -3.36419,-15.67132 -5.8879,-25.40794 -14.13904,-54.54982 -3.49429,-12.34129 -23.34101,-65.78346 -26.74677,-72.02223 -1.28209,-2.34858 -6.47471,-12.82038 -11.53916,-23.27065 -10.31084,-21.27599 -35.31516,-60.77525 -37.24871,-58.8417 -0.69004,0.69003 0.11761,12.67686 1.79472,26.63738 4.1423,34.48081 4.22653,90.85818 0.15306,102.3749 -9.3157,26.33711 -27.55433,23.69308 -73.23199,-10.61635 -23.69204,-17.79559 -89.19202,-71.68082 -91.91684,-75.61772 -3.57892,-5.17098 -4.5097,1.36859 -2.04068,14.33757 5.57491,29.2831 18.09624,69.36599 28.20481,90.28831 2.41229,4.99288 3.90835,9.07795 3.32457,9.07795 -1.24429,0 -26.44601,-18.62116 -30.90594,-22.83593 -1.67761,-1.58538 -4.49253,-3.69809 -6.25538,-4.69491 -3.57893,-2.02367 -38.81742,-71.30865 -38.81742,-76.32155 0,-1.75543 -0.91219,-4.19522 -2.02707,-5.42176 -1.1149,-1.22655 -3.35355,-5.92733 -4.97479,-10.44619 -1.62123,-4.51885 -4.41839,-12.22765 -6.2159,-17.13064 -7.14024,-19.47608 -14.8254,-53.38004 -17.44215,-76.94795 -2.32698,-20.9581 -2.17244,-28.51758 0.99136,-48.49302 2.06145,-13.01545 6.24129,-29.30784 9.28854,-36.20532 l 5.54046,-12.54086 3.89859,13.2723 c 2.14422,7.29977 3.89859,14.27557 3.89859,15.50178 0,1.22621 4.32722,15.26473 9.61606,31.19673 23.77045,71.60573 62.07729,121.04836 103.00283,132.94574 35.33272,10.27151 59.67602,-17.72706 51.93588,-59.73427 -3.06454,-16.63186 -14.06551,-45.50752 -22.5681,-59.23737 -47.97269,-77.46558 -66.03609,-136.61184 -55.20273,-180.754237 2.76778,-11.277801 11.548,-30.510416 16.35867,-35.83278 0.89215,-0.987054 2.87496,8.520149 4.40624,21.12712 3.49119,28.742762 11.63231,56.508177 24.19987,82.533967 8.7187,18.05531 25.47714,45.92182 33.85063,56.28799 1.69719,2.10108 9.72287,12.79917 17.83484,23.77353 8.11198,10.97437 15.38043,20.48157 16.15213,21.12712 0.7717,0.64555 10.56761,14.13689 21.7687,29.98075 58.31427,82.48517 85.23522,145.73998 97.13772,228.23959 4.78175,33.14354 5.62613,120.4896 1.20751,124.90822 -2.15966,2.15966 -2.79347,0.11057 -2.79347,-9.03097 l 0,0 z"
     id="path11258"
     inkscape:connector-curvature="0" />
  <path
     style="fill:#ffc932;fill-opacity:1"
     d="m 292.60949,756.84119 c -21.42501,-2.4513 -52.56641,-15.71588 -68.07627,-28.99687 l -8.2161,-7.0354 34.33943,0.66903 34.33942,0.66903 14.95719,10.29827 c 8.22645,5.66405 17.9662,13.8508 21.6439,18.1928 l 6.68671,7.89453 -13.72909,-0.37568 c -7.551,-0.20663 -17.42633,-0.79869 -21.94519,-1.31571 z"
     id="path11260"
     inkscape:connector-curvature="0" />
  <path
     style="fill:#ffc932;fill-opacity:1"
     d="m 988.98952,942.07634 c -1.09375,-1.69352 -4.26282,-4.08346 -7.04238,-5.31099 -2.77956,-1.22753 -8.22282,-4.1222 -12.09612,-6.43261 -11.00201,-6.56266 -25.59981,-11.28969 -59.86017,-19.38383 -37.37727,-8.83051 -54.20091,-16.93601 -70.14634,-33.79595 -9.47258,-10.01586 -31.0053,-45.8492 -27.55138,-45.8492 0.525,0 9.53577,5.80996 20.02395,12.91102 10.48818,7.10106 19.52617,12.91102 20.08442,12.91102 0.55825,0 5.70377,3.16441 11.43449,7.03203 14.05917,9.48842 35.58144,19.78919 48.78208,23.3476 9.21895,2.48509 11.90616,2.37334 17.93829,-0.74599 14.52108,-7.50915 14.1005,-26.8693 -1.31948,-60.73746 -3.96787,-8.71493 -6.36875,-15.84533 -5.33529,-15.84533 3.57865,0 23.58184,23.225 34.38044,39.91793 13.2059,20.41423 22.1749,40.00103 29.07003,63.48412 4.99275,17.00404 6.04532,35.32264 1.63746,28.49764 z"
     id="path11262"
     inkscape:connector-curvature="0" />
  <path
     style="fill:#c3561b;fill-opacity:1"
     d="m 10.18034,1097.1533 c 4.021254,-6.3799 20.896042,-29.1198 30.049425,-40.4936 5.710616,-7.0959 42.939054,-44.1854 49.932861,-49.7465 10.849624,-8.62705 43.299824,-30.10549 57.336724,-37.95058 38.63413,-21.59222 90.60288,-36.51515 133.86343,-38.43912 16.5145,-0.73448 29.99156,-1.96818 29.949,-2.74155 -0.0425,-0.77339 -8.64493,-7.69243 -19.11638,-15.37566 -34.32657,-25.18653 -74.70274,-64.41898 -90.57454,-88.00889 -4.82808,-7.17587 -9.83467,-13.82312 -11.12577,-14.77168 -3.52027,-2.58629 3.88712,-2.17121 30.21568,1.69317 40.41223,5.93151 89.89609,10.63136 136.45381,12.96001 44.60899,2.23121 146.7161,0.61508 146.7161,-2.32215 0,-0.85663 -8.18676,-5.62073 -18.1928,-10.58692 -28.07503,-13.93413 -69.79141,-42.06407 -95.65889,-64.50412 -14.94692,-12.96646 -48.43923,-47.18394 -58.68645,-59.95712 -5.1644,-6.43745 -10.57818,-12.9697 -12.03062,-14.51609 -4.87739,-5.19286 -33.02667,-48.69601 -40.7155,-62.92348 -16.67677,-30.85883 -29.95431,-68.94124 -36.26168,-104.00489 -2.80638,-15.60125 -2.74255,-17.00965 0.70727,-15.60524 2.08562,0.84905 6.96113,2.67376 10.83443,4.05488 12.81801,4.57062 53.73706,25.77302 69.71194,36.12155 8.64622,5.60104 16.89286,10.1837 18.32585,10.1837 1.433,0 -0.092,-4.48951 -3.3887,-9.9767 -6.14471,-10.22733 -27.65296,-53.29895 -36.04594,-72.18432 -11.92537,-26.83362 -29.37015,-76.9695 -32.39867,-93.11282 -1.25955,-6.71408 -0.81234,-7.82786 3.14306,-7.82786 9.19147,0 51.66789,17.20591 81.59314,33.05092 29.02725,15.3695 23.10748,11.80989 69.88572,42.02298 12.61512,8.14784 23.35715,14.39368 23.87122,13.87961 0.51407,-0.51407 -2.94108,-8.92351 -7.67809,-18.68769 -17.1585,-35.36797 -28.77631,-68.5995 -39.33721,-112.52005 -3.07597,-12.79226 -4.23308,-26.91239 -4.23214,-51.64407 0.001,-37.9211 2.88042,-52.14246 16.39504,-80.98729 8.29949,-17.71395 25.60429,-42.53525 27.50373,-39.45024 0.64034,1.04 1.88168,7.1727 2.75855,13.62821 6.34006,46.67561 20.30464,93.81797 38.71267,130.68813 10.62854,21.28834 31.16093,49.59476 43.07327,59.38175 18.20737,14.95897 36.93443,21.08334 49.60309,16.22192 11.72332,-4.49867 14.0509,-32.69696 4.9253,-59.66991 -3.15891,-9.33687 -12.8713,-29.24474 -21.58312,-44.23969 -8.71181,-14.99495 -19.3818,-34.65805 -23.71106,-43.69576 -4.32927,-9.03772 -8.98501,-18.43834 -10.34606,-20.89029 -5.73301,-10.32795 -16.48394,-48.61457 -18.74462,-66.75404 -5.67605,-45.543889 10.61572,-90.103318 42.04447,-114.995344 l 9.21082,-7.2951024 1.49918,23.9800974 c 4.7505,75.985979 20.20586,112.650309 82.83973,196.518239 50.92767,68.1931 68.63004,95.56826 88.04415,136.15254 6.48499,13.55657 12.79738,26.53557 14.02749,28.84222 3.90493,7.32224 16.60965,46.78819 20.94261,65.05608 10.48499,44.20507 12.45084,63.13295 12.55603,120.89407 0.11221,61.56396 -2.63485,88.74568 -15.37535,152.14152 -6.69685,33.32313 -6.8338,35.21922 -3.29442,45.60674 2.05454,6.02973 3.6929,18.57283 3.6929,28.27226 0,15.18902 0.84335,18.68727 6.5487,27.16448 6.53077,9.70357 25.2009,46.35865 27.14264,53.28912 0.56278,2.00865 17.78094,13.71443 38.2626,26.01288 49.62096,29.79548 95.33192,52.18825 131.93888,64.63389 16.51937,5.61624 43.29276,12.3877 49.63256,12.55293 5.6414,0.14695 5.505,0.47957 -3.5211,8.58482 -31.56563,28.34515 -89.03385,54.66205 -154.93225,70.94935 -69.809,17.2539 -114.03212,22.1082 -200.70762,22.0317 -83.71429,-0.074 -122.94054,-4.4276 -198.36017,-22.0161 -110.66373,-25.8077 -262.16139,-25.7727 -358.644282,0.083 -23.993536,6.4298 -42.949442,13.7279 -69.660113,26.8197 -12.206823,5.9829 -22.5306454,10.878 -22.9418284,10.878 -0.411183,0 1.0834036,-2.9049 3.3213034,-6.4555 z m 740.18339,-29.8362 c 56.02724,-6.1764 80.94823,-10.9492 125.58898,-24.0527 30.54806,-8.9668 80.32259,-30.3518 95.68651,-41.1103 7.66607,-5.36821 6.76624,-7.92358 -3.57572,-10.15447 C 938.33168,985.58612 852.29109,943.40658 805.13802,912.12898 729.28309,861.8128 595.77196,833.7278 467.49509,841.10334 c -58.09373,3.34025 -166.47454,-1.58197 -219.19893,-9.95509 -8.23357,-1.30759 -15.59895,-1.74858 -16.36753,-0.98002 -2.2244,2.2244 48.25586,50.66572 68.89697,66.11412 38.66239,28.9361 72.04767,47.64135 130.28389,72.99605 l 5.86865,2.55507 -6.42931,0.15892 c -7.48978,0.18498 -34.87644,-7.05082 -53.43086,-14.11709 -56.70686,-21.59628 -142.9845,-14.13491 -209.20393,18.09216 -8.95186,4.35655 -16.91256,7.92105 -17.69045,7.92105 -2.46599,0 -36.67734,23.74009 -50.10562,34.76949 -15.275782,12.5469 -39.906782,37.5455 -39.906782,40.5023 0,1.143 2.904979,0.9466 6.455509,-0.4364 6.810676,-2.6529 23.700904,-7.4381 45.188563,-12.8024 7.10106,-1.7728 27.7,-5.608 45.77542,-8.5227 29.88616,-4.8192 40.62913,-5.2917 118.54661,-5.2148 75.75375,0.075 89.62638,0.6769 119.72034,5.1972 18.72097,2.8121 40.90445,6.6326 49.29661,8.4902 73.80252,16.3357 87.14474,18.6373 130.2839,22.475 15.49322,1.3783 32.39491,2.9097 37.55932,3.4031 18.82645,1.7987 106.46023,-1.0298 137.32627,-4.4324 l 0,0 z m 11.45339,-217.64741 c -5.65381,-11.94457 -19.04382,-34.8228 -29.75558,-50.84049 -10.71173,-16.01767 -18.92698,-29.67196 -18.2561,-30.34284 0.67088,-0.67088 8.24248,6.05818 16.82582,14.95347 15.49078,16.05382 15.59329,16.11257 13.87967,7.95715 -3.50879,-16.69889 -40.43132,-84.37293 -54.43223,-99.76694 -2.34854,-2.58221 -8.99929,-10.50488 -14.77946,-17.60594 C 637.94711,628.13628 560.1826,554.43219 501.48679,509.28713 c -4.49332,-3.45597 -13.45145,-10.37686 -19.90696,-15.37979 -6.45551,-5.00292 -17.01907,-12.66916 -23.47457,-17.03606 -6.45551,-4.36693 -12.26547,-8.53775 -12.91102,-9.26852 -0.64555,-0.73076 -2.90291,-2.38501 -5.01638,-3.67611 -2.11346,-1.29111 -16.05215,-10.53422 -30.97486,-20.54026 -14.9227,-10.00604 -27.69979,-18.1928 -28.39354,-18.1928 -0.69374,0 -8.41035,-4.40099 -17.14803,-9.77995 -18.73631,-11.53423 -63.95414,-33.31218 -65.64849,-31.61786 -1.39981,1.39984 4.47789,25.54945 11.30564,46.45109 10.5244,32.21818 33.42082,82.15909 46.97511,102.46059 3.70676,5.5519 6.73953,10.63196 6.73953,11.28902 0,2.20034 29.06214,39.51855 39.56201,50.80093 5.70737,6.13273 9.69411,11.15042 8.8594,11.15042 -1.80583,0 -34.59228,-24.06555 -39.57555,-29.04882 -7.04087,-7.04087 -36.75537,-24.66556 -69.13406,-41.00577 -18.31085,-9.24074 -33.91224,-16.80134 -34.66975,-16.80134 -4.0476,0 10.14921,41.42033 24.54005,71.59746 41.27138,86.54487 126.46127,169.30071 220.65519,214.3506 29.92149,14.3105 44.85759,18.51806 80.98729,22.81457 62.90581,7.48071 121.46783,22.06833 167.84322,41.8093 4.51886,1.92357 8.61653,3.09822 9.10593,2.61032 0.48942,-0.48787 -3.736,-10.6599 -9.38983,-22.60446 z M 747.66641,725.08131 C 769.29685,610.6924 767.05716,507.01439 741.26416,428.71478 728.95813,391.35748 711.99517,355.5881 688.1561,316.7272 c -7.50109,-12.22779 -25.13157,-36.90269 -57.98758,-81.15704 -20.39644,-27.47234 -37.08445,-50.40117 -37.08445,-50.95296 0,-0.55178 -2.64573,-4.90194 -5.8794,-9.66701 -8.08534,-11.91445 -23.97545,-45.00141 -28.23735,-58.79691 -6.65467,-21.540667 -12.8324,-52.438317 -12.8324,-64.180596 0,-16.854363 -3.42893,-15.749997 -14.81793,4.772452 -7.8071,14.068065 -14.04557,44.595114 -12.21075,59.751684 4.79318,39.59434 20.21837,80.35878 47.77217,126.24852 26.20357,43.64097 34.08744,64.90267 34.14631,92.08787 0.046,21.27349 -3.49356,29.79293 -15.79273,38.01123 -11.01927,7.36304 -20.83923,8.61132 -35.10909,4.46297 -11.89413,-3.45771 -38.23777,-21.17407 -46.24222,-31.09835 -19.32901,-23.96493 -31.18266,-43.38468 -42.4895,-69.61024 -9.00391,-20.88401 -21.76128,-61.14329 -25.75952,-81.29085 -2.93756,-14.80287 -3.0659,-14.98678 -6.66967,-9.55919 -16.15976,24.33789 -22.09777,78.87378 -13.36846,122.77868 3.68137,18.51586 13.35297,51.61346 19.68632,67.36952 1.29744,3.22776 4.21563,10.62225 6.48487,16.43221 2.26926,5.80996 11.34409,25.35254 20.16633,43.42796 l 16.04041,32.86441 20.58385,15.69085 c 26.76733,20.40446 30.63186,23.50615 53.22745,42.72092 60.73387,51.64662 112.1642,102.3238 143.33611,141.23706 5.12063,6.39229 9.99548,12.15054 10.83303,12.79609 3.2381,2.49586 35.022,51.25457 35.022,53.72619 0,1.43704 0.98147,2.61279 2.18102,2.61279 1.19958,0 3.22973,-5.54587 4.51149,-12.32415 l 0,0 z"
     id="path11264"
     inkscape:connector-curvature="0" />
  <path
     style="fill:#c3561b;fill-opacity:1;stroke:#ffc932;stroke-opacity:1;stroke-width:3;stroke-miterlimit:4;stroke-dasharray:none"
     d="m 284.39339,769.06466 c -33.71393,-6.24687 -62.49153,-21.58729 -85.25829,-45.44847 l -12.60077,-13.20649 21.93377,-1.88261 c 12.06357,-1.03543 35.25392,-1.47738 51.5341,-0.98211 35.21876,1.0714 40.73723,3.5307 68.14135,30.36717 7.37521,7.22245 20.80493,28.81683 20.80493,33.45341 0,2.4277 -48.33235,0.70501 -64.55509,-2.3009 z m 45.77543,-10.10954 c 0,-4.14838 -16.80839,-21.23725 -29.47132,-29.96312 l -13.34008,-9.19247 -37.28074,-0.79311 c -23.88283,-0.50808 -37.28075,0.0528 -37.28075,1.56066 0,3.8621 21.95947,18.79329 39.00902,26.52393 8.75053,3.96768 22.83176,8.59409 31.29162,10.28091 17.4715,3.48367 47.07225,4.47924 47.07225,1.5832 z"
     id="path11266"
     inkscape:connector-curvature="0" />
  <path
     style="fill:#c3561b;fill-opacity:1;stroke:#ffc932;stroke-opacity:1;stroke-width:3;stroke-miterlimit:4;stroke-dasharray:none"
     d="m 993.3256,963.45538 c -16.78952,-15.30791 -44.56939,-29.31202 -69.25,-34.90963 -55.67169,-12.62644 -70.8715,-18.7888 -89.00003,-36.08271 -13.38204,-12.76594 -19.55771,-21.46997 -28.94982,-40.80204 -6.59697,-13.57876 -20.5129,-49.99226 -20.53856,-53.74278 -0.006,-0.93218 11.87241,6.35081 26.3973,16.18441 41.49549,28.09316 85.07737,53.98732 98.20173,58.34653 10.51038,3.49099 12.44107,3.5632 15.42728,0.57699 6.39549,-6.39549 -3.71261,-34.46251 -29.1867,-81.0423 -6.53136,-11.94269 -11.37605,-21.71398 -10.76598,-21.71398 2.47594,0 28.56768,15.24616 38.79016,22.66622 21.91309,15.90576 45.88506,45.77834 60.70398,75.64606 14.29033,28.80234 25.04154,74.48139 23.06874,98.01282 l -0.8134,9.70223 -14.0847,-12.84182 z m 3.52078,-15.3656 c -2.2e-4,-0.32277 -1.52411,-8.54957 -3.38641,-18.28176 -5.67219,-29.64218 -20.52421,-65.34989 -36.08927,-86.76697 -13.72968,-18.89163 -36.8845,-41.79478 -39.55461,-39.12467 -0.7738,0.77379 1.78423,8.04478 5.68451,16.15774 11.37057,23.65188 14.65974,34.0449 14.65974,46.32134 0,15.78288 -4.23181,19.71921 -19.78978,18.40802 -14.96598,-1.2613 -41.77991,-14.5792 -79.92222,-39.69563 -17.91621,-11.79768 -28.46789,-17.45899 -28.89102,-15.50094 -1.56281,7.23199 22.493,45.96837 35.80596,57.6573 14.58071,12.80203 21.92448,15.57289 78.71232,29.69874 25.89269,6.44074 47.354,15.47801 60.90309,25.64602 6.98706,5.24349 11.86907,7.49813 11.86769,5.48081 l 0,0 z"
     id="path11268"
     inkscape:connector-curvature="0" />
</svg>
