<?xml version="1.0" encoding="UTF-8" standalone="no"?>
<!-- Created with Inkscape (http://www.inkscape.org/) -->

<svg
   xmlns:dc="http://purl.org/dc/elements/1.1/"
   xmlns:cc="http://creativecommons.org/ns#"
   xmlns:rdf="http://www.w3.org/1999/02/22-rdf-syntax-ns#"
   xmlns:svg="http://www.w3.org/2000/svg"
   xmlns="http://www.w3.org/2000/svg"
   xmlns:sodipodi="http://sodipodi.sourceforge.net/DTD/sodipodi-0.dtd"
   xmlns:inkscape="http://www.inkscape.org/namespaces/inkscape"
   width="765"
   height="1052.1"
   id="svg10846"
   version="1.1"
   inkscape:version="0.48.4 r9939"
   sodipodi:docname="New document 99">
  <defs
     id="defs10848" />
  <sodipodi:namedview
     id="base"
     pagecolor="#ffffff"
     bordercolor="#666666"
     borderopacity="1.0"
     inkscape:pageopacity="0.0"
     inkscape:pageshadow="2"
     inkscape:zoom="0.24748737"
     inkscape:cx="411.91785"
     inkscape:cy="476.63189"
     inkscape:document-units="px"
     inkscape:current-layer="layer1"
     showgrid="false"
     units="in"
     inkscape:window-width="959"
     inkscape:window-height="1021"
     inkscape:window-x="960"
     inkscape:window-y="27"
     inkscape:window-maximized="0" />
  <metadata
     id="metadata10851">
    <rdf:RDF>
      <cc:Work
         rdf:about="">
        <dc:format>image/svg+xml</dc:format>
        <dc:type
           rdf:resource="http://purl.org/dc/dcmitype/StillImage" />
        <dc:title></dc:title>
      </cc:Work>
    </rdf:RDF>
  </metadata>
  <g
     inkscape:label="Layer 1"
     inkscape:groupmode="layer"
     id="layer1"
     transform="translate(0,-0.25975)">
    <g
       transform="matrix(16.710991,9.0660156,-9.0660156,16.710991,6552.4301,-2110.7398)"
       id="g4592">
      <g
         id="g4583">
        <path
           inkscape:connector-curvature="0"
           d="m -232.78814,293.68183 c 17.18927,-8.87489 21.45487,-2.07331 28.01332,-3.30711 4.93318,-0.92796 6.13034,-10.89605 5.4656,-14.0718 -2.54391,-12.15157 -7.07359,-21.36268 -18.48588,-28.15009 9.73689,16.35925 9.95089,20.19243 5.15478,28.61403 -2.07304,3.64009 -8.48851,1.79492 -11.77388,4.39378 -3.93798,3.11509 -7.85372,9.1609 -8.37394,12.52119 z"
           id="path7020-6-2-1"
           style="fill:#73d6ed;fill-opacity:1;stroke:none;display:inline" />
        <path
           inkscape:connector-curvature="0"
           d="m -211.44296,254.98968 c 0.42388,1.71871 -0.16583,1.75996 -0.65159,1.98786 0.85699,0.22397 1.17397,0.47807 1.61951,1.87234 0.0219,-1.04871 -0.31507,-1.55305 0.8576,-1.76402 -1.01658,-0.23838 -1.28785,-0.35783 -1.82552,-2.09618 z"
           id="path7026-1-7-9"
           style="fill:#fffffe;fill-opacity:1;stroke:none;display:inline" />
        <path
           inkscape:connector-curvature="0"
           d="m -207.34552,264.94353 c 0.42388,1.71869 -0.16594,1.75997 -0.65172,1.98787 0.8571,0.22391 1.17396,0.47808 1.61951,1.8723 0.022,-1.04873 -0.31507,-1.55305 0.85772,-1.76399 -1.01658,-0.23838 -1.28797,-0.35786 -1.82551,-2.09618 z"
           id="path7026-2-6-4-4"
           style="fill:#fffffe;fill-opacity:1;stroke:none;display:inline" />
        <path
           inkscape:connector-curvature="0"
           d="m -204.257,273.59265 c 0.36461,1.47785 -0.14272,1.51337 -0.56034,1.70932 0.73698,0.19255 1.00948,0.41107 1.39259,1.60997 0.0188,-0.90177 -0.27092,-1.33541 0.73744,-1.51683 -0.87407,-0.20497 -1.10745,-0.30766 -1.56969,-1.80246 z"
           id="path7026-9-8-0-8"
           style="fill:#fffffe;fill-opacity:1;stroke:none;display:inline" />
        <path
           inkscape:connector-curvature="0"
           d="m -205.56353,283.2387 c 0.42389,1.71869 -0.16581,1.75995 -0.65158,1.98785 0.85708,0.22394 1.17407,0.47806 1.6195,1.87233 0.022,-1.04873 -0.31507,-1.55302 0.85771,-1.76401 -1.01657,-0.23839 -1.28794,-0.35781 -1.82563,-2.09617 z"
           id="path7026-6-7-0-8"
           style="fill:#fffffe;fill-opacity:1;stroke:none;display:inline" />
        <path
           inkscape:connector-curvature="0"
           d="m -214.71371,282.1224 c 0.3378,1.36833 -0.13201,1.40124 -0.51881,1.58269 0.68238,0.17832 0.93471,0.38063 1.28939,1.49072 0.0175,-0.83499 -0.25085,-1.23649 0.68282,-1.40447 -0.80933,-0.18978 -1.02543,-0.28486 -1.4534,-1.66894 z"
           id="path7026-23-8-5-2"
           style="fill:#fffffe;fill-opacity:1;stroke:none;display:inline" />
        <path
           inkscape:connector-curvature="0"
           d="m -225.54673,284.67147 c 0.3803,1.54364 -0.14897,1.5806 -0.58519,1.7853 0.76963,0.20111 1.05428,0.42935 1.45444,1.68152 0.0196,-0.94187 -0.28296,-1.39477 0.77017,-1.58421 -0.91286,-0.21412 -1.15663,-0.32139 -1.63942,-1.88261 z"
           id="path7026-0-9-9-4"
           style="fill:#fffffe;fill-opacity:1;stroke:none;display:inline" />
      </g>
      <path
         inkscape:connector-curvature="0"
         d="m -221.74579,293.68737 -0.12179,-28.52125"
         id="path7074-2-8-7"
         style="fill:#c3e2f4;fill-opacity:1;stroke:#94c1dd;stroke-width:1.48795819;stroke-linecap:butt;stroke-linejoin:miter;stroke-miterlimit:4;stroke-opacity:1;stroke-dasharray:none;display:inline" />
      <path
         inkscape:connector-curvature="0"
         d="m -221.85066,268.44511 -0.0911,-5.29342"
         id="path7022-8-8-4"
         style="fill:#2385be;fill-opacity:1;stroke:#2385be;stroke-width:2.23193693;stroke-linecap:butt;stroke-linejoin:miter;stroke-miterlimit:4;stroke-opacity:1;stroke-dasharray:none;display:inline" />
      <path
         inkscape:connector-curvature="0"
         d="m -221.6873,250.94504 -6.06831,16.97139 14.34755,-10.78603 -16.88778,-0.10224 14.20642,10.93938 z"
         id="path4510"
         style="fill:#c3e2f4;fill-opacity:1;fill-rule:nonzero;stroke:none" />
      <path
         inkscape:connector-curvature="0"
         d="m -221.74341,255.07331 -3.28925,9.19912 7.7769,-5.84643 -9.1538,-0.0554 7.7004,5.92954 z"
         id="path4510-3"
         style="fill:#94c1dd;fill-opacity:1;fill-rule:nonzero;stroke:none" />
    </g>
  </g>
</svg>
