<?xml version="1.0" encoding="UTF-8" standalone="no"?>
<!-- Created with Inkscape (http://www.inkscape.org/) -->

<svg
   xmlns:dc="http://purl.org/dc/elements/1.1/"
   xmlns:cc="http://creativecommons.org/ns#"
   xmlns:rdf="http://www.w3.org/1999/02/22-rdf-syntax-ns#"
   xmlns:svg="http://www.w3.org/2000/svg"
   xmlns="http://www.w3.org/2000/svg"
   version="1.1"
   width="2200"
   height="2000"
   id="svg5812">
  <metadata
     id="metadata5818">
    <rdf:RDF>
      <cc:Work
         rdf:about="">
        <dc:format>image/svg+xml</dc:format>
        <dc:type
           rdf:resource="http://purl.org/dc/dcmitype/StillImage" />
        <dc:title></dc:title>
      </cc:Work>
    </rdf:RDF>
  </metadata>
  <defs
     id="defs5816" />
  <g
     transform="matrix(0.58194768,0,0,0.58194768,485.98248,419.31992)"
     id="g5824">
    <path
       d="m 528.10219,1965.2847 -6.691,-1.131 0.006,-68.5732 c 0.003,-37.7153 -1.5827,-176.4199 -3.52386,-308.2326 -1.94116,-131.8126 -4.69901,-339.8418 -6.12855,-462.2871 -1.42954,-122.4452 -3.79385,-305.66671 -5.25403,-407.1588 -1.47612,-102.59979 -1.72829,-185.42925 -0.56797,-186.55397 1.14779,-1.11256 37.12339,-19.74297 79.94578,-41.40093 42.82238,-21.65795 119.46472,-60.48146 170.3163,-86.27445 50.85158,-25.79299 145.01217,-73.43499 209.24574,-105.87112 64.2336,-32.43614 154.0146,-77.87644 199.5134,-100.97844 45.4988,-23.10201 126.43,-64.07629 179.847,-91.05394 53.4171,-26.977663 98.3076,-49.797386 99.7567,-50.710503 1.4491,-0.913115 8.8685,-4.620991 16.4875,-8.239724 l 13.8527,-6.579514 2.3431,12.605357 c 1.2887,6.932945 3.4991,20.269589 4.912,29.636986 2.2648,15.015737 10.4796,66.791758 17.3714,109.489048 3.0975,19.19024 11.7243,78.21791 14.5792,99.75669 8.6253,65.073 15.22,117.35156 17.0342,135.0365 12.4175,121.04725 16.3695,164.6537 19.4045,214.11192 13.8822,226.21905 8.2051,386.47539 -18.5314,523.11439 -10.4004,53.152 -27.7789,113.8278 -42.0854,146.938 -9.1966,21.2843 -3.293,14.6913 9.3232,-10.4119 20.3016,-40.3954 65.5868,-117.3584 73.1739,-124.3607 0.725,-0.6691 4.568,-5.5961 8.5399,-10.9489 17.3407,-23.3693 42.4931,-49.1246 62.0937,-63.5819 35.2998,-26.0369 63.0164,-28.8927 110.7056,-11.4066 36.9508,13.5486 57.8468,40.0014 64.5528,81.7189 4.9696,30.915 -2.8969,75.5472 -23.3078,132.2417 -9.3657,26.0148 -11.8255,31.6544 -32.2424,73.9233 -62.9299,130.2829 -159.625,219.5934 -277.8591,256.6388 -43.8467,13.7383 -106.4177,24.4824 -132.1789,22.6966 l -10.7704,-0.7466 7.9159,-24.3309 c 4.3538,-13.382 11.3555,-35.8273 15.5594,-49.8783 4.2039,-14.0511 9.1369,-30.4745 10.9622,-36.4964 1.8253,-6.0219 4.5195,-15.3285 5.987,-20.6813 1.4676,-5.3528 5.0112,-17.944 7.8748,-27.9805 5.8078,-20.3557 21.1279,-79.2919 24.0338,-92.4574 1.0337,-4.6837 4.8476,-21.1071 8.4753,-36.4964 8.1523,-34.5836 11.7566,-51.8038 18.3333,-87.5912 2.8281,-15.3893 6.6783,-35.6448 8.5561,-45.0122 5.222,-26.0501 17.9472,-109.6187 22.7853,-149.635 12.9755,-107.31989 18.5596,-220.36624 16.4103,-332.21194 -1.2662,-65.89189 -6.3738,-147.4136 -12.4942,-199.41824 -0.7874,-6.691 -2.5142,-21.47202 -3.8373,-32.84672 -2.5992,-22.34564 -8.4914,-61.56635 -12.3442,-82.1673 l -2.3983,-12.82421 -35.7051,18.78173 c -19.6378,10.32998 -43.3693,22.85888 -52.7367,27.84204 -9.3674,4.98319 -22.5061,11.84166 -29.1971,15.2411 -11.2192,5.7 -44.6453,23.30657 -96.1071,50.62248 -11.3747,6.03769 -34.9148,18.39358 -52.3114,27.45752 -17.3966,9.06394 -39.2944,20.58299 -48.6618,25.59788 -16.4592,8.81156 -33.273,17.68776 -90.0243,47.52518 -14.7202,7.73925 -40.9976,21.60531 -58.39422,30.81346 -17.39659,9.20817 -37.10462,19.52348 -43.79562,22.92289 -6.691,3.39945 -19.82968,10.23903 -29.19708,15.19913 -9.3674,4.9601 -31.26521,16.52864 -48.6618,25.70788 -17.39659,9.17922 -40.38929,21.31484 -51.09489,26.96801 -10.7056,5.65318 -30.41363,16.02608 -43.79562,23.05087 -13.382,7.0248 -35.27981,18.59635 -48.6618,25.71458 -13.382,7.11822 -36.3837,19.30708 -51.11491,27.08635 -14.7312,7.77924 -28.54208,15.239 -30.69085,16.5772 -3.99054,2.48521 -6.93106,34.08358 -14.26454,153.28471 -1.39958,22.7494 -3.59381,58.3333 -4.87606,79.0754 -1.28226,20.7421 -3.50328,56.8735 -4.9356,80.292 -1.43233,23.4184 -4.16967,66.1192 -6.08298,94.8905 -4.47744,67.3294 -7.73638,119.2841 -10.91227,173.9659 -1.399,24.0876 -2.89589,48.9109 -3.32642,55.1629 l -0.78279,11.3673 6.31559,-4.0169 c 3.47358,-2.2093 12.88494,-8.4403 20.91414,-13.8465 44.39804,-29.8945 101.77238,-58.9697 141.11922,-71.514 63.72445,-20.3164 111.4073,-9.6005 135.94496,30.5514 7.08811,11.5985 14.58489,34.0485 18.75492,56.1637 2.8307,15.0122 2.03645,22.0443 -5.01528,44.4046 -1.05506,3.3455 -3.15093,10.4623 -4.6575,15.8151 -10.61309,37.7083 -37.64316,113.2899 -51.45917,143.8904 -68.7808,152.3394 -158.42366,238.4966 -267.66582,257.2579 -23.30302,4.0021 -58.6169,6.457 -68.60284,4.769 l 0,0 z"
       id="path5822"
       style="fill:#000000;fill-opacity:1" />
  </g>
</svg>
