<?xml version="1.0" encoding="UTF-8" standalone="no"?>
<!-- Created with Inkscape (http://www.inkscape.org/) -->

<svg
   xmlns:dc="http://purl.org/dc/elements/1.1/"
   xmlns:cc="http://creativecommons.org/ns#"
   xmlns:rdf="http://www.w3.org/1999/02/22-rdf-syntax-ns#"
   xmlns:svg="http://www.w3.org/2000/svg"
   xmlns="http://www.w3.org/2000/svg"
   xmlns:sodipodi="http://sodipodi.sourceforge.net/DTD/sodipodi-0.dtd"
   xmlns:inkscape="http://www.inkscape.org/namespaces/inkscape"
   id="svg4542"
   version="1.1"
   inkscape:version="0.48.4 r9939"
   width="1670"
   height="2853"
   sodipodi:docname="Zecora.tex">
  <metadata
     id="metadata4548">
    <rdf:RDF>
      <cc:Work
         rdf:about="">
        <dc:format>image/svg+xml</dc:format>
        <dc:type
           rdf:resource="http://purl.org/dc/dcmitype/StillImage" />
        <dc:title></dc:title>
      </cc:Work>
    </rdf:RDF>
  </metadata>
  <defs
     id="defs4546" />
  <sodipodi:namedview
     pagecolor="#ffffff"
     bordercolor="#666666"
     borderopacity="1"
     objecttolerance="10"
     gridtolerance="10"
     guidetolerance="10"
     inkscape:pageopacity="0"
     inkscape:pageshadow="2"
     inkscape:window-width="1920"
     inkscape:window-height="1021"
     id="namedview4544"
     showgrid="false"
     inkscape:zoom="0.14405889"
     inkscape:cx="490.13135"
     inkscape:cy="354.25954"
     inkscape:window-x="0"
     inkscape:window-y="27"
     inkscape:window-maximized="1"
     inkscape:current-layer="svg4542" />
  <g
     id="g4568"
     transform="matrix(0.46002964,0,0,0.46002964,451.85132,770.47421)">
    <path
       inkscape:connector-curvature="0"
       id="path4552"
       d="m 773.22445,303.642 c 0.0273,-23.18721 22.5698,-115.97481 43.23823,-177.97374 13.23017,-39.6864 44.51314,-118.010502 48.87673,-122.374094 0.83828,-0.838277 18.88303,15.510914 40.09945,36.331544 51.69016,50.72588 91.90328,102.86264 115.59464,149.86981 l 9.2244,18.30246 -16.0058,6.86086 c -8.8031,3.77348 -17.13456,6.86087 -18.51429,6.86087 -1.37972,0 -16.47838,5.67864 -33.55258,12.61921 -39.4616,16.04092 -138.90293,54.97435 -167.273,65.491 -14.15824,5.24839 -21.69087,6.64187 -21.68778,4.01208 z"
       style="fill:#6a6977;fill-opacity:1" />
    <path
       inkscape:connector-curvature="0"
       id="path4554"
       d="m 371.23692,702.13505 c -2.21619,-8.39473 -7.2595,-29.3199 -11.20737,-46.50038 -16.83104,-73.24601 -15.77572,-68.67099 -32.6249,-141.43522 -6.10339,-26.35784 -21.23911,-90.02779 -28.52032,-119.97358 -2.93183,-12.05787 -4.44021,-22.81379 -3.35196,-23.90204 1.71323,-1.71322 27.34908,2.06203 88.95741,13.10028 147.37553,26.40499 216.94386,39.17669 218.13503,40.04629 1.05614,0.77102 -128.10821,168.91496 -151.96737,197.82852 -11.49219,13.92673 -16.02681,19.73595 -34.93043,44.74873 -8.59024,11.36637 -18.23318,23.82543 -21.42875,27.6868 -3.19558,3.86136 -8.78504,10.76536 -12.42103,15.34221 l -6.61088,8.32154 -4.02943,-15.26315 z"
       style="fill:#6a6977;fill-opacity:1" />
    <path
       inkscape:connector-curvature="0"
       id="path4556"
       d="m 217.89124,1347.0409 c -23.86177,-23.3311 -82.25022,-80.2831 -129.752117,-126.5601 -47.501895,-46.277 -84.7269479,-84.1399 -82.7223409,-84.1399 2.0046067,0 15.0990819,-7.5454 29.0988309,-16.7675 13.999755,-9.2222 59.815044,-38.286 101.811757,-64.5862 41.99672,-26.3003 85.26206,-53.8968 96.1452,-61.3256 10.88315,-7.42877 20.75384,-13.50686 21.93487,-13.50686 1.18103,0 8.67618,-4.45478 16.65589,-9.89953 7.97971,-5.44474 21.25543,-14.12335 29.5016,-19.2858 l 14.99302,-9.38626 -1.86824,14.94729 c -1.02753,8.22102 -3.4511,28.22312 -5.38571,44.44916 -1.9346,16.226 -6.70842,56.0534 -10.60848,88.5054 -3.90006,32.452 -8.73391,73.0604 -10.74189,90.2409 -2.00798,17.1805 -5.77807,47.6368 -8.37797,67.6807 -2.59991,20.0439 -6.57041,52.8429 -8.82333,72.8868 -2.25293,20.0439 -5.08169,43.8064 -6.28614,52.8056 l -2.18991,16.362 -43.38504,-42.4201 z"
       style="fill:#6a6977;fill-opacity:1" />
    <path
       inkscape:connector-curvature="0"
       id="path4558"
       d="m 75.588321,2040.9183 c 0,-7.0587 56.922399,-121.3539 88.372509,-177.4442 39.9701,-71.2855 110.7114,-182.2172 116.20017,-182.2172 1.12583,0 5.60544,16.79 9.95469,37.3112 10.08057,47.5633 31.3823,145.832 51.34901,236.8823 8.58167,39.1333 16.33624,74.6656 17.23238,78.9607 l 1.62933,7.8093 -142.36904,0 c -78.30298,0 -142.369049,-0.5859 -142.369049,-1.3021 z"
       style="fill:#6a6977;fill-opacity:1" />
    <path
       inkscape:connector-curvature="0"
       id="path4560"
       d="m 434.23751,2584.5334 c 2.03168,-92.227 8.12572,-194.1616 15.38408,-257.3287 l 2.54885,-22.1817 76.35766,66.9086 c 41.99672,36.7998 87.2907,76.5889 100.65329,88.4203 13.36259,11.8314 29.69828,26.2706 36.30153,32.087 l 12.00592,10.5753 -9.32261,12.2226 c -15.62284,20.4826 -87.28711,82.4031 -129.69576,112.0618 -34.63357,24.2212 -97.09098,60.4912 -104.16658,60.4912 -1.28756,0 -1.31743,-46.4654 -0.0664,-103.2564 z"
       style="fill:#6a6977;fill-opacity:1" />
    <path
       inkscape:connector-curvature="0"
       id="path4562"
       d="m 1052.3026,2829.0155 c -28.6003,-34.7705 -57.92204,-74.5078 -83.72031,-113.4593 -27.2101,-41.0831 -60.00127,-97.7387 -60.00127,-103.6683 0,-2.1596 4.60663,-3.9266 10.23696,-3.9266 13.52416,0 196.67132,-13.1398 243.13162,-17.4433 20.0439,-1.8566 43.0918,-3.377 51.2176,-3.3786 l 14.774,0 -24.7522,49.4102 c -40.6102,81.0657 -94.536,169.6032 -123.5913,202.917 l -9.6243,11.0349 -17.6708,-21.4831 z"
       style="fill:#6a6977;fill-opacity:1" />
    <path
       inkscape:connector-curvature="0"
       id="path4564"
       d="m 1536.7592,2593.6203 c -76.2137,-31.7081 -133.4359,-55.9686 -134.9131,-57.199 -0.7284,-0.6068 9.8794,-13.1 23.5728,-27.7628 38.8611,-41.6121 93.9062,-112.1892 136.8705,-175.4912 l 39.2768,-57.8689 3.9495,16.2192 c 13.6457,56.0388 16.4019,150.662 6.2649,215.0828 -6.3658,40.4557 -18.4493,96.7158 -22.2193,103.4525 -1.9042,3.4026 -14.6913,-0.5769 -52.8021,-16.4326 z"
       style="fill:#6a6977;fill-opacity:1" />
    <path
       inkscape:connector-curvature="0"
       id="path4566"
       d="m 1024.8529,2443.113 c -36.80778,-5.8268 -52.25771,-10.2285 -93.66477,-26.685 -46.08681,-18.3165 -54.44621,-22.3145 -85.08156,-40.6921 -120.18182,-72.095 -206.60438,-181.2037 -270.44517,-341.4378 -52.22155,-131.0709 -86.31598,-297.291 -101.24711,-493.6087 -5.44969,-71.6536 -2.40267,-263.1901 5.16256,-324.5201 10.38844,-84.2172 31.74785,-184.5645 54.66953,-256.83937 62.99559,-198.63294 198.62143,-406.88146 318.43268,-488.94176 53.95116,-36.95185 110.65301,-61.71042 173.90924,-75.93655 33.7145,-7.58228 152.8398,-8.41651 189.1588,-1.32468 128.5917,25.10953 220.9318,82.15823 294.5741,181.99094 19.5501,26.50304 50.7708,78.04353 50.7708,83.81476 0,1.89371 -9.7617,-6.03607 -21.6925,-17.62173 -86.795,-84.28351 -178.0958,-138.11142 -275.0612,-162.16684 -58.3187,-14.46785 -146.7879,-16.14597 -203.0419,-3.85138 -109.13074,23.85104 -208.92573,93.09289 -273.51357,189.77488 -6.73618,10.08344 -13.24142,19.11446 -14.4561,20.06893 -4.2137,3.31105 -30.73978,43.55619 -50.3283,76.35766 C 588.4616,986.7794 536.72806,1288.6028 575.75892,1620.5179 c 25.8627,219.9341 67.18687,364.2339 139.65124,487.6478 63.78771,108.6367 170.5381,200.9086 264.32232,228.4725 74.38242,21.8615 138.84762,15.4956 211.32202,-20.8677 54.7512,-27.471 121.2641,-85.471 178.3884,-155.5567 75.1923,-92.2534 139.0038,-226.2167 170.2796,-357.4788 16.0582,-67.3948 18.7187,-82.0717 28.9414,-159.6569 6.7678,-51.3638 5.4863,-242.4039 -2.0604,-307.1661 -3.3367,-28.6341 -6.7423,-59.8713 -7.568,-69.416 -1.4892,-17.2134 -2.783,-23.7056 -20.7504,-104.1241 -55.2989,-247.50698 -162.6692,-415.16398 -285.7436,-446.18384 -115.6281,-29.14307 -221.3427,29.8208 -293.87641,163.91378 -70.35685,130.06866 -112.92622,239.83216 -138.93954,358.25026 -19.18507,87.3345 -23.3297,125.6145 -23.52772,217.3026 -0.18764,86.8749 2.14047,110.9047 18.83082,194.365 21.21032,106.0625 40.26711,167.6117 72.95062,235.6142 24.30895,50.5781 43.97636,79.2636 75.61696,110.2898 28.66547,28.1089 57.04707,44.2387 94.66737,53.8013 26.6569,6.7759 31.5741,7.0354 59.3764,3.1339 16.672,-2.3396 38.0506,-7.0821 47.5081,-10.5389 105.8346,-38.6839 167.741,-148.431 197.7959,-350.6507 17.7599,-119.4946 19.0906,-137.0262 19.2316,-253.3686 0.1458,-120.309 -2.717,-153.8875 -20.7879,-243.8268 -15.8992,-79.1304 -51.0737,-168.1748 -82.6042,-209.11295 -29.9393,-38.87209 -58.1888,-55.50998 -94.2736,-55.52365 -20.2431,-0.007 -26.9942,1.57713 -40.4735,9.50105 -52.8118,31.0457 -96.2459,104.60125 -143.9968,243.85835 -32.37139,94.4053 -46.33814,172.9847 -46.33814,260.7061 0,71.2095 8.01752,124.1181 28.27885,186.6158 34.46569,106.312 85.69089,166.4318 141.80879,166.4318 50.5038,0 108.6354,-50.0343 145.4452,-125.1856 23.7394,-48.4666 36.6841,-105.904 42.0562,-186.6082 9.0914,-136.5777 -14.003,-231.4758 -64.4665,-264.9014 -22.436,-14.861 -39.7366,-19.0328 -71.3965,-17.2165 -70.3334,4.0352 -103.8993,60.3739 -103.5968,173.8822 0.1954,73.3679 14.0341,118.3974 41.0534,133.5831 16.662,9.3645 26.7055,9.5935 40.9092,0.9327 22.8912,-13.9582 40.8446,-51.7308 51.2584,-107.844 0.8857,-4.7724 1.0394,11.6272 0.3415,36.4434 -1.379,49.0425 -6.344,71.1587 -21.0698,93.8535 -13.0136,20.0561 -29.5501,30.256 -52.0819,32.1245 -63.1819,5.2395 -103.5691,-60.6707 -108.0324,-176.3046 -1.6935,-43.8732 -0.4517,-58.9422 9.2951,-112.8011 10.8213,-59.7957 52.2982,-105.5254 112.2808,-123.7936 47.9094,-14.5911 92.167,-3.9944 129.0965,30.9099 40.2104,38.0054 58.403,76.7435 72.9158,155.2627 8.4636,45.791 5.4164,201.7339 -5.0545,258.6703 -13.981,76.022 -37.0885,136.6168 -67.5024,177.0109 -28.2635,37.5382 -68.8028,73.2576 -102.8784,90.6466 -19.8806,10.1453 -25.8581,11.5264 -50.3266,11.6274 -26.2409,0.1083 -29.5805,-0.7867 -60.7833,-16.2908 -69.85946,-34.7119 -109.20753,-82.5293 -150.92367,-183.4085 -61.76148,-149.3535 -62.71102,-323.5323 -2.77053,-508.2298 36.36881,-112.0649 76.92906,-196.51419 120.8573,-251.63321 46.7139,-58.61419 91.0232,-83.29927 149.5209,-83.29927 60.0954,0 101.654,16.91878 143.6856,58.49525 78.6575,77.80592 131.7731,224.48933 151.0019,417.00473 8.9674,89.781 5.0517,240.1204 -8.6784,333.1971 -20.4233,138.4501 -32.5797,193.0025 -58.0074,260.3102 -44.8741,118.7828 -108.3447,192.1328 -194.6731,224.9744 -70.7524,26.9161 -159.0659,26.4938 -226.93826,-1.0852 -76.6817,-31.1585 -144.35698,-111.7601 -193.18947,-230.0894 -33.94646,-82.2581 -63.64961,-196.5788 -80.90321,-311.3782 -6.33855,-42.1746 -6.41226,-220.8448 -0.10884,-263.7811 20.82378,-141.8423 61.3013,-271.0209 127.24453,-406.08391 39.91579,-81.75435 55.65786,-109.26001 85.963,-150.20077 65.77557,-88.85958 139.67095,-137.13317 229.94015,-150.21281 68.7468,-9.96114 159.0186,13.80725 226.4172,59.61525 29.1786,19.83146 84.4602,78.83543 110.1668,117.58483 47.035,70.8993 86.6671,161.20258 115.7677,263.78101 21.2409,74.8733 41.9403,170.1614 49.134,226.1843 21.2692,165.6411 17.2507,346.659 -10.7263,483.1702 -27.2383,132.907 -69.9318,245.0029 -137.2827,360.4491 -23.2945,39.9291 -29.9828,49.3989 -72.6549,102.8709 -97.9887,122.7887 -206.3755,195.7585 -317.5551,213.7892 -37.9262,6.1507 -53.5501,6.174 -91.6864,0.1368 l 0,10e-5 z"
       style="fill:#6a6977;fill-opacity:1" />
  </g>
</svg>
